<?xml version="1.0" encoding="utf-8"?>
<!-- Generator: Adobe Illustrator 24.3.0, SVG Export Plug-In . SVG Version: 6.00 Build 0)  -->
<svg version="1.1" id="Layer_1" xmlns="http://www.w3.org/2000/svg" xmlns:xlink="http://www.w3.org/1999/xlink" x="0px" y="0px"
	 viewBox="0 0 400 400" enable-background="new 0 0 400 400" xml:space="preserve">
<g>
	<g>
		<g>
			<path fill="#FF7D5F" d="M312.171,171.104c-5.022-5.022-13.158-5.022-18.18,0l-8.75,8.747l-11.149,11.152
				c-5.022,5.022-13.164,5.022-18.185,0c-5.022-5.022-5.022-13.161,0-18.183l12.265-12.265l34.008-34.008
				c5.418-5.418,5.418-14.203,0-19.621c-5.418-5.421-14.203-5.421-19.621-0.003l-34.008,34.008l-2.729,2.727
				c-3.38,3.38-8.862,3.38-12.242,0s-3.77-9.249-0.39-12.632l2.729-2.727l24.36-24.359c3.846-3.849,3.456-10.469-0.384-14.315
				c-3.846-3.846-10.079-3.846-13.932,0.003l-25.458,25.458c-0.024-0.015-0.053-0.033-0.077-0.048l13.884-13.89
				c5.022-5.022,5.022-13.161,0-18.183c-5.022-5.019-13.158-5.019-18.18,0l-43.715,43.712l-24.235,24.238l-47.638,47.638
				c-0.012,0.012-0.024,0.027-0.035,0.036c-0.024,0.024-0.048,0.044-0.071,0.068c-27.934,27.937-27.934,73.238,0.006,101.178
				c27.934,27.937,73.238,27.937,101.172,0c0.023-0.024,0.047-0.047,0.071-0.071c0.006-0.012,0.024-0.021,0.035-0.033l47.768-47.768
				l29.381-29.378l33.299-33.298C317.193,184.264,317.193,176.126,312.171,171.104z"/>
		</g>
		<g>
			<g>
				<path fill="#FF9D8D" d="M288.574,191.003l11.149-11.152l8.75-8.747c0.573-0.576,1.199-1.066,1.849-1.512
					c-5.004-3.427-11.887-2.933-16.33,1.512l-8.75,8.747l-11.149,11.152c-0.579,0.576-1.205,1.069-1.849,1.512
					C277.248,195.942,284.125,195.449,288.574,191.003z"/>
			</g>
			<g>
				<path fill="#FF9D8D" d="M247.051,142.428c0.301,0.431,0.632,0.851,1.01,1.229c3.379,3.38,8.862,3.38,12.242,0l2.729-2.727
					l34.008-34.008c0.786-0.789,1.66-1.427,2.57-1.985c-5.347-3.282-12.425-2.644-17.051,1.985l-34.008,34.008L247.051,142.428z"/>
			</g>
			<g>
				<path fill="#FF9D8D" d="M114.927,299.834c-27.94-27.94-27.94-73.241-0.006-101.178c0.024-0.024,0.048-0.044,0.071-0.068
					c0.012-0.009,0.024-0.023,0.035-0.036l47.637-47.638l24.236-24.238l43.714-43.712c0.573-0.576,1.199-1.066,1.85-1.513
					c-5.004-3.424-11.887-2.93-16.33,1.513l-43.715,43.712l-24.235,24.238l-47.638,47.638c-0.012,0.012-0.024,0.027-0.035,0.036
					c-0.024,0.024-0.048,0.044-0.071,0.068c-27.934,27.937-27.934,73.238,0.006,101.178c15.81,15.813,37.186,22.658,57.829,20.569
					C142.447,318.802,127.05,311.958,114.927,299.834z"/>
			</g>
		</g>
		<g>
			<path fill="#FFDA88" d="M198.102,231.648c-11.096-9.58-2.015-25.302-7.06-33.875c-5.04-8.572-16.129-2.617-16.129-2.617
				s-46.421,23.68-47.112,23.961l0.691-0.281c-13.949,6.502-23.639,20.608-23.639,37.012c0,22.566,18.298,40.861,40.861,40.861
				c16.307,0,30.339-9.574,36.897-23.385c0.018-0.009,0.035-0.012,0.053-0.021c22.38-11.282,12.915-16.448,17.825-20.986
				C205.393,247.78,209.192,241.228,198.102,231.648z"/>
		</g>
		<g>
			<path fill="#FFE2A9" d="M114.684,255.848c0-16.404,9.689-30.51,23.639-37.012l-0.692,0.281
				c0.692-0.281,47.112-23.961,47.112-23.961s0.975-0.517,2.464-1.028c-5.388-2.656-12.295,1.028-12.295,1.028
				s-46.421,23.68-47.112,23.961l0.691-0.281c-13.949,6.502-23.639,20.608-23.639,37.012c0,22.566,18.298,40.861,40.861,40.861
				c1.672,0,3.314-0.124,4.933-0.322C130.394,293.965,114.684,276.754,114.684,255.848z"/>
		</g>
		<g>
			<path fill="#FFC67B" d="M139.115,256.861c0,4.452-3.61,8.065-8.071,8.065c-4.449,0-8.065-3.613-8.065-8.065
				c0-4.458,3.616-8.07,8.065-8.07C135.505,248.791,139.115,252.403,139.115,256.861z"/>
		</g>
		<g>
			<path fill="#FFD39F" d="M129.118,256.861c0-3.37,2.068-6.251,4.998-7.459c-0.945-0.39-1.985-0.611-3.072-0.611
				c-4.449,0-8.065,3.613-8.065,8.07c0,4.452,3.616,8.065,8.065,8.065c1.087,0,2.127-0.222,3.072-0.612
				C131.186,263.106,129.118,260.226,129.118,256.861z"/>
		</g>
		<g>
			<path fill="#FFDA88" d="M197.606,167.621c0,4.452-3.616,8.065-8.071,8.065c-4.455,0-8.065-3.613-8.065-8.065
				c0-4.458,3.61-8.071,8.065-8.071C193.99,159.55,197.606,163.163,197.606,167.621z"/>
		</g>
		<g>
			<path fill="#FFDA88" d="M248.014,208.065c0,4.452-3.61,8.065-8.071,8.065c-4.449,0-8.065-3.613-8.065-8.065
				c0-4.458,3.616-8.071,8.065-8.071C244.404,199.995,248.014,203.608,248.014,208.065z"/>
		</g>
		<g>
			<path fill="#FFC67B" d="M181.47,245.269c0,6.396-5.193,11.589-11.604,11.589c-6.398,0-11.592-5.193-11.592-11.589
				c0-6.413,5.193-11.607,11.592-11.607C176.277,233.663,181.47,238.856,181.47,245.269z"/>
		</g>
		<g>
			<path fill="#FFD39F" d="M166.31,245.269c0-4.992,3.161-9.211,7.574-10.85c-1.252-0.464-2.6-0.756-4.018-0.756
				c-6.398,0-11.592,5.193-11.592,11.607c0,6.396,5.193,11.589,11.592,11.589c1.418,0,2.765-0.293,4.018-0.756
				C169.471,254.462,166.31,250.25,166.31,245.269z"/>
		</g>
		<g>
			<g>
				<path fill="#FF7D5F" d="M104.853,169.636c-1.176,0-2.351-0.455-3.244-1.365c-1.749-1.793-1.719-4.665,0.071-6.416l61.894-60.5
					c1.796-1.752,4.668-1.722,6.416,0.071c1.749,1.793,1.719,4.665-0.071,6.416l-61.894,60.5
					C107.146,169.204,105.999,169.636,104.853,169.636z"/>
			</g>
		</g>
		<g>
			<path fill="#FF9D8D" d="M106.147,168.247c-1.749-1.793-1.719-4.664,0.071-6.416l61.894-60.5c0.266-0.263,0.597-0.408,0.91-0.588
				c-1.725-1.022-3.947-0.878-5.447,0.588l-61.894,60.5c-1.79,1.752-1.82,4.623-0.071,6.416c0.892,0.91,2.068,1.365,3.244,1.365
				c0.798,0,1.56-0.287,2.269-0.706C106.785,168.708,106.437,168.54,106.147,168.247z"/>
		</g>
		<g>
			<g>
				<path fill="#FF7D5F" d="M276.25,253.328c-1.194,0-2.381-0.467-3.273-1.392c-1.737-1.808-1.678-4.679,0.124-6.416l42.35-40.728
					c1.808-1.743,4.685-1.681,6.416,0.124c1.737,1.808,1.684,4.679-0.124,6.416l-42.35,40.728
					C278.512,252.909,277.378,253.328,276.25,253.328z"/>
			</g>
		</g>
		<g>
			<path fill="#FF9D8D" d="M277.514,251.913c-1.737-1.808-1.678-4.679,0.124-6.416l42.35-40.728
				c0.266-0.254,0.585-0.387,0.886-0.564c-1.707-1.013-3.923-0.886-5.424,0.564l-42.35,40.728c-1.802,1.737-1.861,4.608-0.124,6.416
				c0.892,0.925,2.08,1.391,3.273,1.391c0.774,0,1.512-0.269,2.204-0.665C278.122,252.439,277.798,252.209,277.514,251.913z"/>
		</g>
		<g>
			<g>
				<path fill="#FF7D5F" d="M305.991,148.963c-1.152,0-2.298-0.434-3.184-1.306c-1.784-1.761-1.802-4.632-0.047-6.416l14.481-14.688
					c1.767-1.781,4.632-1.802,6.422-0.045c1.784,1.761,1.802,4.632,0.041,6.419l-14.481,14.682
					C308.337,148.511,307.167,148.963,305.991,148.963z"/>
			</g>
		</g>
		<g>
			<path fill="#FF9D8D" d="M309.566,141.241l14.268-14.472c-0.071-0.08-0.094-0.183-0.171-0.26c-1.79-1.757-4.656-1.737-6.422,0.045
				l-14.481,14.688c-1.754,1.784-1.737,4.656,0.047,6.416c0.886,0.871,2.032,1.306,3.184,1.306c1.176,0,2.346-0.452,3.232-1.353
				l0.213-0.213C307.876,145.625,307.888,142.948,309.566,141.241z"/>
		</g>
		<g>
			<path fill="#FFE2A9" d="M187.609,167.621c0-3.371,2.068-6.251,4.999-7.459c-0.951-0.39-1.985-0.611-3.073-0.611
				c-4.455,0-8.065,3.613-8.065,8.071c0,4.452,3.61,8.065,8.065,8.065c1.087,0,2.121-0.222,3.073-0.612
				C189.677,173.866,187.609,170.986,187.609,167.621z"/>
		</g>
		<g>
			<path fill="#FFE2A9" d="M238.018,208.065c0-3.371,2.068-6.251,4.998-7.459c-0.945-0.39-1.985-0.612-3.072-0.612
				c-4.449,0-8.065,3.613-8.065,8.071c0,4.452,3.616,8.065,8.065,8.065c1.087,0,2.127-0.221,3.072-0.612
				C240.086,214.31,238.018,211.43,238.018,208.065z"/>
		</g>
	</g>
	<g>
		<g>
			<path fill="#161616" d="M145.714,301.246c-25.033,0-45.399-20.366-45.399-45.398c0-17.048,9.728-32.767,24.909-40.468
				c0.266-0.183,0.555-0.34,0.868-0.467l0.564-0.292c2.248-1.111,4.969-0.213,6.088,2.029c0.993,1.985,0.393,4.348-1.312,5.642
				c-0.304,0.257-0.647,0.482-1.025,0.656c-12.768,5.952-21.018,18.865-21.018,32.9c0,20.029,16.295,36.324,36.324,36.324
				c13.925,0,26.799-8.162,32.796-20.794c0.437-0.916,1.164-1.657,2.071-2.112c0.059-0.03,0.118-0.056,0.18-0.086
				c12.912-6.529,13.181-9.882,13.4-12.576c0.16-1.985,0.399-4.986,3.247-7.619c2.319-2.145,3.388-3.935,3.359-5.628
				c-0.038-2.266-1.985-5.128-5.631-8.277c-8.266-7.137-7.66-16.714-7.173-24.41c0.269-4.263,0.523-8.292-0.833-10.596
				c-2.712-4.611-9.347-1.306-10.091-0.91l-26.436,13.474c-2.227,1.128-4.966,0.251-6.103-1.985
				c-1.137-2.233-0.248-4.966,1.985-6.103l26.365-13.435c5.081-2.732,16.366-5.403,22.102,4.36c2.768,4.7,2.411,10.328,2.068,15.769
				c-0.505,7.949-0.482,13.06,4.047,16.968c5.817,5.028,8.685,9.929,8.774,14.989c0.074,4.402-1.976,8.472-6.271,12.446
				c-0.204,0.192-0.248,0.23-0.363,1.681c-0.458,5.719-2.148,11.506-17.202,19.361C178.242,291.66,162.597,301.246,145.714,301.246z
				"/>
		</g>
		<g>
			<path fill="#161616" d="M151.032,325.325c-20.324,0-39.428-7.914-53.794-22.283c-29.665-29.665-29.668-77.929-0.006-107.594
				c0.053-0.053,0.115-0.112,0.183-0.174L212.926,79.757c6.786-6.78,17.816-6.774,24.596,0c2.156,2.153,3.628,4.741,4.41,7.483
				l0.824-0.821c5.616-5.613,14.744-5.61,20.348-0.003c5.719,5.725,5.893,15.219,0.387,20.732l-27.092,27.089
				c-1.495,1.495-1.306,4.514,0.39,6.213c1.554,1.554,4.272,1.554,5.826,0l36.737-36.734c3.477-3.477,8.1-5.391,13.016-5.391
				c0.003,0,0.003,0,0.003,0c4.918,0,9.542,1.914,13.019,5.394c3.477,3.477,5.391,8.1,5.391,13.019
				c0,4.919-1.914,9.542-5.391,13.019l-46.273,46.273c-1.572,1.571-2.437,3.66-2.437,5.882c0,2.224,0.866,4.313,2.437,5.885
				c3.244,3.244,8.526,3.244,11.769,0l19.899-19.899c6.783-6.783,17.813-6.783,24.596,0c3.285,3.285,5.096,7.654,5.096,12.301
				c0,4.644-1.811,9.013-5.096,12.298l-62.024,62.021c-1.773,1.772-4.644,1.772-6.416,0c-1.772-1.773-1.772-4.644,0-6.416
				l62.024-62.021c3.244-3.244,3.244-8.523,0-11.766c-3.244-3.244-8.52-3.244-11.763,0l-19.899,19.899
				c-3.285,3.285-7.654,5.096-12.301,5.096c-4.647,0-9.016-1.811-12.301-5.096c-3.285-3.285-5.096-7.654-5.096-12.301
				c0-4.644,1.811-9.013,5.096-12.298l46.273-46.273c3.639-3.639,3.639-9.565,0-13.205c-1.764-1.764-4.109-2.736-6.602-2.736l0,0
				c-2.496,0-4.839,0.969-6.602,2.733l-36.737,36.737c-5.146,5.14-13.512,5.143-18.658-0.003
				c-5.267-5.267-5.444-13.988-0.393-19.048l27.092-27.086c1.965-1.965,1.778-5.731-0.387-7.902
				c-2.071-2.065-5.441-2.068-7.512,0.009l-25.458,25.455c-1.492,1.492-3.82,1.755-5.613,0.641
				c-1.173-0.736-1.985-1.985-2.142-3.359c-0.157-1.374,0.284-2.768,1.261-3.746l13.884-13.89c3.244-3.244,3.244-8.522,0-11.766
				c-3.244-3.238-8.52-3.238-11.763,0L103.754,201.761c-0.012,0.012-0.024,0.024-0.035,0.036l0,0
				c-26.194,26.194-26.191,68.703-0.065,94.829c12.652,12.655,29.479,19.624,47.378,19.624s34.725-6.969,47.378-19.624l0,0
				c0.059-0.059,0.118-0.121,0.18-0.177l32.604-32.604c1.773-1.772,4.644-1.772,6.416,0c1.772,1.772,1.772,4.644,0,6.416
				l-32.678,32.678c-0.029,0.033-0.062,0.062-0.094,0.095C190.407,317.435,171.326,325.325,151.032,325.325z"/>
		</g>
		<g>
			<path fill="#161616" d="M131.044,269.463c-6.948,0-12.602-5.654-12.602-12.602c0-6.951,5.654-12.608,12.602-12.608
				c6.951,0,12.608,5.657,12.608,12.608C143.652,263.809,137.995,269.463,131.044,269.463z M131.044,253.328
				c-1.944,0-3.527,1.586-3.527,3.533c0,1.944,1.583,3.527,3.527,3.527c1.947,0,3.533-1.583,3.533-3.527
				C134.577,254.914,132.991,253.328,131.044,253.328z"/>
		</g>
		<g>
			<path fill="#161616" d="M189.535,180.223c-6.948,0-12.602-5.654-12.602-12.602c0-6.951,5.654-12.608,12.602-12.608
				c6.951,0,12.608,5.657,12.608,12.608C202.143,174.569,196.486,180.223,189.535,180.223z M189.535,164.088
				c-1.944,0-3.527,1.586-3.527,3.533c0,1.944,1.583,3.527,3.527,3.527c1.947,0,3.533-1.583,3.533-3.527
				C193.068,165.674,191.482,164.088,189.535,164.088z"/>
		</g>
		<g>
			<path fill="#161616" d="M239.944,220.668c-6.948,0-12.602-5.654-12.602-12.602c0-6.951,5.654-12.608,12.602-12.608
				c6.951,0,12.608,5.657,12.608,12.608C252.552,215.013,246.895,220.668,239.944,220.668z M239.944,204.532
				c-1.944,0-3.527,1.586-3.527,3.533c0,1.944,1.583,3.527,3.527,3.527c1.947,0,3.533-1.583,3.533-3.527
				C243.477,206.119,241.891,204.532,239.944,204.532z"/>
		</g>
		<g>
			<path fill="#161616" d="M169.867,261.396c-8.895,0-16.129-7.235-16.129-16.126c0-8.901,7.234-16.144,16.129-16.144
				c8.901,0,16.141,7.243,16.141,16.144C186.008,254.161,178.768,261.396,169.867,261.396z M169.867,238.2
				c-3.89,0-7.054,3.17-7.054,7.069c0,3.888,3.164,7.051,7.054,7.051c3.896,0,7.066-3.164,7.066-7.051
				C176.933,241.37,173.763,238.2,169.867,238.2z"/>
		</g>
		<g>
			<g>
				<path fill="#161616" d="M104.853,169.636c-1.176,0-2.351-0.455-3.244-1.365c-1.749-1.793-1.719-4.665,0.071-6.416l61.894-60.5
					c1.796-1.752,4.668-1.722,6.416,0.071c1.749,1.793,1.719,4.665-0.071,6.416l-61.894,60.5
					C107.146,169.204,105.999,169.636,104.853,169.636z"/>
			</g>
		</g>
		<g>
			<g>
				<path fill="#161616" d="M276.25,253.328c-1.194,0-2.381-0.467-3.273-1.392c-1.737-1.808-1.678-4.679,0.124-6.416l42.35-40.728
					c1.808-1.743,4.685-1.681,6.416,0.124c1.737,1.808,1.684,4.679-0.124,6.416l-42.35,40.728
					C278.512,252.909,277.378,253.328,276.25,253.328z"/>
			</g>
		</g>
		<g>
			<g>
				<path fill="#161616" d="M305.991,148.963c-1.152,0-2.298-0.434-3.184-1.306c-1.784-1.761-1.802-4.632-0.047-6.416l14.481-14.688
					c1.767-1.781,4.632-1.802,6.422-0.045c1.784,1.761,1.802,4.632,0.041,6.419l-14.481,14.682
					C308.337,148.511,307.167,148.963,305.991,148.963z"/>
			</g>
		</g>
	</g>
</g>
</svg>
