<?xml version="1.0" encoding="utf-8"?>
<!-- Generator: Adobe Illustrator 24.3.0, SVG Export Plug-In . SVG Version: 6.00 Build 0)  -->
<svg version="1.1" id="Layer_1" xmlns="http://www.w3.org/2000/svg" xmlns:xlink="http://www.w3.org/1999/xlink" x="0px" y="0px"
	 viewBox="0 0 400 400" enable-background="new 0 0 400 400" xml:space="preserve">
<g>
	<g>
		<g>
			<polygon fill="#FF7D5F" points="200.749,94.601 219.51,117.796 246.481,105.039 253.32,134.077 283.156,134.285 276.719,163.415 
				303.507,176.549 285.067,200.001 303.507,223.456 276.719,236.589 283.156,265.717 253.32,265.928 246.481,294.964 
				219.51,282.208 200.749,305.4 181.988,282.208 155.016,294.964 148.178,265.928 118.345,265.717 124.778,236.589 97.991,223.456 
				116.43,200.001 97.991,176.549 124.778,163.415 118.345,134.285 148.178,134.077 155.016,105.039 181.988,117.796 			"/>
		</g>
		<g>
			<polygon fill="#FF9D8D" points="139.7,265.867 144.819,242.692 118.031,229.559 136.471,206.105 118.031,182.652 
				144.819,169.518 138.385,140.388 168.218,140.18 174.342,114.181 155.016,105.039 148.178,134.077 118.345,134.285 
				124.778,163.415 97.991,176.549 116.43,200.001 97.991,223.456 124.778,236.589 118.345,265.717 			"/>
		</g>
		<g>
			<polygon fill="#FF9D8D" points="202.028,123.9 213.239,110.041 200.749,94.601 183.961,115.355 			"/>
		</g>
		<g>
			<polygon fill="#FF9D8D" points="168.218,272.031 149.584,271.9 155.016,294.964 171.754,287.047 			"/>
		</g>
		<g>
			<polygon fill="#FF9D8D" points="202.028,288.311 191.104,293.478 200.749,305.4 208.299,296.066 			"/>
		</g>
		<g>
			<path fill="#FFDA88" d="M262.924,200.001c0,34.341-27.836,62.179-62.175,62.179c-34.341,0-62.178-27.838-62.178-62.179
				c0-34.34,27.837-62.176,62.178-62.176C235.087,137.825,262.924,165.662,262.924,200.001z"/>
		</g>
		<g>
			<path fill="#FFE2A9" d="M148.402,200.001c0-32.681,25.228-59.416,57.262-61.928c-1.625-0.127-3.255-0.248-4.916-0.248
				c-34.341,0-62.178,27.837-62.178,62.176c0,34.341,27.837,62.179,62.178,62.179c1.66,0,3.291-0.121,4.916-0.248
				C173.63,259.418,148.402,232.683,148.402,200.001z"/>
		</g>
		<g>
			<path fill="#FFDA88" d="M300.074,89.852c0,5.994-4.86,10.852-10.853,10.852c-5.994,0-10.85-4.858-10.85-10.852
				c0-5.994,4.856-10.852,10.85-10.852C295.215,79.001,300.074,83.858,300.074,89.852z"/>
		</g>
		<g>
			<path fill="#FFDA88" d="M131.475,310.148c0,5.994-4.859,10.852-10.853,10.852c-5.994,0-10.85-4.858-10.85-10.852
				c0-5.994,4.857-10.852,10.85-10.852C126.616,299.296,131.475,304.154,131.475,310.148z"/>
		</g>
		<g>
			<path fill="#FFDA88" d="M320.203,120.098c0,3.905-3.164,7.071-7.069,7.071c-3.905,0-7.072-3.165-7.072-7.071
				c0-3.905,3.167-7.071,7.072-7.071C317.04,113.027,320.203,116.193,320.203,120.098z"/>
		</g>
		<g>
			<path fill="#FFDA88" d="M93.938,294.549c0,3.905-3.164,7.071-7.069,7.071c-3.905,0-7.072-3.165-7.072-7.071
				c0-3.905,3.167-7.071,7.072-7.071C90.774,287.478,93.938,290.643,93.938,294.549z"/>
		</g>
		<g>
			<g>
				<path fill="#FF7D5F" d="M157.395,200.536c-2.505,0-4.537-2.031-4.537-4.537c0-24.082,19.591-43.673,43.673-43.673
					c2.508,0,4.537,2.031,4.537,4.538s-2.029,4.537-4.537,4.537c-19.078,0-34.598,15.521-34.598,34.598
					C161.932,198.505,159.903,200.536,157.395,200.536z"/>
			</g>
		</g>
		<g>
			<path fill="#FFE2A9" d="M287.989,89.852c0-4.259,2.473-7.904,6.041-9.682c-1.453-0.724-3.072-1.17-4.809-1.17
				c-5.994,0-10.85,4.858-10.85,10.852c0,5.994,4.856,10.852,10.85,10.852c1.737,0,3.356-0.446,4.809-1.17
				C290.462,97.756,287.989,94.111,287.989,89.852z"/>
		</g>
		<g>
			<path fill="#FFE2A9" d="M311.938,120.098c0-2.882,1.728-5.352,4.204-6.453c-0.88-0.39-1.846-0.617-2.869-0.617
				c-3.905,0-7.072,3.165-7.072,7.071c0,3.905,3.167,7.071,7.072,7.071c1.022,0,1.988-0.228,2.869-0.617
				C313.666,125.449,311.938,122.979,311.938,120.098z"/>
		</g>
		<g>
			<path fill="#FFE2A9" d="M119.39,310.148c0-4.259,2.473-7.904,6.041-9.682c-1.453-0.724-3.073-1.17-4.809-1.17
				c-5.994,0-10.85,4.858-10.85,10.852c0,5.994,4.857,10.852,10.85,10.852c1.737,0,3.356-0.446,4.809-1.17
				C121.863,318.051,119.39,314.406,119.39,310.148z"/>
		</g>
		<g>
			<path fill="#FFE2A9" d="M85.533,294.549c0-2.882,1.728-5.351,4.204-6.453c-0.881-0.39-1.847-0.617-2.869-0.617
				c-3.905,0-7.072,3.165-7.072,7.071c0,3.905,3.167,7.071,7.072,7.071c1.022,0,1.988-0.227,2.869-0.617
				C87.262,299.9,85.533,297.43,85.533,294.549z"/>
		</g>
	</g>
	<g>
		<g>
			<path fill="#161616" d="M200.749,266.718c-36.787,0-66.715-29.929-66.715-66.717c0-36.786,29.928-66.714,66.715-66.714
				c36.786,0,66.712,29.928,66.712,66.714c0,16.835-6.347,32.94-17.871,45.348c-1.704,1.834-4.574,1.941-6.413,0.236
				c-1.836-1.706-1.942-4.576-0.236-6.413c9.96-10.723,15.445-24.634,15.445-39.171c0-31.781-25.856-57.639-57.637-57.639
				c-31.783,0-57.64,25.857-57.64,57.639c0,31.783,25.857,57.642,57.64,57.642c8.853,0,17.423-2.018,25.472-5.995
				c2.241-1.112,4.966-0.192,6.078,2.057c1.111,2.247,0.189,4.967-2.058,6.078C220.933,264.384,211.01,266.718,200.749,266.718z"/>
		</g>
		<g>
			<path fill="#161616" d="M200.749,309.938c-1.369,0-2.666-0.619-3.527-1.684l-16.519-20.419l-23.746,11.23
				c-1.235,0.586-2.673,0.582-3.908-0.013c-1.235-0.595-2.134-1.715-2.447-3.049l-6.022-25.563l-26.266-0.186
				c-1.369-0.01-2.662-0.638-3.515-1.709c-0.854-1.071-1.179-2.47-0.883-3.808l5.664-25.645l-23.584-11.564
				c-1.23-0.603-2.122-1.728-2.427-3.065c-0.304-1.335,0.01-2.737,0.857-3.814l16.234-20.649l-16.234-20.648
				c-0.846-1.077-1.161-2.479-0.857-3.814c0.304-1.335,1.196-2.462,2.427-3.065l23.586-11.564l-5.666-25.647
				c-0.295-1.338,0.03-2.737,0.883-3.808c0.854-1.071,2.145-1.699,3.514-1.709l1.997-0.015c0.012,0,0.024,0,0.034,0
				c2.492,0,4.518,2.009,4.537,4.503c0.009,1.204-0.452,2.301-1.21,3.118l5.54,25.082c0.451,2.044-0.554,4.131-2.434,5.053
				l-21.751,10.666l14.973,19.042c1.294,1.646,1.294,3.963,0,5.61l-14.973,19.044l21.751,10.666c1.88,0.922,2.885,3.009,2.434,5.053
				l-5.224,23.65l24.225,0.171c2.093,0.015,3.904,1.459,4.384,3.498l5.554,23.575l21.9-10.357c1.895-0.892,4.154-0.378,5.467,1.248
				l15.234,18.831l15.234-18.831c1.316-1.626,3.575-2.14,5.467-1.248l21.9,10.357l5.554-23.575c0.48-2.038,2.291-3.483,4.384-3.498
				l24.228-0.171l-5.227-23.65c-0.451-2.044,0.554-4.131,2.434-5.053l21.751-10.666L281.5,202.806c-1.294-1.647-1.294-3.964,0-5.61
				l14.973-19.042l-21.751-10.666c-1.88-0.922-2.885-3.009-2.434-5.053l5.227-23.653l-24.227-0.168
				c-2.094-0.015-3.905-1.459-4.385-3.498l-5.554-23.577l-21.899,10.358c-1.889,0.895-4.152,0.381-5.47-1.248l-15.233-18.834
				l-15.233,18.834c-1.319,1.629-3.576,2.139-5.469,1.248l-21.899-10.358l-5.554,23.577c-0.48,2.038-2.291,3.483-4.385,3.498
				l-5.568,0.038c-0.01,0-0.021,0-0.031,0c-2.492,0-4.52-2.01-4.538-4.507c-0.018-2.505,2-4.551,4.506-4.568l2.001-0.013
				l6.021-25.565c0.313-1.334,1.213-2.453,2.447-3.049c1.235-0.595,2.672-0.6,3.91-0.013l23.745,11.231l16.518-20.422
				c1.725-2.13,5.332-2.13,7.057,0l16.518,20.422l23.745-11.231c1.238-0.586,2.675-0.582,3.91,0.013
				c1.235,0.595,2.134,1.715,2.447,3.049l6.022,25.565l26.268,0.183c1.371,0.01,2.663,0.638,3.517,1.709
				c0.854,1.071,1.179,2.47,0.883,3.808l-5.667,25.647l23.584,11.564c1.23,0.603,2.122,1.73,2.427,3.065
				c0.304,1.335-0.01,2.737-0.857,3.814l-16.234,20.648l16.234,20.649c0.846,1.077,1.161,2.479,0.857,3.814
				c-0.304,1.337-1.196,2.462-2.427,3.065l-23.584,11.564l5.667,25.645c0.295,1.338-0.03,2.737-0.883,3.808
				c-0.854,1.071-2.146,1.699-3.515,1.709l-26.269,0.186l-6.022,25.563c-0.313,1.334-1.213,2.453-2.447,3.049
				c-1.235,0.595-2.673,0.6-3.908,0.013l-23.746-11.23l-16.519,20.419C203.415,309.319,202.118,309.938,200.749,309.938z"/>
		</g>
		<g>
			<path fill="#161616" d="M289.221,105.242c-8.486,0-15.388-6.904-15.388-15.389c0-8.486,6.902-15.389,15.388-15.389
				c8.487,0,15.391,6.904,15.391,15.389C304.612,98.338,297.708,105.242,289.221,105.242z M289.221,83.538
				c-3.481,0-6.313,2.833-6.313,6.314c0,3.481,2.831,6.314,6.313,6.314c3.483,0,6.316-2.833,6.316-6.314
				C295.537,86.371,292.704,83.538,289.221,83.538z"/>
		</g>
		<g>
			<path fill="#161616" d="M120.622,325.537c-8.486,0-15.388-6.904-15.388-15.389c0-8.486,6.902-15.389,15.388-15.389
				c8.487,0,15.391,6.904,15.391,15.389C136.013,318.633,129.109,325.537,120.622,325.537z M120.622,303.833
				c-3.481,0-6.313,2.833-6.313,6.314c0,3.481,2.831,6.314,6.313,6.314c3.483,0,6.316-2.833,6.316-6.314
				C126.938,306.666,124.105,303.833,120.622,303.833z"/>
		</g>
		<g>
			<path fill="#161616" d="M313.134,131.706c-6.401,0-11.61-5.208-11.61-11.608c0-6.4,5.208-11.608,11.61-11.608
				c6.4,0,11.607,5.208,11.607,11.608C324.741,126.498,319.534,131.706,313.134,131.706z M313.134,117.565
				c-1.397,0-2.535,1.136-2.535,2.533s1.137,2.533,2.535,2.533c1.396,0,2.532-1.136,2.532-2.533S314.53,117.565,313.134,117.565z"/>
		</g>
		<g>
			<path fill="#161616" d="M86.869,306.157c-6.402,0-11.61-5.208-11.61-11.608c0-6.4,5.208-11.608,11.61-11.608
				c6.4,0,11.607,5.208,11.607,11.608C98.475,300.949,93.269,306.157,86.869,306.157z M86.869,292.015
				c-1.397,0-2.535,1.136-2.535,2.533c0,1.397,1.137,2.533,2.535,2.533c1.396,0,2.532-1.136,2.532-2.533
				C89.4,293.151,88.264,292.015,86.869,292.015z"/>
		</g>
		<g>
			<path fill="#161616" d="M157.395,200.536c-2.505,0-4.537-2.031-4.537-4.537c0-24.082,19.591-43.673,43.673-43.673
				c2.508,0,4.537,2.031,4.537,4.538s-2.029,4.537-4.537,4.537c-19.078,0-34.598,15.521-34.598,34.598
				C161.932,198.505,159.903,200.536,157.395,200.536z"/>
		</g>
	</g>
</g>
</svg>
