<svg xmlns="http://www.w3.org/2000/svg" viewBox="0 0 64 64"><defs><style>.cls-1{fill:#ffab00;}.cls-2{fill:#bd7f00;}.cls-3{fill:#281111;}</style></defs><title>giraffe</title><g id="giraffe"><path class="cls-1" d="M47,27v5L41,51v4a6,6,0,0,1-6,6H29a6,6,0,0,1-6-6V51L17,32V27c0-.26,0-.52,0-.78A13.86,13.86,0,0,1,18.88,20a14.15,14.15,0,0,1,2.86-3.49,3,3,0,0,0,.25-.25A3.94,3.94,0,0,0,22.65,12L21.32,9c-.11,0-.21,0-.32,0a3,3,0,1,1,.42-6A3,3,0,0,1,23.9,5.26,2.94,2.94,0,0,1,24,6.43a4,4,0,0,0,.23,2.26l1.23,2.78a3,3,0,0,0,3.22,1.73A13.29,13.29,0,0,1,30.21,13h3.58a13.29,13.29,0,0,1,1.56.17,3,3,0,0,0,3.22-1.73l1.19-2.69A4.36,4.36,0,0,0,40,6.38,2.34,2.34,0,0,1,40,6a3,3,0,1,1,3,3c-.11,0-.21,0-.32,0l-1.33,3A3.94,3.94,0,0,0,42,16.26l.25.25A14.15,14.15,0,0,1,45.12,20,13.86,13.86,0,0,1,47,26.22C47,26.48,47,26.74,47,27Z"/><rect class="cls-2" x="23" y="47" width="18" height="14" rx="6" ry="6"/><path class="cls-3" d="M29,56a1,1,0,0,1-1-1V53a1,1,0,0,1,2,0v2A1,1,0,0,1,29,56Z"/><path class="cls-3" d="M35,56a1,1,0,0,1-1-1V53a1,1,0,0,1,2,0v2A1,1,0,0,1,35,56Z"/><path class="cls-2" d="M57,29H55a12.91,12.91,0,0,1-8-2.78A13.86,13.86,0,0,0,45.12,20a14.15,14.15,0,0,0-2.86-3.49L42,16.26A2.26,2.26,0,0,1,42,16h2A13,13,0,0,1,57,29Z"/><path class="cls-2" d="M22,16a2.26,2.26,0,0,1,0,.26,3,3,0,0,1-.25.25A14.15,14.15,0,0,0,18.88,20,13.86,13.86,0,0,0,17,26.22,12.91,12.91,0,0,1,9,29H7A13,13,0,0,1,20,16Z"/><circle class="cls-3" cx="38.5" cy="32.5" r="1.5"/><circle class="cls-3" cx="25.5" cy="32.5" r="1.5"/><path class="cls-3" d="M38.94,60.52a1,1,0,0,1-.66-1.75A5,5,0,0,0,40,55V51a1,1,0,0,1,0-.3l6-18.85V27c0-.25,0-.49,0-.74a13,13,0,0,0-.31-2.15,1,1,0,1,1,2-.44A16.78,16.78,0,0,1,48,26.16c0,.29,0,.57,0,.84v5a1,1,0,0,1,0,.3L42,51.15V55a7,7,0,0,1-2.4,5.27A1,1,0,0,1,38.94,60.52Z"/><path class="cls-3" d="M31,62H29a7,7,0,0,1-7-7V51.15L16.05,32.3A1,1,0,0,1,16,32V27c0-.27,0-.55,0-.82a14.75,14.75,0,0,1,2-6.68,15.07,15.07,0,0,1,3.06-3.74.87.87,0,0,0,.16-.17,2.94,2.94,0,0,0,.5-3.21L20.68,10A4,4,0,1,1,25,6.56a3.11,3.11,0,0,0,0,1.38,1,1,0,0,1-.65,1.26,1,1,0,0,1-1.26-.66A5,5,0,0,1,23,6.27a1.74,1.74,0,0,0-.05-.75A2.05,2.05,0,0,0,21.29,4,2,2,0,0,0,19,6a2,2,0,0,0,2,2l.22,0a1,1,0,0,1,1,.59l1.33,3a4.89,4.89,0,0,1-.84,5.38l-.31.32a13.19,13.19,0,0,0-2.67,3.24A12.89,12.89,0,0,0,18,26.28c0,.23,0,.47,0,.72v4.85L24,50.7A1,1,0,0,1,24,51v4a5,5,0,0,0,5,5h2a1,1,0,0,1,0,2Z"/><path class="cls-3" d="M45.21,21.17a1,1,0,0,1-.89-.55l-.09-.17a13.27,13.27,0,0,0-2.63-3.19c-.12-.11-.23-.22-.34-.34a4.88,4.88,0,0,1-.82-5.36l1.33-3a1,1,0,0,1,1-.59l.13,0a2.11,2.11,0,0,0,1.63-.71A2,2,0,0,0,43.37,4a2,2,0,0,0-1.65.42A2,2,0,0,0,41,6a.82.82,0,0,0,0,.22,5.4,5.4,0,0,1-.35,3l-1.19,2.68a4,4,0,0,1-4.3,2.32A11.26,11.26,0,0,0,33.73,14H30.21c-.49,0-1,.08-1.39.15a4,4,0,0,1-4-1.74,1,1,0,0,1,1.68-1.1,2,2,0,0,0,2,.87c.5-.08,1.05-.14,1.67-.18h3.64a14.49,14.49,0,0,1,1.73.19,2,2,0,0,0,2.14-1.16l1.19-2.68A3.38,3.38,0,0,0,39,6.51,2.57,2.57,0,0,1,39,6a4,4,0,0,1,4.72-3.93,4,4,0,0,1-.4,7.92l-1.06,2.39a3,3,0,0,0,.48,3.2,1,1,0,0,0,.19.18,15.25,15.25,0,0,1,3,3.74l.06.11.06.11a1,1,0,0,1-.44,1.34A.93.93,0,0,1,45.21,21.17Z"/><path class="cls-3" d="M35,62a1,1,0,0,1-1-1,1,1,0,0,1,1.07-1h.07a1,1,0,0,1,1.1.88,1,1,0,0,1-.86,1.1A2.36,2.36,0,0,1,35,62Z"/><path class="cls-3" d="M57,30H55a13.9,13.9,0,0,1-8.64-3,1,1,0,0,1-.38-.73,12.89,12.89,0,0,0-.31-2.17,1,1,0,1,1,2-.44,16.24,16.24,0,0,1,.31,2A11.83,11.83,0,0,0,55,28h1A12,12,0,0,0,44.17,17,14.34,14.34,0,0,1,46,19.5l.06.11.06.11a1,1,0,0,1-1.78.9l.89-.45-.92.39a.6.6,0,0,1-.06-.11,13.27,13.27,0,0,0-2.63-3.19c-.12-.11-.23-.22-.34-.34a.92.92,0,0,1-.24-.55A2.3,2.3,0,0,1,41,16a1,1,0,0,1,1-1h2A14,14,0,0,1,58,29,1,1,0,0,1,57,30Z"/><path class="cls-3" d="M9,30H7a1,1,0,0,1-1-1,14.08,14.08,0,0,1,1.17-5.62,1,1,0,1,1,1.84.8A11.81,11.81,0,0,0,8,28H9a11.83,11.83,0,0,0,7.06-2.3,14.61,14.61,0,0,1,2-6.2A14.34,14.34,0,0,1,19.83,17,12,12,0,0,0,11,21.09a1,1,0,1,1-1.5-1.32A14,14,0,0,1,20,15h2a1,1,0,0,1,1,1,2.3,2.3,0,0,1,0,.37.92.92,0,0,1-.24.55l-.33.34a13.19,13.19,0,0,0-2.67,3.24A12.89,12.89,0,0,0,18,26.28a1.05,1.05,0,0,1-.38.73A13.9,13.9,0,0,1,9,30Z"/></g></svg>