<svg xmlns="http://www.w3.org/2000/svg" viewBox="0 0 64 64"><defs><style>.cls-1{fill:#aeadb3;}.cls-2{fill:#d8d9dd;}.cls-3{fill:#464548;}.cls-4{fill:#3e2c27;}.cls-5{fill:#281111;}</style></defs><title>goat</title><g id="goat"><path class="cls-1" d="M37.52,52.66a14,14,0,0,1-3.64,4.77L32,59l-1.88-1.57a14,14,0,0,1-3.65-4.77,8,8,0,0,0,2.3.34h6.46A7.93,7.93,0,0,0,37.52,52.66Z"/><path class="cls-2" d="M46,30v6.38a10,10,0,0,1-.51,3.16l-2.65,7.93,0,.06A8,8,0,0,1,35.23,53H28.77a8,8,0,0,1-7.59-5.47l0-.06-2.65-7.93A10,10,0,0,1,18,36.38V30a10,10,0,0,1,3-7.14c.2-.19.4-.38.62-.56h0A9.86,9.86,0,0,1,27,20.05c.33,0,.66-.05,1-.05h8c.34,0,.67,0,1,.05a8.83,8.83,0,0,1,1,.16q.31.06.63.15l.12,0a6.17,6.17,0,0,1,.61.19l.25.1a3.74,3.74,0,0,1,.51.22,8.17,8.17,0,0,1,.93.48,3.87,3.87,0,0,1,.43.27,7.67,7.67,0,0,1,.86.64h0c.22.18.42.37.62.56A10,10,0,0,1,46,30Z"/><path class="cls-3" d="M53,5.93a.94.94,0,0,1-.53.83A17,17,0,0,0,43.12,20,16.4,16.4,0,0,0,43,22v.86c-.2-.19-.4-.38-.62-.56h0a7.67,7.67,0,0,0-.86-.64,3.87,3.87,0,0,0-.43-.27,8.17,8.17,0,0,0-.93-.48,3.74,3.74,0,0,0-.51-.22l-.25-.1a6.17,6.17,0,0,0-.61-.19l-.12,0q-.31-.09-.63-.15a8.83,8.83,0,0,0-1-.16c-.33,0-.66-.05-1-.05h-.88A17,17,0,0,1,52,5h.07A.93.93,0,0,1,53,5.93Z"/><path class="cls-3" d="M28.88,20H28c-.34,0-.67,0-1,.05a9.86,9.86,0,0,0-5.37,2.25h0c-.22.18-.42.37-.62.56V22a16.4,16.4,0,0,0-.12-2A17,17,0,0,0,11.53,6.76.92.92,0,0,1,11.93,5H12A17,17,0,0,1,28.88,20Z"/><path class="cls-1" d="M32,54a1,1,0,0,1-1-1V48a1,1,0,0,1,2,0v5A1,1,0,0,1,32,54Z"/><path class="cls-1" d="M21,22.07v.79A10,10,0,0,0,18,30v6.33a8,8,0,0,1-10.86-.41Z"/><path class="cls-1" d="M56.86,35.92A8,8,0,0,1,46,36.33V30a10,10,0,0,0-3-7.14v-.79Z"/><path class="cls-4" d="M35,45.49a1.55,1.55,0,0,1-.11.56,1.49,1.49,0,0,1-.66.76L32,48l-2.23-1.19a1.49,1.49,0,0,1-.66-.76,1.55,1.55,0,0,1-.11-.56A1.44,1.44,0,0,1,30.39,44h3.22A1.44,1.44,0,0,1,35,45.49Z"/><circle class="cls-5" cx="38.5" cy="35.5" r="1.5"/><circle class="cls-5" cx="25.5" cy="35.5" r="1.5"/><path class="cls-5" d="M32,60a1,1,0,0,1-.64-.23L29.48,58.2a14.81,14.81,0,0,1-3.91-5.11A1,1,0,0,1,25.71,52a1,1,0,0,1,1.05-.31,6.85,6.85,0,0,0,2,.3h6.46a6.83,6.83,0,0,0,2-.3,1,1,0,0,1,1.05.31,1,1,0,0,1,.14,1.08,14.93,14.93,0,0,1-3.9,5.11l-1.88,1.57A1,1,0,0,1,32,60Zm-3.63-6a12.19,12.19,0,0,0,2.39,2.67l1.24,1,1.24-1A12.17,12.17,0,0,0,35.62,54H28.37Z"/><path class="cls-5" d="M35.23,54H28.77a9.12,9.12,0,0,1-2.59-.38,9,9,0,0,1-5.95-5.77l-2.67-8A11.07,11.07,0,0,1,17,36.38V34a1,1,0,0,1,2,0v2.33a8.88,8.88,0,0,0,.46,2.89l2.65,7.93a7,7,0,0,0,4.65,4.55,6.85,6.85,0,0,0,2,.3h6.46a6.83,6.83,0,0,0,2-.3,6.52,6.52,0,0,0,1.5-.64,1,1,0,1,1,1,1.74,9.41,9.41,0,0,1-1.92.82A9.05,9.05,0,0,1,35.23,54Z"/><path class="cls-5" d="M43.63,46.1a1.19,1.19,0,0,1-.32-.05,1,1,0,0,1-.63-1.27l1.86-5.56A8.8,8.8,0,0,0,45,36.38V30a9,9,0,0,0-2.7-6.43l-.48-.44-.1-.07a7.39,7.39,0,0,0-.74-.55,4.34,4.34,0,0,0-.37-.24,7.82,7.82,0,0,0-.86-.44,4.63,4.63,0,0,0-.44-.2l-.12-.05-.09,0c-.21-.08-.37-.13-.55-.18l-.15-.05-.56-.13a7.46,7.46,0,0,0-.93-.14A9.08,9.08,0,0,0,36,21H28a9.08,9.08,0,0,0-.91.05,8.77,8.77,0,0,0-4.82,2l-.09.06-.49.45A9,9,0,0,0,19,30a1,1,0,0,1-2,0,10.92,10.92,0,0,1,3.3-7.85c.23-.22.45-.43.69-.62a.27.27,0,0,1,.08-.07,10.92,10.92,0,0,1,5.83-2.41c.37,0,.73-.05,1.1-.05h8c.37,0,.73,0,1.09.05a10.49,10.49,0,0,1,1.14.18,6.62,6.62,0,0,1,.71.17l.16.05a4.48,4.48,0,0,1,.62.2l.3.11a5.28,5.28,0,0,1,.6.27,9.07,9.07,0,0,1,1,.5,3.74,3.74,0,0,1,.5.32,8.08,8.08,0,0,1,.85.62l.07.06c.24.19.46.4.68.61A10.93,10.93,0,0,1,47,30v6.38a11.07,11.07,0,0,1-.56,3.48l-1.86,5.56A1,1,0,0,1,43.63,46.1Z"/><path class="cls-5" d="M42,50.27a1,1,0,0,1-.54-.16,1,1,0,0,1-.3-1.38c.08-.13.16-.25.23-.38a1,1,0,0,1,1.74,1c-.09.16-.19.32-.29.47A1,1,0,0,1,42,50.27Z"/><path class="cls-5" d="M32,49a1,1,0,0,1-.47-.12L29.3,47.69a2.51,2.51,0,0,1-1.13-1.28,2.67,2.67,0,0,1-.17-.92A2.44,2.44,0,0,1,30.39,43h3.22A2.44,2.44,0,0,1,36,45.49a2.47,2.47,0,0,1-.18.92,2.43,2.43,0,0,1-1.1,1.27l-2.25,1.2A1,1,0,0,1,32,49Zm-1.61-4a.45.45,0,0,0-.39.49.51.51,0,0,0,0,.2.53.53,0,0,0,.22.25l1.74.93,1.76-.94A.48.48,0,0,0,34,45.7a.49.49,0,0,0-.34-.7Z"/><path class="cls-5" d="M43,23.86a1,1,0,0,1-.69-.28l-.49-.45-.1-.07a7.39,7.39,0,0,0-.74-.55,4.34,4.34,0,0,0-.37-.24,7.82,7.82,0,0,0-.86-.44,4.63,4.63,0,0,0-.44-.2l-.12-.05-.09,0c-.21-.08-.37-.13-.55-.18l-.15-.05-.56-.13a7.46,7.46,0,0,0-.93-.14A9.08,9.08,0,0,0,36,21h-.88a1,1,0,0,1-.75-.33,1,1,0,0,1-.24-.79A18,18,0,0,1,52,4a2,2,0,0,1,2,1.93,1.93,1.93,0,0,1-1.08,1.72,15.94,15.94,0,0,0-8.81,12.47A16.51,16.51,0,0,0,44,22v.86a1,1,0,0,1-.61.92A1,1,0,0,1,43,23.86Zm-3-4.1a5.28,5.28,0,0,1,.6.27,7.51,7.51,0,0,1,1,.5,4,4,0,0,1,.45.28c0-.31.05-.63.09-.93A17.88,17.88,0,0,1,51.75,6,16,16,0,0,0,36.28,19l.81.05a10.49,10.49,0,0,1,1.14.18,6.62,6.62,0,0,1,.71.17l.16.05a4.48,4.48,0,0,1,.62.2Z"/><path class="cls-5" d="M21,23.86a1,1,0,0,1-.39-.08,1,1,0,0,1-.61-.92V22a16.51,16.51,0,0,0-.11-1.88,15.92,15.92,0,0,0-8.8-12.46A1.93,1.93,0,0,1,11.93,4a18.11,18.11,0,0,1,8.76,2.23,1,1,0,0,1-1,1.76,16.07,16.07,0,0,0-7.48-2,17.91,17.91,0,0,1,9.62,13.88c0,.31.07.61.09.93a10.85,10.85,0,0,1,4.94-1.76l.81-.05a16.08,16.08,0,0,0-5-8.86,1,1,0,1,1,1.34-1.48,18,18,0,0,1,5.78,11.22,1,1,0,0,1-.24.78,1,1,0,0,1-.75.34H28a9.08,9.08,0,0,0-.91.05,8.77,8.77,0,0,0-4.82,2l-.09.06-.49.45A1,1,0,0,1,21,23.86Z"/><path class="cls-5" d="M32,54a1,1,0,0,1-1-1V48a1,1,0,0,1,2,0v5A1,1,0,0,1,32,54Z"/><path class="cls-5" d="M12.8,39.25a9,9,0,0,1-6.37-2.62,1.05,1.05,0,0,1-.29-.71,1,1,0,0,1,.29-.71L20.29,21.36a1,1,0,0,1,1.09-.21,1,1,0,0,1,.62.92v.79a1,1,0,0,1-.3.71A9,9,0,0,0,19,30a1,1,0,0,1-2,0,10.74,10.74,0,0,1,.39-2.9L8.61,35.87a7,7,0,0,0,8.39,0V34a1,1,0,0,1,2,0v2.33a1,1,0,0,1-.35.76A9,9,0,0,1,12.8,39.25Z"/><path class="cls-5" d="M51.2,39.25a9,9,0,0,1-5.85-2.16,1,1,0,0,1-.35-.76V30a9,9,0,0,0-2.7-6.43,1,1,0,0,1-.3-.71v-.79a1,1,0,0,1,.62-.92,1,1,0,0,1,1.09.21l7.41,7.41a1,1,0,0,1-1.42,1.42L46.62,27.1A11.2,11.2,0,0,1,47,30v5.85a7,7,0,0,0,8.39,0L51.82,32.3a1,1,0,1,1,1.42-1.42l4.33,4.33a1,1,0,0,1,0,1.42A9,9,0,0,1,51.2,39.25Z"/></g></svg>