<?xml version="1.0" encoding="utf-8"?>
<!-- Generator: Adobe Illustrator 24.3.0, SVG Export Plug-In . SVG Version: 6.00 Build 0)  -->
<svg version="1.1" id="Layer_1" xmlns="http://www.w3.org/2000/svg" xmlns:xlink="http://www.w3.org/1999/xlink" x="0px" y="0px"
	 viewBox="0 0 400 400" enable-background="new 0 0 400 400" xml:space="preserve">
<g>
	<g>
		<g>
			<polygon fill="#FFDA88" points="200.488,129.273 223.28,175.456 274.245,182.862 237.368,218.812 246.074,269.57 
				200.488,245.604 154.901,269.57 163.607,218.812 126.728,182.862 177.695,175.456 			"/>
		</g>
		<g>
			<polygon fill="#FFDA88" points="104.806,272.566 112.63,288.417 130.124,290.961 117.464,303.3 120.454,320.723 104.806,312.498 
				89.158,320.723 92.148,303.3 79.488,290.961 96.982,288.417 			"/>
		</g>
		<g>
			<polygon fill="#FFDA88" points="295.195,245.492 303.018,261.343 320.512,263.887 307.851,276.226 310.84,293.649 
				295.195,285.423 279.545,293.649 282.534,276.226 269.876,263.887 287.37,261.343 			"/>
		</g>
		<g>
			<polygon fill="#FFDA88" points="126.728,100.319 134.552,116.17 152.046,118.714 139.386,131.053 142.376,148.476 
				126.728,140.251 111.08,148.476 114.07,131.053 101.41,118.714 118.904,116.17 			"/>
		</g>
		<g>
			<polygon fill="#FFDA88" points="274.245,80.305 282.071,96.156 299.565,98.7 286.906,111.039 289.896,128.462 274.245,120.237 
				258.6,128.462 261.59,111.039 248.928,98.7 266.423,96.156 			"/>
		</g>
		<g>
			<path fill="#FFC67B" d="M115.551,245.492c0,3.905-3.164,7.071-7.069,7.071c-3.905,0-7.072-3.165-7.072-7.071
				c0-3.905,3.167-7.071,7.072-7.071C112.387,238.421,115.551,241.586,115.551,245.492z"/>
		</g>
		<g>
			<path fill="#FFC67B" d="M249.983,312.498c0,3.905-3.164,7.071-7.069,7.071c-3.905,0-7.072-3.165-7.072-7.071
				s3.167-7.071,7.072-7.071C246.819,305.427,249.983,308.592,249.983,312.498z"/>
		</g>
		<g>
			<path fill="#FFC67B" d="M310.616,148.476c0,3.905-3.164,7.071-7.069,7.071c-3.905,0-7.072-3.165-7.072-7.071
				c0-3.905,3.167-7.071,7.072-7.071C307.452,141.406,310.616,144.571,310.616,148.476z"/>
		</g>
		<g>
			<path fill="#FFC67B" d="M166.188,296.644c0,3.906-3.164,7.071-7.069,7.071c-3.905,0-7.072-3.165-7.072-7.071
				c0-3.905,3.167-7.071,7.072-7.071C163.024,289.574,166.188,292.739,166.188,296.644z"/>
		</g>
		<g>
			<circle fill="#FFC67B" cx="270.659" cy="231.35" r="7.071"/>
		</g>
		<g>
			<path fill="#FFC67B" d="M226.828,110.256c0,3.906-3.164,7.071-7.069,7.071c-3.906,0-7.072-3.165-7.072-7.071
				c0-3.905,3.167-7.071,7.072-7.071C223.664,103.186,226.828,106.351,226.828,110.256z"/>
		</g>
		<g>
			<path fill="#FFC67B" d="M93.629,86.347c0,3.905-3.164,7.071-7.069,7.071c-3.905,0-7.072-3.165-7.072-7.071
				c0-3.905,3.166-7.071,7.072-7.071C90.465,79.277,93.629,82.442,93.629,86.347z"/>
		</g>
		<g>
			<path fill="#FFD39F" d="M241.579,312.498c0-2.882,1.728-5.352,4.204-6.453c-0.88-0.39-1.846-0.617-2.869-0.617
				c-3.905,0-7.072,3.165-7.072,7.071s3.167,7.071,7.072,7.071c1.022,0,1.988-0.227,2.869-0.617
				C243.307,317.849,241.579,315.379,241.579,312.498z"/>
		</g>
		<g>
			<path fill="#FFD39F" d="M157.783,296.644c0-2.882,1.728-5.351,4.204-6.453c-0.88-0.39-1.846-0.617-2.868-0.617
				c-3.905,0-7.072,3.165-7.072,7.071c0,3.906,3.167,7.071,7.072,7.071c1.022,0,1.988-0.227,2.868-0.617
				C159.511,301.996,157.783,299.526,157.783,296.644z"/>
		</g>
		<g>
			<path fill="#FFD39F" d="M107.147,245.492c0-2.882,1.728-5.352,4.204-6.453c-0.881-0.39-1.847-0.617-2.869-0.617
				c-3.905,0-7.072,3.165-7.072,7.071c0,3.905,3.167,7.071,7.072,7.071c1.022,0,1.988-0.227,2.869-0.617
				C108.875,250.843,107.147,248.373,107.147,245.492z"/>
		</g>
		<g>
			<path fill="#FFD39F" d="M85.225,86.347c0-2.882,1.728-5.351,4.204-6.453c-0.88-0.39-1.846-0.617-2.869-0.617
				c-3.905,0-7.072,3.165-7.072,7.071c0,3.905,3.166,7.071,7.072,7.071c1.022,0,1.988-0.228,2.869-0.617
				C86.953,91.699,85.225,89.229,85.225,86.347z"/>
		</g>
		<g>
			<path fill="#FFD39F" d="M218.423,110.256c0-2.882,1.728-5.351,4.203-6.453c-0.88-0.39-1.846-0.617-2.868-0.617
				c-3.906,0-7.072,3.165-7.072,7.071c0,3.906,3.167,7.071,7.072,7.071c1.022,0,1.988-0.228,2.868-0.617
				C220.151,115.608,218.423,113.138,218.423,110.256z"/>
		</g>
		<g>
			<path fill="#FFD39F" d="M302.209,148.476c0-2.882,1.731-5.351,4.206-6.453c-0.88-0.39-1.849-0.617-2.871-0.617
				c-3.905,0-7.072,3.165-7.072,7.071c0,3.905,3.167,7.071,7.072,7.071c1.022,0,1.991-0.227,2.871-0.617
				C303.94,153.827,302.209,151.358,302.209,148.476z"/>
		</g>
		<g>
			<path fill="#FFD39F" d="M269.324,231.35c0-2.882,1.731-5.352,4.207-6.453c-0.88-0.39-1.849-0.617-2.871-0.617
				c-3.905,0-7.072,3.165-7.072,7.071c0,3.905,3.167,7.071,7.072,7.071c1.022,0,1.991-0.228,2.871-0.617
				C271.055,236.702,269.324,234.232,269.324,231.35z"/>
		</g>
		<g>
			<polygon fill="#FFE2A9" points="274.245,120.237 274.245,80.305 266.423,96.156 248.928,98.7 261.59,111.039 258.6,128.462 			
				"/>
		</g>
		<g>
			<polygon fill="#FFE2A9" points="295.193,285.423 295.193,245.492 287.37,261.343 269.876,263.887 282.537,276.226 
				279.548,293.649 			"/>
		</g>
		<g>
			<polygon fill="#FFE2A9" points="104.804,312.498 104.804,272.566 96.982,288.417 79.488,290.961 92.149,303.3 89.16,320.723 			
				"/>
		</g>
		<g>
			<polygon fill="#FFE2A9" points="126.727,140.251 126.727,100.319 118.904,116.17 101.41,118.714 114.071,131.053 
				111.082,148.476 			"/>
		</g>
		<g>
			<polygon fill="#FFE2A9" points="200.488,245.604 200.488,129.273 177.695,175.456 126.728,182.862 163.607,218.812 
				154.901,269.57 			"/>
		</g>
	</g>
	<g>
		<g>
			<path fill="#161616" d="M246.073,274.108c-0.722,0-1.448-0.173-2.112-0.521l-43.474-22.856l-43.474,22.856
				c-1.532,0.801-3.381,0.669-4.78-0.346c-1.397-1.015-2.096-2.736-1.805-4.437l8.303-48.409l-35.17-34.284
				c-1.238-1.205-1.682-3.009-1.149-4.651c0.535-1.643,1.954-2.84,3.663-3.089l48.607-7.063l2.45-4.964
				c1.109-2.247,3.834-3.167,6.078-2.061c2.247,1.109,3.17,3.832,2.061,6.078l-3.507,7.103c-0.662,1.338-1.939,2.267-3.416,2.481
				l-41.87,6.084l30.296,29.532c1.069,1.043,1.558,2.545,1.306,4.016l-7.152,41.697l37.448-19.688c1.323-0.694,2.901-0.694,4.224,0
				l37.448,19.688l-7.152-41.697c-0.253-1.471,0.236-2.973,1.306-4.016l30.296-29.532l-41.87-6.084
				c-1.477-0.214-2.755-1.143-3.416-2.481l-18.723-37.939l-5.353,10.847c-1.111,2.247-3.829,3.17-6.078,2.061
				c-2.247-1.109-3.17-3.83-2.061-6.078l9.422-19.091c0.765-1.548,2.343-2.529,4.069-2.529l0,0c1.727,0,3.304,0.981,4.069,2.529
				l21.736,44.044l48.607,7.063c1.709,0.248,3.128,1.446,3.663,3.089c0.533,1.642,0.089,3.446-1.149,4.651l-35.17,34.284
				l8.303,48.409c0.291,1.702-0.408,3.422-1.805,4.437C247.951,273.815,247.014,274.108,246.073,274.108z"/>
		</g>
		<g>
			<path fill="#161616" d="M120.454,325.261c-0.722,0-1.448-0.173-2.111-0.521l-13.537-7.115l-13.537,7.115
				c-1.527,0.801-3.381,0.669-4.778-0.346s-2.096-2.736-1.805-4.439l2.586-15.072L76.321,294.21
				c-1.238-1.205-1.682-3.009-1.149-4.651c0.535-1.642,1.954-2.84,3.663-3.089l15.134-2.201l6.768-13.713
				c0.765-1.548,2.343-2.529,4.069-2.529c1.727,0,3.304,0.981,4.069,2.529l6.768,13.713l15.134,2.201
				c1.709,0.248,3.128,1.446,3.663,3.089c0.533,1.642,0.089,3.446-1.149,4.651l-10.951,10.673l2.586,15.072
				c0.291,1.703-0.408,3.424-1.805,4.439C122.331,324.968,121.395,325.261,120.454,325.261z M104.806,307.96
				c0.725,0,1.45,0.174,2.111,0.521l7.511,3.947l-1.436-8.36c-0.253-1.473,0.236-2.975,1.306-4.018l6.076-5.921l-8.397-1.222
				c-1.477-0.214-2.755-1.143-3.416-2.481l-3.755-7.608l-3.755,7.608c-0.662,1.338-1.939,2.267-3.416,2.481l-8.397,1.222
				l6.077,5.921c1.069,1.043,1.558,2.545,1.306,4.018l-1.436,8.36l7.511-3.947C103.355,308.134,104.081,307.96,104.806,307.96z"/>
		</g>
		<g>
			<path fill="#161616" d="M310.842,298.187c-0.722,0-1.448-0.173-2.111-0.521l-13.537-7.115l-13.537,7.115
				c-1.527,0.802-3.381,0.669-4.778-0.346c-1.397-1.015-2.096-2.736-1.805-4.439l2.586-15.072l-10.951-10.673
				c-1.238-1.205-1.682-3.009-1.149-4.651c0.535-1.643,1.954-2.84,3.663-3.089l15.134-2.201l6.768-13.713
				c0.765-1.548,2.343-2.529,4.069-2.529c1.727,0,3.304,0.981,4.069,2.529l6.768,13.713l15.134,2.201
				c1.709,0.248,3.128,1.446,3.663,3.089c0.533,1.642,0.089,3.446-1.149,4.651l-10.951,10.673l2.586,15.072
				c0.291,1.703-0.408,3.424-1.805,4.439C312.719,297.894,311.783,298.187,310.842,298.187z M295.194,280.886
				c0.725,0,1.451,0.174,2.111,0.521l7.511,3.947l-1.436-8.36c-0.253-1.473,0.236-2.975,1.306-4.018l6.077-5.922l-8.397-1.221
				c-1.477-0.214-2.755-1.143-3.416-2.481l-3.755-7.608l-3.755,7.608c-0.662,1.338-1.939,2.267-3.416,2.481l-8.397,1.221
				l6.077,5.922c1.069,1.043,1.558,2.545,1.306,4.018l-1.436,8.36l7.511-3.947C293.744,281.06,294.469,280.886,295.194,280.886z"/>
		</g>
		<g>
			<path fill="#161616" d="M142.376,153.014c-0.722,0-1.447-0.173-2.111-0.521l-13.537-7.115l-13.537,7.115
				c-1.526,0.802-3.382,0.669-4.778-0.346c-1.397-1.015-2.096-2.736-1.805-4.439l2.586-15.072l-10.951-10.673
				c-1.238-1.205-1.682-3.009-1.149-4.651c0.535-1.642,1.954-2.84,3.663-3.088l15.134-2.201l6.768-13.713
				c0.765-1.548,2.343-2.529,4.069-2.529c1.727,0,3.304,0.981,4.069,2.529l6.768,13.713l15.134,2.201
				c1.709,0.248,3.128,1.446,3.663,3.088c0.533,1.643,0.089,3.446-1.149,4.651l-10.951,10.673l2.586,15.072
				c0.291,1.703-0.408,3.424-1.805,4.439C144.253,152.721,143.317,153.014,142.376,153.014z M126.728,135.713
				c0.725,0,1.45,0.174,2.111,0.521l7.511,3.947l-1.436-8.36c-0.253-1.473,0.236-2.975,1.306-4.018l6.076-5.922l-8.397-1.221
				c-1.477-0.214-2.755-1.143-3.416-2.481l-3.755-7.608l-3.755,7.608c-0.662,1.338-1.939,2.267-3.416,2.481l-8.397,1.221
				l6.077,5.922c1.069,1.043,1.558,2.545,1.306,4.018l-1.436,8.36l7.511-3.947C125.278,135.887,126.003,135.713,126.728,135.713z"/>
		</g>
		<g>
			<path fill="#161616" d="M289.894,133c-0.722,0-1.447-0.173-2.111-0.521l-13.537-7.115l-13.537,7.115
				c-1.527,0.803-3.381,0.671-4.778-0.346c-1.397-1.015-2.096-2.736-1.805-4.439l2.586-15.072l-10.951-10.673
				c-1.238-1.205-1.682-3.009-1.149-4.651c0.535-1.642,1.954-2.84,3.663-3.089l15.134-2.201l6.768-13.713
				c0.765-1.548,2.343-2.529,4.069-2.529c1.727,0,3.304,0.981,4.069,2.529l6.768,13.713l15.134,2.201
				c1.709,0.248,3.128,1.446,3.663,3.089c0.533,1.642,0.089,3.446-1.149,4.651l-10.951,10.673l2.586,15.072
				c0.291,1.703-0.408,3.424-1.805,4.439C291.772,132.707,290.835,133,289.894,133z M274.247,115.699
				c0.725,0,1.45,0.174,2.111,0.521l7.511,3.947l-1.436-8.36c-0.253-1.473,0.236-2.975,1.306-4.018l6.076-5.921l-8.397-1.222
				c-1.477-0.214-2.755-1.143-3.416-2.481l-3.755-7.608l-3.755,7.608c-0.662,1.338-1.939,2.267-3.416,2.481l-8.397,1.222
				l6.077,5.921c1.069,1.043,1.558,2.545,1.306,4.018l-1.436,8.36l7.511-3.947C272.796,115.874,273.521,115.699,274.247,115.699z"/>
		</g>
		<g>
			<path fill="#161616" d="M108.482,257.1c-6.402,0-11.61-5.208-11.61-11.608c0-6.4,5.208-11.608,11.61-11.608
				c6.4,0,11.607,5.208,11.607,11.608C120.089,251.892,114.882,257.1,108.482,257.1z M108.482,242.958
				c-1.397,0-2.535,1.136-2.535,2.533c0,1.397,1.137,2.533,2.535,2.533c1.396,0,2.532-1.136,2.532-2.533
				C111.014,244.094,109.878,242.958,108.482,242.958z"/>
		</g>
		<g>
			<path fill="#161616" d="M242.914,324.106c-6.401,0-11.61-5.208-11.61-11.608s5.208-11.608,11.61-11.608
				c6.4,0,11.607,5.208,11.607,11.608S249.314,324.106,242.914,324.106z M242.914,309.965c-1.397,0-2.535,1.136-2.535,2.533
				c0,1.397,1.137,2.533,2.535,2.533c1.396,0,2.532-1.136,2.532-2.533C245.446,311.1,244.31,309.965,242.914,309.965z"/>
		</g>
		<g>
			<path fill="#161616" d="M303.547,160.084c-6.401,0-11.61-5.208-11.61-11.608c0-6.4,5.208-11.608,11.61-11.608
				c6.4,0,11.607,5.208,11.607,11.608C315.153,154.876,309.947,160.084,303.547,160.084z M303.547,145.943
				c-1.397,0-2.535,1.136-2.535,2.533c0,1.397,1.137,2.533,2.535,2.533c1.396,0,2.532-1.136,2.532-2.533
				C306.078,147.079,304.943,145.943,303.547,145.943z"/>
		</g>
		<g>
			<path fill="#161616" d="M159.118,308.253c-6.401,0-11.61-5.208-11.61-11.608c0-6.4,5.208-11.608,11.61-11.608
				c6.4,0,11.607,5.208,11.607,11.608C170.725,303.045,165.518,308.253,159.118,308.253z M159.118,294.111
				c-1.397,0-2.535,1.136-2.535,2.533c0,1.397,1.137,2.533,2.535,2.533c1.396,0,2.532-1.136,2.532-2.533
				C161.65,295.247,160.514,294.111,159.118,294.111z"/>
		</g>
		<g>
			<path fill="#161616" d="M270.66,242.958c-6.401,0-11.61-5.208-11.61-11.608c0-6.4,5.208-11.608,11.61-11.608
				c6.4,0,11.607,5.208,11.607,11.608C282.267,237.75,277.06,242.958,270.66,242.958z M270.66,228.817
				c-1.397,0-2.535,1.136-2.535,2.533c0,1.397,1.137,2.533,2.535,2.533c1.396,0,2.532-1.136,2.532-2.533
				C273.192,229.953,272.056,228.817,270.66,228.817z"/>
		</g>
		<g>
			<path fill="#161616" d="M219.758,121.864c-6.402,0-11.61-5.208-11.61-11.608c0-6.4,5.208-11.608,11.61-11.608
				c6.4,0,11.607,5.208,11.607,11.608C231.365,116.656,226.158,121.864,219.758,121.864z M219.758,107.723
				c-1.397,0-2.535,1.136-2.535,2.533c0,1.397,1.137,2.533,2.535,2.533c1.396,0,2.532-1.136,2.532-2.533
				C222.29,108.859,221.154,107.723,219.758,107.723z"/>
		</g>
		<g>
			<path fill="#161616" d="M86.56,97.955c-6.401,0-11.609-5.208-11.609-11.608c0-6.4,5.208-11.608,11.609-11.608
				c6.4,0,11.607,5.208,11.607,11.608C98.167,92.747,92.96,97.955,86.56,97.955z M86.56,83.814c-1.397,0-2.535,1.136-2.535,2.533
				s1.137,2.533,2.535,2.533c1.396,0,2.532-1.136,2.532-2.533S87.956,83.814,86.56,83.814z"/>
		</g>
	</g>
</g>
</svg>
