<?xml version="1.0" encoding="utf-8"?>
<!-- Generator: Adobe Illustrator 24.3.0, SVG Export Plug-In . SVG Version: 6.00 Build 0)  -->
<svg version="1.1" id="Layer_1" xmlns="http://www.w3.org/2000/svg" xmlns:xlink="http://www.w3.org/1999/xlink" x="0px" y="0px"
	 viewBox="0 0 400 400" enable-background="new 0 0 400 400" xml:space="preserve">
<g>
	<g>
		<g>
			<path fill="#FFDA88" d="M196.242,84.148c-15.376-4.662-30.956-6.085-46.028-4.715c37.216,30.055,54.55,80.71,39.818,129.305
				c-14.732,48.593-57.277,81.096-104.917,85.425c11.775,9.509,25.52,16.977,40.894,21.637
				c63.974,19.395,131.552-16.741,150.945-80.71C296.347,171.121,260.213,103.542,196.242,84.148z"/>
		</g>
		<g>
			<path fill="#FFE2A9" d="M114.263,301.22c47.641-4.329,90.185-36.831,104.917-85.425c14.732-48.595-2.603-99.25-39.818-129.305
				c8.035-0.731,16.215-0.639,24.427,0.285c-2.505-0.944-5.04-1.839-7.639-2.627c-15.376-4.662-30.956-6.085-46.028-4.715
				c37.215,30.055,54.55,80.71,39.818,129.305c-14.732,48.593-57.277,81.096-104.917,85.425
				c11.775,9.509,25.521,16.977,40.894,21.637c7.187,2.179,14.419,3.62,21.624,4.437
				C135.223,315.594,124.053,309.127,114.263,301.22z"/>
		</g>
		<g>
			<path fill="#FFC67B" d="M118.361,180.391c0,3.905-3.164,7.071-7.069,7.071c-3.905,0-7.072-3.165-7.072-7.071
				c0-3.905,3.167-7.071,7.072-7.071C115.197,173.32,118.361,176.486,118.361,180.391z"/>
		</g>
		<g>
			<path fill="#FFC67B" d="M148.605,193.5c0,3.905-3.164,7.071-7.069,7.071c-3.905,0-7.072-3.165-7.072-7.071
				c0-3.905,3.167-7.071,7.072-7.071C145.441,186.429,148.605,189.594,148.605,193.5z"/>
		</g>
		<g>
			<path fill="#FFC67B" d="M285.491,294.835c0,3.905-3.164,7.071-7.069,7.071c-3.905,0-7.072-3.165-7.072-7.071
				s3.167-7.071,7.072-7.071C282.328,287.764,285.491,290.93,285.491,294.835z"/>
		</g>
		<g>
			<path fill="#FFC67B" d="M311.96,240.891c0,3.905-3.164,7.071-7.069,7.071c-3.905,0-7.072-3.165-7.072-7.071
				c0-3.905,3.167-7.071,7.072-7.071C308.796,233.82,311.96,236.985,311.96,240.891z"/>
		</g>
		<g>
			<path fill="#FFDA88" d="M149.163,155.497h-3.341v-3.341c0-2.366-1.917-4.285-4.283-4.285c-2.369,0-4.286,1.919-4.286,4.285v3.341
				h-3.341c-2.366,0-4.286,1.917-4.286,4.283c0,2.369,1.92,4.286,4.286,4.286h3.341v3.343c0,2.366,1.917,4.285,4.286,4.285
				c2.366,0,4.283-1.919,4.283-4.285v-3.343h3.341c2.366,0,4.286-1.917,4.286-4.286
				C153.449,157.414,151.529,155.497,149.163,155.497z"/>
		</g>
		<g>
			<path fill="#FFDA88" d="M315.18,273.978h-3.341v-3.341c0-2.366-1.917-4.285-4.283-4.285c-2.369,0-4.286,1.919-4.286,4.285v3.341
				h-3.341c-2.366,0-4.286,1.917-4.286,4.283c0,2.369,1.92,4.286,4.286,4.286h3.341v3.343c0,2.366,1.917,4.285,4.286,4.285
				c2.366,0,4.283-1.919,4.283-4.285v-3.343h3.341c2.366,0,4.286-1.917,4.286-4.286C319.466,275.895,317.546,273.978,315.18,273.978
				z"/>
		</g>
		<g>
			<path fill="#FFD39F" d="M144.375,286.908c8.632,0,15.627-6.998,15.627-15.63c0-3.487-1.182-6.675-3.111-9.274
				c-7.657,7.147-16.224,13.189-25.391,18.116C134.319,284.215,139.028,286.908,144.375,286.908z"/>
		</g>
		<g>
			<path fill="#FFC67B" d="M250.568,171.833c0,8.632-6.995,15.63-15.627,15.63c-8.632,0-15.627-6.998-15.627-15.63
				c0-8.632,6.995-15.629,15.627-15.629C243.573,156.204,250.568,163.201,250.568,171.833z"/>
		</g>
		<g>
			<path fill="#FFD39F" d="M219.314,171.833c0,4.543,1.97,8.598,5.063,11.454c0.157-7.209-0.334-14.351-1.439-21.351
				C220.708,164.638,219.314,168.056,219.314,171.833z"/>
		</g>
		<g>
			<path fill="#FFC67B" d="M260.308,250.723c-8.632,0-15.627,6.997-15.627,15.629c0,5.657,3.034,10.568,7.536,13.311
				c6.768-7.725,12.614-16.385,17.311-25.873C266.937,251.884,263.77,250.723,260.308,250.723z"/>
		</g>
		<g>
			<path fill="#FFD39F" d="M109.956,180.391c0-2.882,1.728-5.351,4.204-6.453c-0.88-0.39-1.846-0.617-2.869-0.617
				c-3.905,0-7.072,3.165-7.072,7.071c0,3.905,3.167,7.071,7.072,7.071c1.022,0,1.988-0.227,2.869-0.617
				C111.684,185.742,109.956,183.272,109.956,180.391z"/>
		</g>
		<g>
			<path fill="#FFD39F" d="M140.2,193.5c0-2.882,1.728-5.352,4.204-6.453c-0.88-0.39-1.846-0.617-2.868-0.617
				c-3.905,0-7.072,3.165-7.072,7.071c0,3.905,3.167,7.071,7.072,7.071c1.022,0,1.988-0.227,2.868-0.617
				C141.928,198.851,140.2,196.381,140.2,193.5z"/>
		</g>
		<g>
			<path fill="#FFD39F" d="M277.087,294.835c0-2.882,1.728-5.351,4.204-6.453c-0.88-0.39-1.846-0.617-2.869-0.617
				c-3.905,0-7.072,3.165-7.072,7.071s3.167,7.071,7.072,7.071c1.022,0,1.988-0.227,2.869-0.617
				C278.815,300.186,277.087,297.717,277.087,294.835z"/>
		</g>
		<g>
			<path fill="#FFD39F" d="M303.555,240.891c0-2.882,1.728-5.351,4.204-6.453c-0.88-0.39-1.846-0.617-2.869-0.617
				c-3.905,0-7.072,3.165-7.072,7.071c0,3.905,3.167,7.071,7.072,7.071c1.022,0,1.988-0.228,2.869-0.617
				C305.284,246.242,303.555,243.772,303.555,240.891z"/>
		</g>
	</g>
	<g>
		<g>
			<path fill="#161616" d="M161.245,325.605c-12.242,0-24.548-1.809-36.598-5.462c-15.538-4.712-29.816-12.264-42.427-22.45
				c-1.439-1.161-2.026-3.078-1.492-4.846c0.538-1.77,2.091-3.035,3.932-3.202c47.513-4.319,87.151-36.592,100.985-82.223
				c13.834-45.632-1.211-94.484-38.326-124.459c-1.439-1.161-2.027-3.078-1.492-4.846c0.538-1.768,2.091-3.035,3.932-3.202
				c16.144-1.468,32.208,0.177,47.756,4.891c16.079,4.876,30.755,12.745,43.617,23.393c1.932,1.597,2.201,4.458,0.603,6.388
				c-1.601,1.93-4.461,2.201-6.387,0.601c-11.932-9.874-25.544-17.175-40.468-21.698c-10.883-3.3-22.043-4.979-33.299-5.019
				c33.694,32.585,46.548,81.069,32.749,126.583c-13.799,45.514-51.41,78.7-97.526,87.088c9.382,6.217,19.594,11.017,30.477,14.316
				c29.774,9.029,61.291,5.92,88.732-8.753c27.441-14.671,47.525-39.152,56.553-68.931c11.409-37.628,3.164-78.165-22.058-108.442
				c-1.604-1.925-1.344-4.786,0.582-6.39c1.926-1.607,4.786-1.346,6.39,0.582c27.184,32.629,36.07,76.323,23.772,116.882
				c-9.731,32.099-31.381,58.486-60.958,74.303C201.817,320.589,181.623,325.603,161.245,325.605z"/>
		</g>
		<g>
			<path fill="#161616" d="M111.247,191.999c-6.402,0-11.61-5.208-11.61-11.608c0-6.4,5.208-11.608,11.61-11.608
				c6.398,0,11.607,5.208,11.607,11.608C122.854,186.791,117.646,191.999,111.247,191.999z M111.247,177.858
				c-1.397,0-2.535,1.136-2.535,2.533c0,1.397,1.137,2.533,2.535,2.533c1.397,0,2.532-1.136,2.532-2.533
				C113.779,178.993,112.645,177.858,111.247,177.858z"/>
		</g>
		<g>
			<path fill="#161616" d="M141.491,205.108c-6.402,0-11.61-5.208-11.61-11.608c0-6.4,5.208-11.608,11.61-11.608
				c6.399,0,11.607,5.208,11.607,11.608C153.098,199.9,147.89,205.108,141.491,205.108z M141.491,190.966
				c-1.397,0-2.535,1.136-2.535,2.533c0,1.397,1.137,2.533,2.535,2.533c1.397,0,2.532-1.136,2.532-2.533
				C144.023,192.102,142.888,190.966,141.491,190.966z"/>
		</g>
		<g>
			<path fill="#161616" d="M278.378,306.443c-6.401,0-11.61-5.208-11.61-11.608c0-6.4,5.208-11.608,11.61-11.608
				c6.398,0,11.607,5.208,11.607,11.608C289.984,301.235,284.776,306.443,278.378,306.443z M278.378,292.302
				c-1.397,0-2.535,1.136-2.535,2.533s1.137,2.533,2.535,2.533s2.532-1.136,2.532-2.533S279.775,292.302,278.378,292.302z"/>
		</g>
		<g>
			<path fill="#161616" d="M304.846,252.499c-6.401,0-11.61-5.208-11.61-11.608c0-6.4,5.208-11.608,11.61-11.608
				c6.399,0,11.607,5.208,11.607,11.608C316.453,247.291,311.245,252.499,304.846,252.499z M304.846,238.357
				c-1.397,0-2.535,1.136-2.535,2.533c0,1.397,1.137,2.533,2.535,2.533s2.532-1.136,2.532-2.533
				C307.378,239.493,306.244,238.357,304.846,238.357z"/>
		</g>
		<g>
			<path fill="#161616" d="M149.119,155.497h-3.341v-3.341c0-2.366-1.917-4.285-4.283-4.285c-2.369,0-4.286,1.919-4.286,4.285v3.341
				h-3.341c-2.366,0-4.286,1.917-4.286,4.283c0,2.369,1.92,4.286,4.286,4.286h3.341v3.343c0,2.366,1.917,4.285,4.286,4.285
				c2.366,0,4.283-1.919,4.283-4.285v-3.343h3.341c2.366,0,4.286-1.917,4.286-4.286
				C153.405,157.414,151.485,155.497,149.119,155.497z"/>
		</g>
		<g>
			<path fill="#161616" d="M315.136,273.978h-3.341v-3.341c0-2.366-1.917-4.285-4.284-4.285c-2.369,0-4.286,1.919-4.286,4.285v3.341
				h-3.341c-2.366,0-4.286,1.917-4.286,4.283c0,2.369,1.92,4.286,4.286,4.286h3.341v3.343c0,2.366,1.917,4.285,4.286,4.285
				c2.367,0,4.284-1.919,4.284-4.285v-3.343h3.341c2.366,0,4.286-1.917,4.286-4.286
				C319.422,275.895,317.502,273.978,315.136,273.978z"/>
		</g>
		<g>
			<path fill="#161616" d="M144.33,291.445c-6.629,0-12.841-3.273-16.611-8.754c-0.733-1.062-0.978-2.385-0.674-3.639
				c0.304-1.253,1.126-2.318,2.263-2.929c9.016-4.846,17.24-10.713,24.442-17.436c0.945-0.88,2.23-1.316,3.507-1.201
				c1.288,0.117,2.464,0.777,3.232,1.814c2.62,3.53,4.006,7.673,4.006,11.979C164.495,282.398,155.449,291.445,144.33,291.445z
				 M139.045,281.022c1.601,0.873,3.412,1.348,5.285,1.348c6.115,0,11.09-4.976,11.09-11.093c0-0.612-0.053-1.217-0.154-1.814
				C150.232,273.696,144.809,277.561,139.045,281.022z"/>
		</g>
		<g>
			<path fill="#161616" d="M234.897,192c-11.119,0-20.165-9.047-20.165-20.168c0-0.167,0.012-0.36,0.033-0.542
				c0.219-2.303,2.157-4.105,4.517-4.105c2.505,0,4.537,2.031,4.537,4.538c0,0.092-0.003,0.192-0.009,0.294
				c0.097,6.032,5.034,10.908,11.087,10.908c6.115,0,11.09-4.976,11.09-11.093c0-6.043-4.747-10.898-10.809-11.053
				c-2.505-0.064-4.484-2.146-4.419-4.651c0.062-2.467,2.08-4.422,4.532-4.422c0.041,0,0.08,0,0.118,0.002
				c11.022,0.282,19.654,9.121,19.654,20.125C255.061,182.953,246.016,192,234.897,192z"/>
		</g>
		<g>
			<path fill="#161616" d="M252.169,284.2c-0.809,0-1.625-0.216-2.357-0.663c-6.082-3.704-9.713-10.13-9.713-17.185
				c0-11.119,9.045-20.166,20.165-20.166c4.277,0,8.396,1.365,11.908,3.948c1.775,1.306,2.354,3.696,1.38,5.669
				c-4.792,9.679-10.836,18.713-17.967,26.85C254.698,283.667,253.442,284.2,252.169,284.2z M260.263,255.261
				c-6.115,0-11.09,4.976-11.09,11.091c0,2.564,0.883,4.981,2.458,6.914c4.44-5.481,8.372-11.357,11.737-17.546
				C262.364,255.416,261.321,255.261,260.263,255.261z"/>
		</g>
	</g>
</g>
</svg>
