<svg xmlns="http://www.w3.org/2000/svg" viewBox="0 0 64 64"><defs><style>.cls-1{fill:#87868a;}.cls-2{fill:#646467;}.cls-3{fill:#281111;}.cls-4{fill:#d8d9dd;}.cls-5{fill:#434347;}</style></defs><title>hippopotamus</title><g id="hippopotamus"><path class="cls-1" d="M57,41c0,7.39-5.74,11.62-13,12-.33,0-.66,0-1,0a13.83,13.83,0,0,1-5-.92l-.07,0a16.19,16.19,0,0,0-11.86,0l-.07,0A13.83,13.83,0,0,1,21,53c-.34,0-.67,0-1,0-7.26-.35-13-4.58-13-12,0-5.18,2.81-7.7,7-10.12V24.5A17.49,17.49,0,0,1,43,11.33c.3.26.58.52.86.8a17.64,17.64,0,0,1,2.89,3.81A17.34,17.34,0,0,1,49,24.5v5.85C53.73,32.6,57,35.42,57,41Z"/><path class="cls-2" d="M20.91,10.58A17.34,17.34,0,0,0,16.21,16a4.5,4.5,0,1,1,4.7-5.41Z"/><circle class="cls-3" cx="23.5" cy="20.5" r="1.5"/><circle class="cls-3" cx="40.5" cy="20.5" r="1.5"/><path class="cls-2" d="M52,11.5a4.51,4.51,0,0,1-5.24,4.44,17.64,17.64,0,0,0-2.89-3.81c-.28-.28-.56-.54-.86-.8a4.5,4.5,0,0,1,9,.17Z"/><path class="cls-4" d="M26,52.08V56a1,1,0,0,1-1,1H21a1,1,0,0,1-1-1V53c.33,0,.66,0,1,0A13.83,13.83,0,0,0,26,52.08Z"/><path class="cls-4" d="M44,53v3a1,1,0,0,1-1,1H39a1,1,0,0,1-1-1V52.08A13.83,13.83,0,0,0,43,53C43.34,53,43.67,53,44,53Z"/><circle class="cls-5" cx="18.5" cy="41.5" r="2.5"/><circle class="cls-5" cx="45.5" cy="41.5" r="2.5"/><path class="cls-3" d="M20,54H20C11.48,53.56,6,48.47,6,41c0-5.52,3-8.39,7.5-11A15,15,0,0,1,21,28a1,1,0,0,1,0,2,12.94,12.94,0,0,0-6.5,1.74C10.38,34.12,8,36.4,8,41c0,6.31,4.73,10.62,12.05,11A1,1,0,0,1,20,54Z"/><path class="cls-3" d="M44,54a1,1,0,0,1,0-2,16.5,16.5,0,0,0,2.91-.38,1,1,0,1,1,.44,2,19.62,19.62,0,0,1-3.25.42Z"/><path class="cls-3" d="M54.33,49.51a1,1,0,0,1-.75-1.66A10.06,10.06,0,0,0,56,41c0-5.16-3-7.63-7.43-9.75A12.82,12.82,0,0,0,43,30a1,1,0,0,1,0-2,14.79,14.79,0,0,1,6.43,1.45c4.24,2,8.57,5,8.57,11.55a12.18,12.18,0,0,1-2.92,8.17A1,1,0,0,1,54.33,49.51Z"/><path class="cls-3" d="M50.84,52.23a1,1,0,0,1-.5-1.87l.48-.26a1,1,0,1,1,.9,1.8l-.38.2A1,1,0,0,1,50.84,52.23Z"/><path class="cls-3" d="M38.36,51.15h0l-.06,0a17.19,17.19,0,0,0-12.62,0l.33.94.44.9.56-.21a15.17,15.17,0,0,1,10,0l.64.23a.84.84,0,0,0,.35.07,1,1,0,0,0,.91-.65A1,1,0,0,0,38.36,51.15Z"/><path class="cls-3" d="M18.5,45a1,1,0,0,1,0-2A1.5,1.5,0,1,0,17,41.5a1,1,0,0,1-2,0A3.5,3.5,0,1,1,18.5,45Z"/><path class="cls-3" d="M45.5,45A3.5,3.5,0,1,1,49,41.5a1,1,0,0,1-2,0A1.5,1.5,0,1,0,45.5,43a1,1,0,0,1,0,2Z"/><path class="cls-3" d="M16.21,17h-.06A5.48,5.48,0,0,1,11,12.11a1,1,0,1,1,2-.22,3.49,3.49,0,0,0,2.66,3,18.32,18.32,0,0,1,4.08-4.69A3.47,3.47,0,0,0,16.5,8,3.42,3.42,0,0,0,14,9.1a1,1,0,1,1-1.48-1.36,5.5,5.5,0,0,1,9.4,2.63,1,1,0,0,1-.38,1,16.22,16.22,0,0,0-4.43,5.1A1,1,0,0,1,16.21,17Z"/><path class="cls-3" d="M49,31.35a.94.94,0,0,1-.43-.1A12.82,12.82,0,0,0,43,30a1,1,0,0,1,0-2,15,15,0,0,1,5,.85V24.5a16.43,16.43,0,0,0-4.84-11.66c-.26-.27-.52-.51-.8-.75a14.23,14.23,0,0,0-2-1.51,1,1,0,1,1,1.06-1.7,17.3,17.3,0,0,1,2.28,1.7c.31.27.61.55.91.84A18.54,18.54,0,0,1,50,24.5v5.85a1,1,0,0,1-.47.85A1,1,0,0,1,49,31.35Z"/><path class="cls-3" d="M14,31.88a1,1,0,0,1-1-1V24.5a18.47,18.47,0,0,1,2.34-9A18.55,18.55,0,0,1,31.5,6a18.5,18.5,0,0,1,6.11,1A1,1,0,0,1,37,8.92,16.63,16.63,0,0,0,31.5,8a16.55,16.55,0,0,0-14.42,8.48,16.47,16.47,0,0,0-2.08,8v4.75A15,15,0,0,1,21,28a1,1,0,0,1,0,2,12.94,12.94,0,0,0-6.5,1.74A1,1,0,0,1,14,31.88Z"/><path class="cls-3" d="M47.5,6a5.44,5.44,0,0,0-5.13,3.54A5.16,5.16,0,0,0,42,11.3a1,1,0,0,0,.35.79c.28.24.54.48.8.75a16.53,16.53,0,0,1,2.73,3.59,1,1,0,0,0,.71.5,5.29,5.29,0,0,0,.9.07,4.94,4.94,0,0,0,.87-.07A5.5,5.5,0,0,0,47.5,6Zm-.13,9-.2-.31c-.05-.09-.11-.18-.17-.27l-.18-.27,0,0c-.17-.26-.35-.51-.53-.75a1.47,1.47,0,0,0-.1-.13c-.16-.21-.32-.42-.5-.62l-.07-.08a4.15,4.15,0,0,0-.27-.32c-.24-.27-.49-.54-.75-.8l-.53-.5A3.5,3.5,0,1,1,47.37,15Z"/><path class="cls-3" d="M26,58H20a1,1,0,0,1,0-2h5V53.46a15.47,15.47,0,0,1-4.88.52,1,1,0,0,1-.81-1.72,1.06,1.06,0,0,1,.75-.29,13.56,13.56,0,0,0,5.58-.82,1,1,0,0,1,.93.11,1,1,0,0,1,.43.82V57A1,1,0,0,1,26,58Z"/><path class="cls-3" d="M44.69,52.24A1,1,0,0,0,44,52h-.07a13.56,13.56,0,0,1-5.58-.82h0a1,1,0,0,0-1.35.93V57a1,1,0,0,0,1,1h6a1,1,0,0,0,1-1V53A1,1,0,0,0,44.69,52.24ZM43,56H39V53.46A14.85,14.85,0,0,0,43,54Z"/></g></svg>