<svg xmlns="http://www.w3.org/2000/svg" viewBox="0 0 64 64"><defs><style>.cls-1{fill:#bd7f00;}.cls-2{fill:#efc589;}.cls-3{fill:#281111;}.cls-4{fill:#3e2c27;}</style></defs><title>Lion</title><g id="Lion"><path class="cls-1" d="M57,35.39a13,13,0,0,1-6.64,11.33L32,57,13.64,46.72A13,13,0,0,1,8.66,29L13.19,21l2.44-4.35a18.75,18.75,0,0,1,25.86-7,18.36,18.36,0,0,1,2.16,1.48,18.72,18.72,0,0,1,4.72,5.54L50.81,21,55.34,29A13,13,0,0,1,57,35.39Z"/><path class="cls-2" d="M57,14a7,7,0,0,1-6.19,7L48.37,16.6a18.72,18.72,0,0,0-4.72-5.54A7,7,0,0,1,57,14Z"/><path class="cls-2" d="M20.35,11.06a18.72,18.72,0,0,0-4.72,5.54L13.19,21a7,7,0,1,1,7.16-9.89Z"/><path class="cls-2" d="M44.57,34.14h0L38.74,45A7.66,7.66,0,0,1,32,49h0a7.66,7.66,0,0,1-6.74-4L19.43,34.14h0a4.12,4.12,0,0,1-3.91-5.42l2.61-7.82a4,4,0,0,1,5.16-2.5L32,21.57l8.71-3.17a4,4,0,0,1,5.16,2.5l2.61,7.82A4.12,4.12,0,0,1,44.57,34.14Z"/><circle class="cls-3" cx="25.5" cy="26.5" r="1.5"/><circle class="cls-3" cx="38.5" cy="26.5" r="1.5"/><path class="cls-3" d="M32,42a1,1,0,0,1-1-1V36a1,1,0,0,1,2,0v5A1,1,0,0,1,32,42Z"/><path class="cls-3" d="M29,44a1,1,0,0,1-.55-1.83l3-2a1,1,0,0,1,1.1,1.66l-3,2A.94.94,0,0,1,29,44Z"/><path class="cls-3" d="M35,44a.94.94,0,0,1-.55-.17l-3-2a1,1,0,0,1,1.1-1.66l3,2A1,1,0,0,1,35,44Z"/><path class="cls-4" d="M32,37.38h0l-2.23-1.12A1.4,1.4,0,0,1,29,35h0a1.39,1.39,0,0,1,1.39-1.39h3.22A1.39,1.39,0,0,1,35,35h0a1.4,1.4,0,0,1-.77,1.24Z"/><path class="cls-3" d="M32,58a1,1,0,0,1-.49-.13L13.15,47.59a14,14,0,0,1-5.36-19L8,28.16a1,1,0,1,1,1.74,1l-.22.38a12,12,0,0,0,4.6,16.31L32,55.85l11.84-6.62a1,1,0,0,1,1,1.74l-12.33,6.9A1,1,0,0,1,32,58Z"/><path class="cls-3" d="M51.66,46.88a1,1,0,0,1-.81-.41,1,1,0,0,1,.22-1.4,12,12,0,0,0,3.4-15.54l-7-12.44A17.71,17.71,0,0,0,43,11.84,18.94,18.94,0,0,0,41,10.44,17.76,17.76,0,0,0,16.5,17.09l-4.81,8.58a1,1,0,0,1-1.74-1l4.81-8.58a19.42,19.42,0,0,1,5-5.83A19.73,19.73,0,0,1,42,8.72a18.21,18.21,0,0,1,2.27,1.56,19.42,19.42,0,0,1,5,5.83l7,12.44a14,14,0,0,1-4,18.14A1,1,0,0,1,51.66,46.88Z"/><path class="cls-3" d="M47.81,49.15a1,1,0,0,1-.87-.51,1,1,0,0,1,.38-1.36l.41-.23a1,1,0,1,1,1,1.74L48.3,49A1,1,0,0,1,47.81,49.15Z"/><path class="cls-3" d="M50.81,22a1,1,0,0,1-.87-.51L47.5,17.09A17.71,17.71,0,0,0,43,11.84a1,1,0,0,1-.29-1.2,8,8,0,1,1,8.18,11.3ZM44.92,10.81a19.53,19.53,0,0,1,4.32,5.3l2.1,3.74a6,6,0,1,0-6.42-9Z"/><path class="cls-3" d="M13.19,22h-.11A8,8,0,0,1,9.77,7.21a1,1,0,0,1,1.06,1.7,6,6,0,0,0,1.83,10.94l2.1-3.74a19.53,19.53,0,0,1,4.32-5.3A6,6,0,0,0,14,8a1,1,0,0,1,0-2,8,8,0,0,1,7.26,4.64,1,1,0,0,1-.29,1.2,17.71,17.71,0,0,0-4.47,5.25l-2.44,4.35A1,1,0,0,1,13.19,22Z"/><path class="cls-3" d="M32,50a8.66,8.66,0,0,1-7.62-4.55l-1.65-3.08a1,1,0,1,1,1.76-.94l1.65,3.07a6.65,6.65,0,0,0,11.72,0l5.83-10.82a1,1,0,0,1,.88-.53,3.12,3.12,0,0,0,3-4.1l-2.61-7.82a3,3,0,0,0-3.87-1.88l-8.71,3.17a1,1,0,0,1-.68,0L23,19.34a3,3,0,0,0-3.87,1.87L16.47,29a2.9,2.9,0,0,0-.16,1,3.12,3.12,0,0,0,3.12,3.11,1,1,0,0,1,.88.53L22.63,38a1,1,0,0,1-1.76.94L18.81,35.1a5.13,5.13,0,0,1-4.24-6.7l2.61-7.82a5,5,0,0,1,6.45-3.12L32,20.51l8.37-3.05a5,5,0,0,1,6.45,3.12l2.61,7.82a5.12,5.12,0,0,1-4.24,6.7L39.62,45.44A8.67,8.67,0,0,1,32,50Z"/><path class="cls-3" d="M32,38.38a1,1,0,0,1-.45-.11l-2.23-1.12a2.39,2.39,0,0,1,1.07-4.52h3.22a2.39,2.39,0,0,1,1.07,4.52l-2.23,1.12A1,1,0,0,1,32,38.38Zm-1.61-3.75A.39.39,0,0,0,30,35a.37.37,0,0,0,.22.34l1.78.9,1.78-.9A.37.37,0,0,0,34,35a.39.39,0,0,0-.39-.39Z"/></g></svg>