<svg xmlns="http://www.w3.org/2000/svg" viewBox="0 0 64 64"><defs><style>.cls-1{fill:#965500;}.cls-2{fill:#efc589;}.cls-3{fill:#703f00;}.cls-4{fill:#281111;}</style></defs><title>monkey</title><g id="monkey"><path class="cls-1" d="M48,16.8A17.83,17.83,0,0,1,50,25V37.3a17.61,17.61,0,0,0-5-3.5V22a7,7,0,0,0-13-3.6A6.89,6.89,0,0,0,31,17.05,7,7,0,0,0,19,22V33.8a17.61,17.61,0,0,0-5,3.5V25a18,18,0,0,1,34-8.2Z"/><path class="cls-2" d="M53,44c0,7.18-9.4,13-21,13S11,51.18,11,44c0-.22,0-.45,0-.67a3.93,3.93,0,0,1,.06-.48.64.64,0,0,1,0-.2,3,3,0,0,1,.1-.5c0-.13.06-.26.1-.39a5.44,5.44,0,0,1,.29-.86A11.25,11.25,0,0,1,14,37.33v0a17.61,17.61,0,0,1,5-3.5V22a7,7,0,0,1,12-4.95A6.89,6.89,0,0,1,32,18.4,7,7,0,0,1,45,22V33.8a17.61,17.61,0,0,1,5,3.5v0a11.25,11.25,0,0,1,2.39,3.57,5.44,5.44,0,0,1,.29.86c0,.13.07.26.11.39a4.37,4.37,0,0,1,.09.5.64.64,0,0,1,0,.2,3.93,3.93,0,0,1,.06.48C53,43.55,53,43.78,53,44Z"/><path class="cls-3" d="M16,16.8A17.83,17.83,0,0,0,14,25v2.91A5.47,5.47,0,0,1,13,28a6,6,0,0,1,0-12A5.88,5.88,0,0,1,16,16.8Z"/><path class="cls-3" d="M57,22a6,6,0,0,1-6,6,5.47,5.47,0,0,1-1-.09V25a17.83,17.83,0,0,0-2-8.2,5.88,5.88,0,0,1,3-.8A6,6,0,0,1,57,22Z"/><path class="cls-4" d="M37,48H27a1,1,0,0,1,0-2H37a1,1,0,0,1,0,2Z"/><circle class="cls-4" cx="26.5" cy="26.5" r="1.5"/><circle class="cls-4" cx="37.5" cy="26.5" r="1.5"/><path class="cls-4" d="M30,38H29a1,1,0,0,1,0-2h1a1,1,0,0,1,0,2Z"/><path class="cls-4" d="M35,38H34a1,1,0,0,1,0-2h1a1,1,0,0,1,0,2Z"/><path class="cls-4" d="M13,29a7,7,0,0,1,0-14,6.87,6.87,0,0,1,3.49.94,1,1,0,0,1,.38,1.32A17,17,0,0,0,15,25v2.91a1,1,0,0,1-.82,1A6.56,6.56,0,0,1,13,29Zm0-12a5,5,0,0,0,0,10V25a19.07,19.07,0,0,1,1.64-7.72A4.75,4.75,0,0,0,13,17Z"/><path class="cls-4" d="M51,29a6.56,6.56,0,0,1-1.18-.11,1,1,0,0,1-.82-1V25a17,17,0,0,0-1.87-7.74,1,1,0,0,1,.38-1.32A6.87,6.87,0,0,1,51,15a7,7,0,0,1,0,14ZM49.36,17.28A19.07,19.07,0,0,1,51,25v2a5,5,0,0,0,0-10A4.75,4.75,0,0,0,49.36,17.28Z"/><path class="cls-4" d="M14,38.3a1,1,0,0,1-1-1V25a19,19,0,0,1,4.2-11.91,1,1,0,1,1,1.56,1.26,16.79,16.79,0,0,0-1.89,2.9A17,17,0,0,0,15,25V35.08a19.42,19.42,0,0,1,3-1.9V22a8,8,0,0,1,13.66-5.66c.12.12.23.24.34.37A8,8,0,0,1,46,22v3a1,1,0,0,1-2,0V22a6,6,0,0,0-11.14-3.09,1,1,0,0,1-.86.49h0a1,1,0,0,1-.86-.49,5.5,5.5,0,0,0-.9-1.15A5.93,5.93,0,0,0,26,16a6,6,0,0,0-6,6V33.8a1,1,0,0,1-.57.9A16.27,16.27,0,0,0,14.72,38,1,1,0,0,1,14,38.3Z"/><path class="cls-4" d="M50,38.3a1,1,0,0,1-.72-.3,16.27,16.27,0,0,0-4.71-3.3,1,1,0,0,1-.57-.9V29a1,1,0,0,1,2,0v4.18a19.42,19.42,0,0,1,3,1.9V25A17,17,0,0,0,21.35,11.76a1,1,0,0,1-1.26-1.56A19,19,0,0,1,51,25V37.3a1,1,0,0,1-1,1Z"/><path class="cls-4" d="M11.61,41.9a1,1,0,0,1-.37-.07,1,1,0,0,1-.56-1.29,11.88,11.88,0,0,1,2.6-3.94,1,1,0,0,1,1.72.7,1,1,0,0,1-.28.72,10.26,10.26,0,0,0-2.18,3.25A1,1,0,0,1,11.61,41.9Z"/><path class="cls-4" d="M52.39,41.9a1,1,0,0,1-.93-.63A10.26,10.26,0,0,0,49.28,38a1,1,0,0,1-.28-.69,1,1,0,0,1,.62-.94,1,1,0,0,1,1.1.21,11.88,11.88,0,0,1,2.6,3.94,1,1,0,0,1-.56,1.29A1,1,0,0,1,52.39,41.9Z"/><path class="cls-4" d="M32,58c-12.13,0-22-6.28-22-14,0-.25,0-.51,0-.76s0-.32.06-.5a1.47,1.47,0,0,1,.05-.29,3.15,3.15,0,0,1,.12-.58c0-.1.06-.25.1-.4a6.47,6.47,0,0,1,.33-1,12.05,12.05,0,0,1,2.47-3.75l.12-.16A18.08,18.08,0,0,1,18,33.18V22a8,8,0,0,1,13.66-5.66c.12.12.23.24.34.37A8,8,0,0,1,46,22v3a1,1,0,0,1-2,0V22a6,6,0,0,0-11.14-3.09,1,1,0,0,1-.86.49h0a1,1,0,0,1-.86-.49,5.5,5.5,0,0,0-.9-1.15A5.93,5.93,0,0,0,26,16a6,6,0,0,0-6,6V33.8a1,1,0,0,1-.57.9,16.73,16.73,0,0,0-4.6,3.18.76.76,0,0,1-.11.14,10.26,10.26,0,0,0-2.18,3.25,4.79,4.79,0,0,0-.25.72c0,.17-.07.28-.1.39s-.06.27-.08.38a.68.68,0,0,1,0,.14.78.78,0,0,1,0,.14c0,.11,0,.23,0,.35s0,.42,0,.61c0,6.62,9,12,20,12a30.61,30.61,0,0,0,8.84-1.25,1,1,0,1,1,.58,1.92A32.84,32.84,0,0,1,32,58Z"/><path class="cls-4" d="M48.67,52.9a1,1,0,0,1-.78-.37A1,1,0,0,1,48,51.12c2.59-2.07,4-4.54,4-7.12a5.63,5.63,0,0,0,0-.58,3.43,3.43,0,0,0,0-.38.78.78,0,0,1,0-.14.68.68,0,0,1,0-.14c0-.13,0-.25-.07-.38l-.1-.33a4.51,4.51,0,0,0-.25-.76A10.31,10.31,0,0,0,49.28,38a.57.57,0,0,1-.12-.15,16.65,16.65,0,0,0-4.59-3.17,1,1,0,0,1-.57-.9V29a1,1,0,0,1,2,0v4.18a18.08,18.08,0,0,1,4.72,3.42l.13.17a12.34,12.34,0,0,1,2.47,3.76,6.16,6.16,0,0,1,.33,1l.1.33a5.88,5.88,0,0,1,.11.59,1.47,1.47,0,0,1,0,.29,4.78,4.78,0,0,1,.06.53c0,.22,0,.48,0,.73,0,3.17-1.67,6.25-4.71,8.68A1,1,0,0,1,48.67,52.9Z"/><path class="cls-4" d="M44.86,55.27a1,1,0,0,1-.91-.58,1,1,0,0,1,.49-1.33l.44-.21A1,1,0,1,1,45.72,55l-.44.21A1,1,0,0,1,44.86,55.27Z"/></g></svg>