<?xml version="1.0" encoding="utf-8"?>
<!-- Generator: Adobe Illustrator 24.3.0, SVG Export Plug-In . SVG Version: 6.00 Build 0)  -->
<svg version="1.1" id="Layer_1" xmlns="http://www.w3.org/2000/svg" xmlns:xlink="http://www.w3.org/1999/xlink" x="0px" y="0px"
	 viewBox="0 0 400 400" enable-background="new 0 0 400 400" xml:space="preserve">
<g>
	<g>
		<g>
			<path fill="#FF7D5F" d="M229.415,91.573V80.89h-23.955v-0.381c0-2.507-2.033-4.537-4.538-4.537c-2.505,0-4.537,2.031-4.537,4.537
				v38.267c1.503-0.077,3.013-0.136,4.537-0.136c1.527,0,3.028,0.108,4.538,0.185V98.473h13.11v10.682h23.955V91.573H229.415z"/>
		</g>
		<g>
			<path fill="#A880B2" d="M287.312,219.954c0.718-4.504,1.099-9.119,1.099-13.825c0-4.486-0.34-8.892-0.992-13.194
				c2.904-0.881,5.028-3.547,5.028-6.737c0-3.905-3.161-7.071-7.066-7.071c-0.411,0-0.803,0.053-1.196,0.119
				c-11.344-35.162-44.323-60.606-83.261-60.606c-28.729,0-54.222,13.85-70.175,35.236c-1.232-1.051-2.809-1.709-4.558-1.709
				c-3.905,0-7.072,3.165-7.072,7.071c0,2.889,1.74,5.366,4.224,6.462c-6.316,12.096-9.908,25.84-9.908,40.428
				c0,27.777,12.962,52.513,33.151,68.539c-0.617,1.049-0.995,2.255-0.995,3.56c0,3.905,3.167,7.071,7.072,7.071
				c2.292,0,4.304-1.108,5.595-2.796c12.626,7.068,27.169,11.113,42.666,11.113c36.034,0,66.969-21.791,80.375-52.908
				c0.706,0.145,1.439,0.22,2.186,0.22c5.994,0,10.853-4.858,10.853-10.852C294.337,225.436,291.41,221.507,287.312,219.954z"/>
		</g>
		<g>
			<path fill="#B999C1" d="M130.072,206.129c0-52.197,53.88-84.672,79.176-87.06c-2.744-0.259-5.512-0.428-8.325-0.428
				c-28.729,0-54.222,13.85-70.175,35.236c-1.232-1.051-2.809-1.709-4.558-1.709c-3.905,0-7.072,3.165-7.072,7.071
				c0,2.889,1.74,5.366,4.224,6.462c-6.316,12.096-9.908,25.84-9.908,40.428c0,27.777,12.962,52.513,33.151,68.539
				c-0.617,1.049-0.995,2.255-0.995,3.56c0,3.905,3.167,7.071,7.072,7.071c2.292,0,4.304-1.108,5.595-2.796
				c12.626,7.068,27.169,11.113,42.666,11.113c2.812,0,5.577-0.179,8.322-0.437C196.867,292.004,130.072,267.872,130.072,206.129z"
				/>
		</g>
		<g>
			<path fill="#A880B2" d="M94.605,212.154c0,3.905-3.161,7.071-7.066,7.071c-3.905,0-7.072-3.165-7.072-7.071
				c0-3.905,3.167-7.071,7.072-7.071C91.444,205.083,94.605,208.249,94.605,212.154z"/>
		</g>
		<g>
			<path fill="#A880B2" d="M288.896,118.641c0,3.905-3.161,7.071-7.066,7.071c-3.905,0-7.072-3.165-7.072-7.071
				c0-3.905,3.166-7.071,7.072-7.071C285.735,111.57,288.896,114.735,288.896,118.641z"/>
		</g>
		<g>
			<path fill="#FF7D5F" d="M236.484,165.779c0,3.905-3.161,7.071-7.066,7.071c-3.905,0-7.072-3.165-7.072-7.071
				c0-3.905,3.167-7.071,7.072-7.071C233.324,158.708,236.484,161.874,236.484,165.779z"/>
		</g>
		<g>
			<path fill="#FF7D5F" d="M181.184,253.756c0,3.905-3.161,7.071-7.066,7.071c-3.905,0-7.072-3.165-7.072-7.071
				c0-3.905,3.167-7.071,7.072-7.071C178.023,246.686,181.184,249.851,181.184,253.756z"/>
		</g>
		<g>
			<path fill="#FF7D5F" d="M319.533,108.053c0,3.905-3.161,7.071-7.066,7.071c-3.905,0-7.072-3.165-7.072-7.071
				c0-3.905,3.167-7.071,7.072-7.071C316.372,100.983,319.533,104.148,319.533,108.053z"/>
		</g>
		<g>
			<path fill="#FF7D5F" d="M108.194,253.756c0,5.994-4.86,10.852-10.853,10.852c-5.994,0-10.85-4.858-10.85-10.852
				s4.856-10.852,10.85-10.852C103.335,242.904,108.194,247.763,108.194,253.756z"/>
		</g>
		<g>
			<path fill="#FF7D5F" d="M174.115,199.24c0,5.994-4.86,10.852-10.853,10.852c-5.994,0-10.851-4.858-10.851-10.852
				c0-5.994,4.857-10.852,10.851-10.852C169.255,188.388,174.115,193.246,174.115,199.24z"/>
		</g>
		<g>
			<path fill="#FF7D5F" d="M265.884,215.198c0,5.994-4.86,10.852-10.853,10.852c-5.994,0-10.85-4.858-10.85-10.852
				c0-5.994,4.856-10.852,10.85-10.852C261.024,204.346,265.884,209.204,265.884,215.198z"/>
		</g>
		<g>
			<g>
				<path fill="#A880B2" d="M200.923,324.028c-33.476,0-65.587-14.223-88.1-39.022c-1.684-1.855-1.548-4.725,0.31-6.409
					c1.855-1.685,4.724-1.548,6.407,0.309c20.8,22.909,50.462,36.047,81.382,36.047c13.001,0,25.724-2.248,37.818-6.681
					c2.357-0.86,4.96,0.343,5.823,2.699c0.863,2.353-0.346,4.958-2.697,5.821C228.768,321.594,214.993,324.028,200.923,324.028z"/>
			</g>
		</g>
		<g>
			<path fill="#B999C1" d="M113.134,283.513c1.855-1.685,4.724-1.548,6.407,0.309c20.8,22.909,50.462,36.047,81.382,36.047
				c13.001,0,25.724-2.248,37.818-6.681c2.029-0.74,4.236,0.054,5.362,1.793c0.744-1.153,0.969-2.622,0.461-4.01
				c-0.863-2.356-3.465-3.558-5.823-2.699c-12.094,4.432-24.817,6.681-37.818,6.681c-30.921,0-60.583-13.139-81.382-36.047
				c-1.684-1.857-4.552-1.994-6.407-0.309c-1.681,1.523-1.873,3.981-0.665,5.817C112.676,284.104,112.844,283.774,113.134,283.513z"
				/>
		</g>
		<g>
			<g>
				<path fill="#A880B2" d="M288.893,282.765c-1.022,0-2.053-0.344-2.901-1.05c-1.926-1.604-2.186-4.465-0.582-6.391
					c16.384-19.679,25.408-44.632,25.408-70.263c0-17.888-4.189-34.976-12.449-50.793c-1.161-2.22-0.301-4.961,1.92-6.122
					c2.222-1.156,4.963-0.301,6.121,1.922c8.821,16.884,13.483,35.899,13.483,54.993c0,27.748-9.769,54.763-27.512,76.071
					C291.487,282.209,290.193,282.765,288.893,282.765z"/>
			</g>
		</g>
		<g>
			<path fill="#B999C1" d="M291.286,281.715c-1.926-1.604-2.186-4.465-0.582-6.391c16.384-19.679,25.408-44.632,25.408-70.263
				c0-17.888-4.189-34.976-12.449-50.793c-1.058-2.022-0.425-4.465,1.374-5.763c-1.347-0.972-3.173-1.179-4.747-0.359
				c-2.222,1.161-3.081,3.902-1.92,6.122c8.26,15.816,12.449,32.904,12.449,50.793c0,25.631-9.025,50.584-25.408,70.263
				c-1.604,1.926-1.344,4.787,0.582,6.391c0.848,0.706,1.879,1.05,2.901,1.05c0.951,0,1.894-0.304,2.682-0.885
				C291.484,281.814,291.374,281.789,291.286,281.715z"/>
		</g>
		<g>
			<path fill="#FF9D8D" d="M200.923,80.509c0-1.675,0.919-3.122,2.269-3.908c-0.671-0.39-1.439-0.629-2.269-0.629
				c-2.505,0-4.537,2.031-4.537,4.537v38.267c1.503-0.077,3.013-0.136,4.537-0.136V80.509z"/>
		</g>
		<g>
			<path fill="#FF7D5F" d="M242.65,262.676c-8.632,0-15.627,6.997-15.627,15.629c0,3.868,1.456,7.363,3.784,10.093
				c9.766-3.554,18.705-8.79,26.492-15.37C255.128,267.005,249.421,262.676,242.65,262.676z"/>
		</g>
		<g>
			<path fill="#FF9D8D" d="M233.205,278.305c0-7.543,5.344-13.837,12.451-15.304c-0.975-0.192-1.973-0.325-3.007-0.325
				c-8.632,0-15.627,6.997-15.627,15.629c0,3.868,1.456,7.363,3.784,10.093c1.622-0.591,3.184-1.296,4.759-1.976
				C234.092,284.056,233.205,281.299,233.205,278.305z"/>
		</g>
		<g>
			<path fill="#FF7D5F" d="M158.488,147.124c8.632,0,15.627-6.998,15.627-15.63c0-2.892-0.839-5.567-2.21-7.89
				c-9.964,3.505-19.107,8.744-27.051,15.385C147.513,143.816,152.588,147.124,158.488,147.124z"/>
		</g>
		<g>
			<path fill="#FF9D8D" d="M171.905,123.661c-0.003,0-0.009,0.001-0.012,0.003c-4.963,1.746-9.719,3.925-14.227,6.489
				c-0.021,0.013-0.044,0.025-0.065,0.037c-2.18,1.244-4.296,2.585-6.354,4.006c-0.183,0.127-0.36,0.258-0.544,0.387
				c-2.009,1.41-3.967,2.891-5.849,4.462c2.414,4.38,6.824,7.481,12.026,8.024c5.382-5.253,11.19-9.814,17.045-13.655
				c0.076-0.619,0.189-1.225,0.189-1.863C174.115,128.658,173.276,125.983,171.905,123.661z"/>
		</g>
		<g>
			<rect x="205.461" y="80.89" fill="#FF9D8D" width="4.446" height="17.583"/>
		</g>
		<g>
			<rect x="218.6" y="98.473" fill="#FF9D8D" width="4.446" height="10.682"/>
		</g>
		<g>
			<path fill="#FF9D8D" d="M96.109,253.756c0-4.258,2.473-7.904,6.041-9.682c-1.453-0.724-3.072-1.17-4.809-1.17
				c-5.994,0-10.85,4.858-10.85,10.852s4.856,10.852,10.85,10.852c1.737,0,3.356-0.446,4.809-1.17
				C98.582,261.66,96.109,258.015,96.109,253.756z"/>
		</g>
		<g>
			<path fill="#FF9D8D" d="M162.029,199.24c0-4.258,2.473-7.904,6.041-9.682c-1.453-0.724-3.072-1.17-4.809-1.17
				c-5.994,0-10.851,4.858-10.851,10.852c0,5.994,4.857,10.852,10.851,10.852c1.737,0,3.356-0.446,4.809-1.17
				C164.502,207.144,162.029,203.498,162.029,199.24z"/>
		</g>
		<g>
			<path fill="#FF9D8D" d="M253.798,215.198c0-4.258,2.473-7.904,6.041-9.682c-1.454-0.723-3.072-1.17-4.809-1.17
				c-5.994,0-10.85,4.858-10.85,10.852c0,5.994,4.856,10.852,10.85,10.852c1.737,0,3.356-0.446,4.809-1.17
				C256.271,223.102,253.798,219.456,253.798,215.198z"/>
		</g>
		<g>
			<path fill="#B999C1" d="M86.204,212.154c0-2.882,1.728-5.352,4.204-6.453c-0.88-0.39-1.846-0.617-2.868-0.617
				c-3.905,0-7.072,3.165-7.072,7.071c0,3.905,3.167,7.071,7.072,7.071c1.022,0,1.988-0.227,2.868-0.617
				C87.932,217.505,86.204,215.036,86.204,212.154z"/>
		</g>
		<g>
			<path fill="#FF9D8D" d="M172.782,253.756c0-2.882,1.728-5.351,4.204-6.453c-0.88-0.39-1.846-0.617-2.869-0.617
				c-3.905,0-7.072,3.165-7.072,7.071c0,3.905,3.167,7.071,7.072,7.071c1.022,0,1.988-0.227,2.869-0.617
				C174.511,259.108,172.782,256.638,172.782,253.756z"/>
		</g>
		<g>
			<path fill="#FF9D8D" d="M228.083,165.779c0-2.882,1.728-5.351,4.204-6.453c-0.88-0.39-1.846-0.617-2.868-0.617
				c-3.905,0-7.072,3.165-7.072,7.071c0,3.905,3.167,7.071,7.072,7.071c1.022,0,1.988-0.227,2.868-0.617
				C229.811,171.13,228.083,168.661,228.083,165.779z"/>
		</g>
		<g>
			<path fill="#FF9D8D" d="M311.132,108.053c0-2.882,1.728-5.351,4.203-6.453c-0.88-0.39-1.846-0.617-2.868-0.617
				c-3.905,0-7.072,3.165-7.072,7.071c0,3.905,3.167,7.071,7.072,7.071c1.022,0,1.988-0.227,2.868-0.617
				C312.86,113.404,311.132,110.935,311.132,108.053z"/>
		</g>
		<g>
			<path fill="#B999C1" d="M280.494,118.641c0-2.882,1.728-5.352,4.204-6.453c-0.88-0.39-1.846-0.617-2.869-0.617
				c-3.905,0-7.072,3.165-7.072,7.071c0,3.905,3.166,7.071,7.072,7.071c1.022,0,1.988-0.228,2.869-0.617
				C282.223,123.992,280.494,121.522,280.494,118.641z"/>
		</g>
	</g>
	<g>
		<g>
			<path fill="#161616" d="M87.539,223.762c-6.401,0-11.61-5.208-11.61-11.608c0-6.4,5.208-11.608,11.61-11.608
				c6.399,0,11.604,5.208,11.604,11.608C99.143,218.554,93.938,223.762,87.539,223.762z M87.539,209.621
				c-1.397,0-2.535,1.136-2.535,2.533s1.137,2.533,2.535,2.533c1.394,0,2.529-1.136,2.529-2.533S88.934,209.621,87.539,209.621z"/>
		</g>
		<g>
			<path fill="#161616" d="M281.83,130.249c-6.401,0-11.61-5.208-11.61-11.608c0-6.4,5.208-11.608,11.61-11.608
				c6.399,0,11.604,5.208,11.604,11.608C293.434,125.041,288.228,130.249,281.83,130.249z M281.83,116.108
				c-1.397,0-2.535,1.136-2.535,2.533s1.137,2.533,2.535,2.533c1.394,0,2.529-1.136,2.529-2.533S283.224,116.108,281.83,116.108z"/>
		</g>
		<g>
			<path fill="#161616" d="M229.418,177.387c-6.402,0-11.609-5.208-11.609-11.608c0-6.4,5.208-11.608,11.609-11.608
				c6.399,0,11.604,5.208,11.604,11.608C241.022,172.179,235.817,177.387,229.418,177.387z M229.418,163.246
				c-1.397,0-2.535,1.136-2.535,2.533c0,1.397,1.137,2.533,2.535,2.533c1.394,0,2.529-1.136,2.529-2.533
				C231.947,164.382,230.813,163.246,229.418,163.246z"/>
		</g>
		<g>
			<path fill="#161616" d="M174.118,265.364c-6.402,0-11.61-5.208-11.61-11.608c0-6.4,5.208-11.608,11.61-11.608
				c6.398,0,11.604,5.208,11.604,11.608C185.721,260.156,180.516,265.364,174.118,265.364z M174.118,251.223
				c-1.397,0-2.535,1.136-2.535,2.533c0,1.397,1.137,2.533,2.535,2.533c1.394,0,2.529-1.136,2.529-2.533
				C176.646,252.359,175.512,251.223,174.118,251.223z"/>
		</g>
		<g>
			<path fill="#161616" d="M312.467,119.661c-6.402,0-11.61-5.208-11.61-11.608c0-6.4,5.208-11.608,11.61-11.608
				c6.398,0,11.604,5.208,11.604,11.608C324.07,114.453,318.865,119.661,312.467,119.661z M312.467,105.52
				c-1.397,0-2.535,1.136-2.535,2.533c0,1.397,1.137,2.533,2.535,2.533c1.394,0,2.529-1.136,2.529-2.533
				C314.995,106.656,313.861,105.52,312.467,105.52z"/>
		</g>
		<g>
			<path fill="#161616" d="M97.341,269.146c-8.484,0-15.388-6.904-15.388-15.389c0-8.486,6.904-15.389,15.388-15.389
				c8.487,0,15.391,6.904,15.391,15.389C112.732,262.242,105.828,269.146,97.341,269.146z M97.341,247.442
				c-3.48,0-6.313,2.833-6.313,6.314c0,3.481,2.833,6.314,6.313,6.314c3.483,0,6.316-2.833,6.316-6.314
				C103.657,250.275,100.824,247.442,97.341,247.442z"/>
		</g>
		<g>
			<path fill="#161616" d="M163.262,214.629c-8.484,0-15.388-6.904-15.388-15.389c0-8.486,6.904-15.389,15.388-15.389
				c8.487,0,15.391,6.904,15.391,15.389C178.652,207.726,171.749,214.629,163.262,214.629z M163.262,192.926
				c-3.48,0-6.313,2.833-6.313,6.314s2.833,6.314,6.313,6.314c3.483,0,6.316-2.833,6.316-6.314S166.744,192.926,163.262,192.926z"/>
		</g>
		<g>
			<path fill="#161616" d="M255.03,230.587c-8.484,0-15.388-6.904-15.388-15.389c0-8.486,6.904-15.389,15.388-15.389
				c8.487,0,15.391,6.904,15.391,15.389C270.421,223.684,263.517,230.587,255.03,230.587z M255.03,208.884
				c-3.48,0-6.313,2.833-6.313,6.314s2.833,6.314,6.313,6.314c3.483,0,6.316-2.833,6.316-6.314S258.513,208.884,255.03,208.884z"/>
		</g>
		<g>
			<path fill="#161616" d="M189.795,297.44c-0.192,0-0.384-0.012-0.579-0.037c-10.635-1.356-20.817-4.515-30.312-9.403
				c-1.837,1.189-3.988,1.836-6.242,1.836c-6.402,0-11.61-5.208-11.61-11.608c0-0.696,0.065-1.39,0.195-2.075
				c-20.602-17.547-32.35-42.885-32.35-70.024c0-13.478,3.004-26.907,8.715-39.08c-1.911-2.097-3.031-4.867-3.031-7.811
				c0-6.4,5.208-11.608,11.61-11.608c1.12,0,2.227,0.167,3.291,0.488c17.568-21.667,43.39-34.015,71.442-34.015
				c38.994,0,73.362,24.247,86.525,60.671c5.415,0.979,9.536,5.729,9.536,11.423c0,3.75-1.77,7.137-4.65,9.273
				c0.408,3.53,0.615,7.102,0.615,10.658c0,3.768-0.236,7.568-0.703,11.338c4.071,2.836,6.629,7.542,6.629,12.609
				c0,8.269-6.555,15.035-14.744,15.376c-13.35,28.185-40.462,47.958-71.501,51.908c-2.467,0.335-4.756-1.44-5.075-3.927
				c-0.316-2.486,1.445-4.758,3.929-5.074c28.941-3.684,54.095-22.63,65.646-49.446c0.854-1.979,2.987-3.085,5.078-2.65
				c0.414,0.084,0.845,0.127,1.276,0.127c3.483,0,6.316-2.833,6.316-6.314c0-2.629-1.607-4.936-4.094-5.879
				c-2.012-0.762-3.211-2.833-2.874-4.958c0.691-4.338,1.043-8.75,1.043-13.11c0-4.187-0.316-8.397-0.942-12.514
				c-0.337-2.229,1.013-4.369,3.17-5.023c0.901-0.272,1.808-1.118,1.808-2.394c0-1.548-1.489-2.733-2.969-2.477
				c-2.219,0.38-4.381-0.935-5.075-3.081c-11.087-34.369-42.811-57.461-78.942-57.461c-26.448,0-50.698,12.178-66.538,33.412
				c-0.75,1.006-1.885,1.656-3.131,1.796c-1.244,0.145-2.496-0.242-3.45-1.059c-0.334-0.284-0.883-0.622-1.613-0.622
				c-1.397,0-2.535,1.136-2.535,2.533c0,0.997,0.597,1.904,1.518,2.31c1.149,0.507,2.035,1.467,2.452,2.651
				c0.414,1.185,0.319,2.489-0.26,3.601c-6.233,11.936-9.394,24.831-9.394,38.328c0,25.441,11.456,49.126,31.435,64.986
				c1.773,1.408,2.236,3.905,1.09,5.856c-0.245,0.415-0.369,0.837-0.369,1.257c0,1.397,1.137,2.533,2.535,2.533
				c0.771,0,1.498-0.369,1.991-1.015c1.368-1.79,3.852-2.304,5.819-1.204c9.282,5.196,19.338,8.514,29.89,9.859
				c2.487,0.316,4.245,2.589,3.929,5.075C193.999,295.768,192.046,297.44,189.795,297.44z"/>
		</g>
		<g>
			<g>
				<path fill="#161616" d="M200.923,324.028c-33.476,0-65.587-14.223-88.1-39.022c-1.684-1.855-1.548-4.725,0.31-6.409
					c1.852-1.685,4.724-1.548,6.407,0.309c20.8,22.909,50.462,36.047,81.382,36.047c13.001,0,25.724-2.248,37.818-6.681
					c2.357-0.86,4.96,0.343,5.823,2.699c0.863,2.353-0.346,4.958-2.697,5.821C228.768,321.594,214.993,324.028,200.923,324.028z"/>
			</g>
		</g>
		<g>
			<g>
				<path fill="#161616" d="M288.893,282.765c-1.022,0-2.053-0.344-2.901-1.05c-1.926-1.604-2.186-4.465-0.582-6.391
					c16.384-19.679,25.408-44.632,25.408-70.263c0-17.888-4.189-34.976-12.449-50.793c-1.161-2.22-0.301-4.961,1.92-6.122
					c2.222-1.156,4.963-0.301,6.121,1.922c8.821,16.884,13.483,35.899,13.483,54.993c0,27.748-9.769,54.763-27.512,76.071
					C291.487,282.209,290.193,282.765,288.893,282.765z"/>
			</g>
		</g>
		<g>
			<path fill="#161616" d="M200.923,118.641c1.527,0,3.028,0.108,4.538,0.185V80.509c0-2.507-2.033-4.537-4.538-4.537
				c-2.505,0-4.537,2.031-4.537,4.537v38.267C197.889,118.7,199.399,118.641,200.923,118.641z"/>
		</g>
		<g>
			<path fill="#161616" d="M229.415,103.011h-23.955c-2.505,0-4.537-2.031-4.537-4.538V80.89c0-2.507,2.032-4.538,4.537-4.538
				h23.955c2.505,0,4.537,2.031,4.537,4.538v17.583C233.953,100.98,231.92,103.011,229.415,103.011z M209.998,93.936h14.88v-8.508
				h-14.88V93.936z"/>
		</g>
		<g>
			<path fill="#161616" d="M242.526,113.693h-23.955c-2.505,0-4.538-2.031-4.538-4.537V98.473c0-2.506,2.032-4.537,4.538-4.537
				h6.307v-2.363c0-2.507,2.032-4.537,4.538-4.537h13.11c2.505,0,4.537,2.031,4.537,4.537v17.583
				C247.063,111.662,245.031,113.693,242.526,113.693z M223.108,104.618h14.88V96.11h-4.035v2.363c0,2.507-2.033,4.538-4.537,4.538
				h-6.307V104.618z"/>
		</g>
		<g>
			<path fill="#161616" d="M230.807,292.935c-1.303,0-2.573-0.563-3.453-1.594c-3.14-3.681-4.868-8.311-4.868-13.036
				c0-11.119,9.045-20.166,20.165-20.166c8.437,0,16.038,5.365,18.918,13.349c0.644,1.784,0.109,3.781-1.341,5.004
				c-8.31,7.025-17.686,12.465-27.869,16.169C231.852,292.846,231.327,292.935,230.807,292.935z M242.65,267.214
				c-6.115,0-11.09,4.976-11.09,11.091c0,1.774,0.425,3.292,1.01,4.54c6.8-2.809,13.172-6.505,19.01-11.026
				C249.533,268.982,246.227,267.214,242.65,267.214z"/>
		</g>
		<g>
			<path fill="#161616" d="M152.449,150.422c-0.594,0-1.196-0.118-1.778-0.366c-4.133-1.763-7.61-4.917-9.793-8.878
				c-1.046-1.902-0.6-4.278,1.066-5.67c8.461-7.074,18.035-12.518,28.454-16.184c2.044-0.721,4.31,0.106,5.415,1.975
				c1.858,3.149,2.839,6.675,2.839,10.196c0,2.52-0.487,5.026-1.453,7.449c-0.928,2.334-3.58,3.461-5.893,2.537
				c-2.328-0.926-3.465-3.566-2.538-5.893c0.538-1.35,0.809-2.727,0.809-4.093c0-0.697-0.071-1.388-0.207-2.071
				c-6.493,2.668-12.581,6.13-18.188,10.338c0.904,0.81,1.935,1.473,3.052,1.95c2.304,0.984,3.377,3.65,2.393,5.954
				C155.891,149.388,154.213,150.422,152.449,150.422z"/>
		</g>
	</g>
</g>
</svg>
