<?xml version="1.0" encoding="utf-8"?>
<!-- Generator: Adobe Illustrator 24.3.0, SVG Export Plug-In . SVG Version: 6.00 Build 0)  -->
<svg version="1.1" id="Layer_1" xmlns="http://www.w3.org/2000/svg" xmlns:xlink="http://www.w3.org/1999/xlink" x="0px" y="0px"
	 viewBox="0 0 400 400" enable-background="new 0 0 400 400" xml:space="preserve">
<g>
	<g>
		<g>
			<circle fill="#FFDA88" cx="200" cy="200" r="28.664"/>
		</g>
		<g>
			<path fill="#FFE2A9" d="M190.904,200c0-12.304,7.769-22.767,18.652-26.832c-3.122-1.164-6.486-1.832-10.014-1.832
				c-15.831,0-28.665,12.833-28.665,28.664c0,15.834,12.834,28.664,28.665,28.664c3.529,0,6.892-0.668,10.014-1.832
				C198.673,222.767,190.904,212.304,190.904,200z"/>
		</g>
		<g>
			<g>
				<path fill="#A880B2" d="M199.997,268.83c-37.95,0-68.829-30.873-68.829-68.827c0-37.957,30.879-68.833,68.829-68.833
					c6.185,0,12.353,0.836,18.34,2.487c2.331,0.644,3.696,3.055,3.055,5.385c-0.644,2.328-3.057,3.678-5.381,3.052
					c-5.23-1.442-10.616-2.177-16.014-2.177c-33.126,0-60.079,26.953-60.079,60.086c0,33.13,26.953,60.08,60.079,60.08
					c33.132,0,60.085-26.95,60.085-60.08c0-19.937-9.864-38.536-26.387-49.75c-1.999-1.359-2.52-4.08-1.164-6.08
					c1.356-1.997,4.078-2.517,6.078-1.161c18.924,12.844,30.223,34.149,30.223,56.99C268.832,237.957,237.953,268.83,199.997,268.83
					z"/>
			</g>
		</g>
		<g>
			<g>
				<path fill="#B999C1" d="M216.011,142.094c1.217,0.328,2.455,0.103,3.455-0.511c-4.558-1.081-9.212-1.666-13.881-1.666
					c-0.753,0-1.489,0.089-2.238,0.115C207.616,140.271,211.862,140.951,216.011,142.094z"/>
			</g>
			<g>
				<path fill="#B999C1" d="M233.694,150.253c16.524,11.214,26.387,29.812,26.387,49.75c0,32.185-25.46,58.464-57.29,59.938
					c0.932,0.041,1.851,0.142,2.793,0.142c33.133,0,60.086-26.95,60.086-60.08c0-19.937-9.867-38.536-26.389-49.75
					c-2-1.359-2.521-4.08-1.164-6.08c0.239-0.355,0.533-0.644,0.849-0.904c-0.123-0.083-0.237-0.177-0.359-0.257
					c-2-1.356-4.722-0.836-6.078,1.161C231.175,146.173,231.696,148.894,233.694,150.253z"/>
			</g>
			<g>
				<path fill="#B999C1" d="M136.757,200.003c0-36.885,29.161-67.079,65.635-68.756c-0.797-0.024-1.595-0.077-2.396-0.077
					c-37.95,0-68.829,30.876-68.829,68.833c0,37.954,30.879,68.827,68.829,68.827c0.937,0,1.866-0.033,2.795-0.068
					C166.131,267.288,136.757,237.018,136.757,200.003z"/>
			</g>
		</g>
		<g>
			<g>
				<path fill="#A880B2" d="M199.997,295.488c-52.657,0-95.494-42.834-95.494-95.485c0-52.654,42.837-95.491,95.494-95.491
					c52.66,0,95.5,42.837,95.5,95.491c0,13.154-2.643,25.922-7.858,37.945c-0.96,2.215-3.54,3.241-5.753,2.275
					c-2.217-0.963-3.233-3.539-2.273-5.758c4.734-10.915,7.134-22.51,7.134-34.462c0-47.83-38.916-86.744-86.75-86.744
					c-47.831,0-86.744,38.914-86.744,86.744c0,47.827,38.913,86.738,86.744,86.738c26.165,0,50.675-11.645,67.242-31.951
					c1.526-1.873,4.284-2.156,6.156-0.623c1.873,1.527,2.152,4.283,0.623,6.153C255.781,282.67,228.802,295.488,199.997,295.488z"/>
			</g>
		</g>
		<g>
			<g>
				<path fill="#B999C1" d="M109.606,200.003c0-51.797,41.466-94.064,92.943-95.426c-0.85-0.021-1.696-0.065-2.553-0.065
					c-52.657,0-95.494,42.837-95.494,95.491c0,52.651,42.837,95.485,95.494,95.485c0.818,0,1.624-0.047,2.439-0.065
					C151.009,293.999,109.606,251.762,109.606,200.003z"/>
			</g>
			<g>
				<path fill="#B999C1" d="M267.239,254.79c-16.054,19.674-39.563,31.18-64.804,31.88c0.886,0.03,1.772,0.071,2.665,0.071
					c26.164,0,50.674-11.645,67.244-31.951c0.248-0.301,0.535-0.547,0.836-0.765C271.318,252.674,268.709,252.988,267.239,254.79z"
					/>
			</g>
			<g>
				<path fill="#B999C1" d="M284.717,234.465c4.734-10.915,7.134-22.51,7.134-34.462c0-47.83-38.916-86.744-86.751-86.744
					c-0.854,0-1.699,0.041-2.551,0.068c46.655,1.359,84.197,39.703,84.197,86.676c0,11.952-2.4,23.547-7.134,34.462
					c-0.96,2.218,0.056,4.795,2.273,5.758c1.461,0.638,3.074,0.393,4.284-0.476C284.54,238.572,283.884,236.386,284.717,234.465z"/>
			</g>
		</g>
		<g>
			<g>
				<path fill="#A880B2" d="M199.997,321.041c-29.359,0-57.689-10.67-79.775-30.043c-1.814-1.595-1.996-4.36-0.402-6.174
					c1.592-1.82,4.362-1.994,6.173-0.408c20.488,17.976,46.769,27.875,74.004,27.875c61.922,0,112.297-50.373,112.297-112.288
					c0-61.918-50.375-112.294-112.297-112.294c-61.916,0-112.291,50.376-112.291,112.294c0,21.727,6.241,42.825,18.049,61.026
					c1.316,2.026,0.739,4.735-1.291,6.047c-2.022,1.323-4.734,0.741-6.048-1.285c-12.732-19.621-19.46-42.37-19.46-65.788
					c0-66.742,54.301-121.044,121.041-121.044c66.746,0,121.047,54.302,121.047,121.044
					C321.044,266.745,266.743,321.041,199.997,321.041z"/>
			</g>
		</g>
		<g>
			<g>
				<path fill="#B999C1" d="M103.329,265.791C90.6,246.17,83.87,223.42,83.87,200.003c0-65.921,52.974-119.664,118.584-120.979
					c-0.82-0.018-1.63-0.065-2.458-0.065c-66.74,0-121.041,54.302-121.041,121.044c0,23.417,6.728,46.167,19.46,65.788
					c1.314,2.026,4.026,2.608,6.048,1.285c0.027-0.018,0.047-0.038,0.071-0.053C104.069,266.703,103.657,266.29,103.329,265.791z"/>
			</g>
			<g>
				<path fill="#B999C1" d="M202.319,312.232c0.863,0.021,1.727,0.059,2.595,0.059c61.918,0,112.297-50.373,112.297-112.288
					c0-61.918-50.379-112.294-112.297-112.294c-0.827,0-1.639,0.044-2.459,0.062c60.785,1.317,109.839,51.138,109.839,112.232
					C312.294,261.141,263.166,310.991,202.319,312.232z"/>
			</g>
			<g>
				<path fill="#B999C1" d="M125.139,290.998c-1.818-1.595-1.997-4.36-0.405-6.174c0.242-0.278,0.552-0.443,0.842-0.644
					c-1.799-1.253-4.275-1.049-5.756,0.644c-1.594,1.814-1.412,4.579,0.402,6.174c22.086,19.373,50.416,30.043,79.775,30.043
					c0.777,0,1.547-0.047,2.322-0.062C173.889,320.37,146.569,309.798,125.139,290.998z"/>
			</g>
		</g>
		<g>
			<path fill="#9AE8CE" d="M237.285,141.985c0,5.784-4.693,10.472-10.474,10.472c-5.789,0-10.477-4.688-10.477-10.472
				c0-5.787,4.688-10.475,10.477-10.475C232.592,131.509,237.285,136.198,237.285,141.985z"/>
		</g>
		<g>
			<path fill="#AEF4DB" d="M225.085,141.985c0-4.219,2.507-7.831,6.099-9.492c-1.334-0.62-2.806-0.984-4.372-0.984
				c-5.789,0-10.477,4.688-10.477,10.475c0,5.784,4.688,10.472,10.477,10.472c1.566,0,3.038-0.366,4.372-0.987
				C227.591,149.813,225.085,146.203,225.085,141.985z"/>
		</g>
		<g>
			<path fill="#FF7D5F" d="M290.5,247.357c0,6.945-5.629,12.573-12.568,12.573c-6.944,0-12.568-5.627-12.568-12.573
				c0-6.948,5.625-12.576,12.568-12.576C284.871,234.781,290.5,240.409,290.5,247.357z"/>
		</g>
		<g>
			<path fill="#FF9D8D" d="M274.597,247.357c0-5.312,3.301-9.828,7.952-11.669c-1.433-0.57-2.982-0.907-4.617-0.907
				c-6.944,0-12.568,5.628-12.568,12.576c0,6.945,5.625,12.573,12.568,12.573c1.635,0,3.184-0.337,4.617-0.907
				C277.898,257.182,274.597,252.665,274.597,247.357z"/>
		</g>
		<g>
			<path fill="#8EC0D6" d="M128.155,276.026c0,8.886-7.203,16.088-16.089,16.088c-8.89,0-16.094-7.202-16.094-16.088
				c0-8.901,7.203-16.097,16.094-16.097C120.952,259.93,128.155,267.126,128.155,276.026z"/>
		</g>
		<g>
			<path fill="#A9D2E0" d="M107.639,276.026c0-6.839,4.258-12.655,10.26-14.992c-1.812-0.706-3.774-1.105-5.833-1.105
				c-8.89,0-16.094,7.196-16.094,16.097c0,8.886,7.203,16.088,16.094,16.088c2.059,0,4.021-0.402,5.833-1.105
				C111.897,288.67,107.639,282.853,107.639,276.026z"/>
		</g>
	</g>
	<g>
		<g>
			<path fill="#161616" d="M200,233.201c-18.308,0-33.202-14.895-33.202-33.201c0-3.554,0.582-7.093,1.728-10.52
				c0.795-2.378,3.359-3.66,5.743-2.865c2.376,0.795,3.659,3.368,2.863,5.743c-0.835,2.499-1.258,5.069-1.258,7.642
				c0,13.302,10.824,24.126,24.128,24.126c13.304,0,24.128-10.824,24.128-24.126c0-13.302-10.824-24.126-24.128-24.126
				c-3.892,0-7.62,0.913-11.078,2.709c-2.227,1.158-4.964,0.292-6.119-1.935c-1.155-2.221-0.29-4.963,1.934-6.118
				c4.765-2.476,9.901-3.731,15.264-3.731c18.308,0,33.202,14.895,33.202,33.201S218.308,233.201,200,233.201z"/>
		</g>
		<g>
			<path fill="#161616" d="M199.997,268.996c-38.041,0-68.991-30.95-68.991-68.993c0-38.046,30.95-68.996,68.991-68.996
				c6.199,0,12.385,0.839,18.385,2.493c2.415,0.668,3.834,3.167,3.167,5.58c-0.666,2.416-3.164,3.82-5.58,3.17
				c-5.214-1.439-10.588-2.168-15.971-2.168c-33.038,0-59.916,26.879-59.916,59.921c0,33.038,26.878,59.918,59.916,59.918
				c33.041,0,59.922-26.879,59.922-59.918c0-19.887-9.839-38.436-26.317-49.617c-2.074-1.406-2.614-4.23-1.207-6.301
				c1.408-2.074,4.235-2.608,6.303-1.208c18.97,12.874,30.296,34.229,30.296,57.126
				C268.994,238.046,238.043,268.996,199.997,268.996z"/>
		</g>
		<g>
			<path fill="#161616" d="M199.997,295.65c-52.745,0-95.658-42.908-95.658-95.648c0-52.742,42.913-95.653,95.658-95.653
				c52.75,0,95.664,42.911,95.664,95.653c0,13.181-2.648,25.967-7.873,38.007c-0.995,2.301-3.66,3.365-5.969,2.357
				c-2.298-0.998-3.353-3.669-2.356-5.967c4.727-10.895,7.122-22.469,7.122-34.397c0-47.738-38.843-86.578-86.589-86.578
				c-47.743,0-86.583,38.84-86.583,86.578c0,47.735,38.84,86.573,86.583,86.573c26.117,0,50.58-11.621,67.117-31.887
				c1.585-1.944,4.443-2.236,6.384-0.647c1.942,1.583,2.232,4.443,0.647,6.384C255.877,282.812,228.851,295.65,199.997,295.65z"/>
		</g>
		<g>
			<path fill="#161616" d="M199.997,321.203c-29.396,0-57.766-10.685-79.882-30.084c-1.883-1.654-2.071-4.52-0.418-6.405
				c1.65-1.882,4.518-2.068,6.403-0.419c20.46,17.949,46.704,27.833,73.897,27.833c61.831,0,112.133-50.299,112.133-112.125
				c0-61.829-50.302-112.131-112.133-112.131c-61.828,0-112.127,50.302-112.127,112.131c0,21.698,6.232,42.769,18.021,60.937
				c1.365,2.1,0.767,4.913-1.337,6.275c-2.097,1.371-4.911,0.765-6.276-1.335c-12.747-19.642-19.484-42.421-19.484-65.876
				c0-66.833,54.372-121.206,121.202-121.206c66.835,0,121.208,54.373,121.208,121.206
				C321.205,266.833,266.832,321.203,199.997,321.203z"/>
		</g>
		<g>
			<path fill="#161616" d="M226.811,156.994c-8.279,0-15.014-6.732-15.014-15.01c0-8.277,6.735-15.013,15.014-15.013
				c8.277,0,15.011,6.735,15.011,15.013C241.823,150.262,235.089,156.994,226.811,156.994z M226.811,136.047
				c-3.275,0-5.939,2.665-5.939,5.938c0,3.273,2.665,5.935,5.939,5.935c3.273,0,5.936-2.662,5.936-5.935
				C232.748,138.711,230.084,136.047,226.811,136.047z"/>
		</g>
		<g>
			<path fill="#161616" d="M277.932,264.467c-9.432,0-17.106-7.675-17.106-17.11c0-9.435,7.673-17.113,17.106-17.113
				s17.106,7.678,17.106,17.113C295.038,256.792,287.364,264.467,277.932,264.467z M277.932,239.319
				c-4.428,0-8.031,3.607-8.031,8.038c0,4.431,3.603,8.035,8.031,8.035s8.031-3.604,8.031-8.035
				C285.963,242.926,282.36,239.319,277.932,239.319z"/>
		</g>
		<g>
			<path fill="#161616" d="M112.066,296.652c-11.376,0-20.631-9.252-20.631-20.625c0-11.379,9.255-20.634,20.631-20.634
				c11.373,0,20.627,9.255,20.627,20.634C132.693,287.4,123.439,296.652,112.066,296.652z M112.066,264.467
				c-6.372,0-11.556,5.184-11.556,11.559c0,6.369,5.184,11.55,11.556,11.55c6.37,0,11.552-5.181,11.552-11.55
				C123.618,269.652,118.436,264.467,112.066,264.467z"/>
		</g>
	</g>
</g>
</svg>
