<?xml version="1.0" encoding="utf-8"?>
<!-- Generator: Adobe Illustrator 24.3.0, SVG Export Plug-In . SVG Version: 6.00 Build 0)  -->
<svg version="1.1" id="Layer_1" xmlns="http://www.w3.org/2000/svg" xmlns:xlink="http://www.w3.org/1999/xlink" x="0px" y="0px"
	 viewBox="0 0 400 400" enable-background="new 0 0 400 400" xml:space="preserve">
<g>
	<g>
		<g>
			<path fill="#FF7D5F" d="M194.466,200.001c0-34.093,27.395-61.752,61.373-62.252l-27.77-0.195l-6.478-27.503l-25.547,12.082
				l-17.769-21.969l-17.772,21.969l-25.549-12.082l-6.478,27.503l-28.257,0.198l6.096,27.591L80.94,177.787l17.464,22.215
				L80.94,222.213l25.374,12.443l-6.096,27.588l28.257,0.201l6.478,27.506l25.549-12.085l17.772,21.97l17.769-21.97l25.547,12.085
				l6.478-27.506l27.668-0.198C221.808,261.695,194.466,234.056,194.466,200.001z"/>
		</g>
		<g>
			<polygon fill="#FF9D8D" points="145.868,262.445 117.613,262.244 123.707,234.656 98.334,222.213 115.799,200.001 
				98.334,177.787 123.707,165.344 117.613,137.753 145.868,137.555 150.607,117.452 134.956,110.052 128.475,137.555 
				100.219,137.753 106.313,165.344 80.94,177.787 98.405,200.001 80.94,222.213 106.313,234.656 100.219,262.244 128.475,262.445 
				134.956,289.951 150.607,282.548 			"/>
		</g>
		<g>
			<path fill="#FFC67B" d="M319.061,200.001c0,34.403-27.891,62.299-62.296,62.299c-34.409,0-62.299-27.896-62.299-62.299
				c0-34.406,27.889-62.299,62.299-62.299C291.17,137.703,319.061,165.595,319.061,200.001z"/>
		</g>
		<g>
			<path fill="#FFD39F" d="M212.994,200.001c0-31.248,23.033-57.049,53.038-61.537c-3.031-0.452-6.109-0.762-9.264-0.762
				c-34.409,0-62.302,27.893-62.302,62.299c0,34.403,27.893,62.299,62.302,62.299c3.155,0,6.233-0.31,9.264-0.762
				C236.027,257.051,212.994,231.25,212.994,200.001z"/>
		</g>
		<g>
			<path fill="#FFDA88" d="M194.466,200.001c0-18.277,7.917-34.66,20.453-46.057c-10.06-8.017-22.78-12.838-36.644-12.838
				c-32.529,0-58.896,26.368-58.896,58.896c0,32.525,26.367,58.896,58.896,58.896c13.864,0,26.584-4.824,36.644-12.838
				C202.383,234.662,194.466,218.275,194.466,200.001z"/>
		</g>
		<g>
			<path fill="#FFE2A9" d="M131.331,200.001c0-30.469,23.135-55.528,52.797-58.579c-1.928-0.192-3.874-0.316-5.853-0.316
				c-32.529,0-58.896,26.368-58.896,58.896c0,32.525,26.367,58.896,58.896,58.896c1.979,0,3.926-0.124,5.853-0.316
				C154.466,255.529,131.331,230.467,131.331,200.001z"/>
		</g>
		<g>
			<path fill="#FFDA88" d="M239.836,168.987c0,4.691-3.805,8.499-8.499,8.499c-4.694,0-8.499-3.808-8.499-8.499
				c0-4.694,3.805-8.499,8.499-8.499C236.032,160.488,239.836,164.292,239.836,168.987z"/>
		</g>
		<g>
			<path fill="#FFE2A9" d="M228.929,168.987c0-3.619,2.269-6.685,5.453-7.914c-0.947-0.364-1.967-0.585-3.044-0.585
				c-4.694,0-8.499,3.805-8.499,8.499c0,4.691,3.805,8.499,8.499,8.499c1.077,0,2.097-0.222,3.044-0.588
				C231.197,175.671,228.929,172.602,228.929,168.987z"/>
		</g>
		<g>
			
				<ellipse transform="matrix(0.1602 -0.9871 0.9871 0.1602 55.637 443.1167)" fill="#FFDA88" cx="288.229" cy="188.862" rx="8.499" ry="8.499"/>
		</g>
		<g>
			<path fill="#FFE2A9" d="M285.82,188.862c0-3.619,2.269-6.685,5.453-7.914c-0.947-0.363-1.967-0.585-3.044-0.585
				c-4.694,0-8.499,3.805-8.499,8.499c0,4.691,3.805,8.499,8.499,8.499c1.077,0,2.097-0.222,3.044-0.588
				C288.089,195.547,285.82,192.477,285.82,188.862z"/>
		</g>
		<g>
			<path fill="#FFDA88" d="M256.811,220.308c0,7.031-5.703,12.738-12.737,12.738c-7.035,0-12.736-5.707-12.736-12.738
				c0-7.034,5.701-12.735,12.736-12.735C251.108,207.573,256.811,213.274,256.811,220.308z"/>
		</g>
		<g>
			<path fill="#FFE2A9" d="M237.766,220.308c0-5.917,4.053-10.845,9.524-12.277c-1.034-0.269-2.097-0.458-3.214-0.458
				c-7.037,0-12.738,5.702-12.738,12.735c0,7.031,5.701,12.738,12.738,12.738c1.117,0,2.18-0.189,3.214-0.461
				C241.819,231.155,237.766,226.222,237.766,220.308z"/>
		</g>
		<g>
			<path fill="#FFDA88" d="M306.38,237.56c-2.337-2.738-5.769-4.514-9.652-4.514c-7.035,0-12.737,5.701-12.737,12.735
				c0,3.276,1.272,6.233,3.306,8.49C294.759,250.061,301.233,244.351,306.38,237.56z"/>
		</g>
		<g>
			<path fill="#FFE2A9" d="M290.23,245.781c0-5.952,4.103-10.912,9.625-12.307c-1.002-0.26-2.038-0.428-3.125-0.428
				c-7.037,0-12.738,5.701-12.738,12.735c0,3.276,1.273,6.233,3.309,8.49c1.509-0.851,2.948-1.805,4.375-2.777
				C290.786,249.772,290.23,247.855,290.23,245.781z"/>
		</g>
		<g>
			<g>
				<path fill="#FF7D5F" d="M135.873,193.39c-0.312,0-0.628-0.033-0.944-0.1c-2.445-0.517-4.01-2.907-3.502-5.353
					c0.145-0.691,3.712-17.069,19.683-27.813c2.083-1.391,4.898-0.845,6.297,1.235c1.399,2.08,0.846,4.898-1.233,6.298
					c-12.806,8.611-15.835,22.014-15.865,22.147C139.848,191.931,137.965,193.39,135.873,193.39z"/>
			</g>
		</g>
	</g>
	<g>
		<g>
			<path fill="#161616" d="M256.765,266.838c-36.854,0-66.836-29.984-66.836-66.836c0-36.852,29.982-66.836,66.836-66.836
				c6.796,0,13.514,1.022,19.965,3.04c2.391,0.747,3.724,3.294,2.976,5.684c-0.749,2.39-3.291,3.722-5.685,2.978
				c-5.573-1.743-11.379-2.626-17.256-2.626c-31.849,0-57.761,25.91-57.761,57.761s25.912,57.761,57.761,57.761
				c31.847,0,57.757-25.91,57.757-57.761c0-17.828-8.09-34.391-22.194-45.446c-1.972-1.545-2.318-4.399-0.772-6.372
				c1.548-1.97,4.4-2.313,6.37-0.771c16.314,12.785,25.671,31.954,25.671,52.589C323.597,236.854,293.616,266.838,256.765,266.838z"
				/>
		</g>
		<g>
			<path fill="#161616" d="M169.319,262.681c-0.229,0-0.459-0.018-0.693-0.053c-31.166-4.768-53.785-31.107-53.785-62.627
				c0-34.977,28.457-63.433,63.433-63.433c14.472,0,28.121,4.783,39.473,13.828c1.04,0.827,1.663,2.071,1.706,3.4
				c0.044,1.329-0.498,2.612-1.481,3.507c-12.054,10.957-18.968,26.522-18.968,42.698s6.914,31.742,18.968,42.698
				c0.984,0.895,1.526,2.177,1.481,3.507c-0.043,1.329-0.668,2.573-1.707,3.4c-7.294,5.811-15.985,10.008-25.135,12.141
				c-2.43,0.567-4.882-0.951-5.449-3.391c-0.569-2.44,0.95-4.877,3.39-5.447c6.164-1.436,12.082-3.964,17.366-7.394
				c-11.491-12.333-17.989-28.631-17.989-45.514c0-16.886,6.501-33.192,17.999-45.525c-8.825-5.793-18.979-8.833-29.653-8.833
				c-29.974,0-54.358,24.386-54.358,54.358c0,27.006,19.38,49.573,46.084,53.658c2.477,0.378,4.177,2.694,3.799,5.17
				C173.455,261.074,171.522,262.681,169.319,262.681z"/>
		</g>
		<g>
			<path fill="#161616" d="M178.275,304.372c-1.369,0-2.666-0.617-3.527-1.684l-15.53-19.196l-22.323,10.558
				c-1.239,0.591-2.676,0.582-3.91-0.012c-1.235-0.594-2.134-1.716-2.447-3.049l-5.661-24.034l-24.69-0.174
				c-1.369-0.009-2.662-0.638-3.515-1.707c-0.854-1.072-1.179-2.473-0.883-3.808l5.326-24.105l-22.172-10.874
				c-1.229-0.603-2.121-1.728-2.425-3.063c-0.304-1.335,0.01-2.738,0.857-3.814l15.259-19.408L77.373,180.59
				c-0.846-1.075-1.161-2.478-0.857-3.814c0.304-1.335,1.197-2.461,2.425-3.063l22.172-10.874l-5.326-24.108
				c-0.296-1.335,0.029-2.736,0.883-3.808c0.854-1.069,2.146-1.699,3.515-1.708l24.692-0.174l5.66-24.029
				c0.313-1.332,1.213-2.455,2.447-3.049c1.233-0.591,2.669-0.597,3.908-0.015l22.324,10.558l15.53-19.196
				c0.861-1.066,2.158-1.684,3.527-1.684l0,0c1.371,0,2.666,0.62,3.529,1.684l15.525,19.196l22.323-10.558
				c1.236-0.582,2.675-0.576,3.908,0.015c1.235,0.594,2.134,1.713,2.447,3.049l5.66,24.032l24.204,0.168
				c2.486,0.018,4.496,2.033,4.505,4.52c0.009,2.487-1.984,4.517-4.471,4.555c-31.375,0.461-56.902,26.35-56.902,57.714
				c0,31.31,25.483,57.2,56.807,57.708c2.484,0.041,4.475,2.074,4.464,4.558c-0.012,2.484-2.019,4.499-4.505,4.517l-24.101,0.171
				l-5.661,24.034c-0.313,1.335-1.213,2.455-2.447,3.049c-1.233,0.594-2.671,0.603-3.91,0.012l-22.321-10.558l-15.525,19.196
				C180.941,303.752,179.646,304.372,178.275,304.372z M160.501,273.328c1.337,0,2.645,0.591,3.529,1.684l14.245,17.609
				l14.24-17.609c1.32-1.631,3.574-2.145,5.469-1.247l20.476,9.684l5.192-22.043c0.245-1.046,0.842-1.935,1.647-2.555
				c-21.004-11.323-35.371-33.559-35.371-58.848c0-25.308,14.361-47.537,35.366-58.854c-0.802-0.62-1.397-1.509-1.643-2.552
				l-5.192-22.043l-20.478,9.686c-1.888,0.889-4.151,0.378-5.468-1.25l-14.24-17.609l-14.245,17.609
				c-1.315,1.628-3.572,2.139-5.467,1.25l-20.478-9.686l-5.193,22.043c-0.48,2.038-2.291,3.483-4.384,3.498l-22.649,0.16
				l4.886,22.114c0.451,2.044-0.554,4.13-2.433,5.051l-20.339,9.973l13.998,17.807c1.294,1.646,1.294,3.962,0,5.607l-13.998,17.804
				l20.339,9.973c1.879,0.922,2.883,3.01,2.433,5.051l-4.886,22.114l22.649,0.16c2.093,0.015,3.904,1.459,4.384,3.498l5.193,22.046
				l20.476-9.686C159.184,273.47,159.846,273.328,160.501,273.328z"/>
		</g>
		<g>
			<path fill="#161616" d="M231.338,182.023c-7.189,0-13.036-5.849-13.036-13.036s5.848-13.036,13.036-13.036
				c7.189,0,13.036,5.849,13.036,13.036S238.526,182.023,231.338,182.023z M231.338,165.025c-2.185,0-3.962,1.778-3.962,3.962
				c0,2.183,1.777,3.961,3.962,3.961c2.185,0,3.961-1.778,3.961-3.961C235.299,166.803,233.522,165.025,231.338,165.025z"/>
		</g>
		<g>
			<path fill="#161616" d="M288.229,201.898c-7.189,0-13.036-5.849-13.036-13.036s5.848-13.036,13.036-13.036
				c7.189,0,13.036,5.849,13.036,13.036S295.418,201.898,288.229,201.898z M288.229,184.9c-2.185,0-3.961,1.778-3.961,3.961
				c0,2.183,1.777,3.961,3.961,3.961c2.184,0,3.961-1.778,3.961-3.961C292.19,186.678,290.413,184.9,288.229,184.9z"/>
		</g>
		<g>
			<path fill="#161616" d="M244.074,237.583c-9.525,0-17.274-7.749-17.274-17.275c0-9.524,7.749-17.273,17.274-17.273
				c9.526,0,17.274,7.749,17.274,17.273C261.348,229.835,253.6,237.583,244.074,237.583z M244.074,212.11
				c-4.521,0-8.199,3.678-8.199,8.198c0,4.523,3.678,8.201,8.199,8.201c4.521,0,8.199-3.678,8.199-8.201
				C252.273,215.788,248.595,212.11,244.074,212.11z"/>
		</g>
		<g>
			<path fill="#161616" d="M287.298,258.809c-1.253,0-2.487-0.517-3.372-1.501c-2.885-3.199-4.473-7.294-4.473-11.527
				c0-9.524,7.749-17.273,17.274-17.273c5.016,0,9.793,2.224,13.104,6.106c1.384,1.622,1.452,3.988,0.164,5.687
				c-5.601,7.388-12.487,13.417-20.47,17.922C288.827,258.616,288.059,258.809,287.298,258.809z M296.728,237.583
				c-4.521,0-8.199,3.678-8.199,8.198c0,0.812,0.118,1.551,0.312,2.216c4.099-2.747,7.815-6.006,11.109-9.737
				C298.946,237.817,297.858,237.583,296.728,237.583z"/>
		</g>
		<g>
			<g>
				<path fill="#161616" d="M135.873,193.39c-0.312,0-0.628-0.033-0.944-0.1c-2.445-0.517-4.01-2.907-3.502-5.353
					c0.145-0.691,3.712-17.069,19.683-27.813c2.083-1.391,4.898-0.845,6.297,1.235c1.399,2.08,0.846,4.898-1.233,6.298
					c-12.806,8.611-15.835,22.014-15.865,22.147C139.848,191.931,137.965,193.39,135.873,193.39z"/>
			</g>
		</g>
	</g>
</g>
</svg>
