<?xml version="1.0" encoding="utf-8"?>
<!-- Generator: Adobe Illustrator 24.3.0, SVG Export Plug-In . SVG Version: 6.00 Build 0)  -->
<svg version="1.1" id="Layer_1" xmlns="http://www.w3.org/2000/svg" xmlns:xlink="http://www.w3.org/1999/xlink" x="0px" y="0px"
	 viewBox="0 0 400 400" enable-background="new 0 0 400 400" xml:space="preserve">
<g>
	<g>
		<g>
			<path fill="#FF7D5F" d="M306.449,185.996c0,59.095-47.909,106.999-107.002,106.999c-59.094,0-106.997-47.903-106.997-106.999
				C92.45,126.904,140.353,79,199.447,79C258.539,79,306.449,126.904,306.449,185.996z"/>
		</g>
		<g>
			<path fill="#FF9D8D" d="M109.843,185.996c0-56.162,43.277-102.183,98.299-106.614c-2.871-0.23-5.765-0.381-8.695-0.381
				C140.353,79,92.45,126.904,92.45,185.996c0,59.095,47.903,106.999,106.997,106.999c2.93,0,5.824-0.151,8.695-0.381
				C153.121,288.183,109.843,242.161,109.843,185.996z"/>
		</g>
		<g>
			<path fill="#FFC67B" d="M321,130.492c0,3.905-3.161,7.071-7.066,7.071c-3.906,0-7.072-3.165-7.072-7.071
				c0-3.905,3.167-7.071,7.072-7.071C317.839,123.421,321,126.587,321,130.492z"/>
		</g>
		<g>
			<path fill="#FF7D5F" d="M93.138,250.255c0,3.905-3.161,7.071-7.066,7.071c-3.905,0-7.072-3.165-7.072-7.071
				c0-3.905,3.167-7.071,7.072-7.071C89.977,243.184,93.138,246.35,93.138,250.255z"/>
		</g>
		<g>
			<path fill="#FFC67B" d="M114.842,282.143c0,5.994-4.856,10.852-10.853,10.852c-5.991,0-10.848-4.858-10.848-10.852
				c0-5.994,4.857-10.852,10.848-10.852C109.985,271.291,114.842,276.149,114.842,282.143z"/>
		</g>
		<g>
			<path fill="#FFD39F" d="M100.783,282.143c0-4.644,2.929-8.574,7.028-10.124c-1.192-0.45-2.471-0.728-3.822-0.728
				c-5.991,0-10.848,4.858-10.848,10.852c0,5.994,4.857,10.852,10.848,10.852c1.351,0,2.63-0.278,3.822-0.728
				C103.712,290.717,100.783,286.787,100.783,282.143z"/>
		</g>
		<g>
			
				<ellipse transform="matrix(1 -0.0086 0.0086 1 -1.1193 1.2939)" fill="#FFC67B" cx="149.535" cy="130.492" rx="10.853" ry="10.852"/>
		</g>
		<g>
			
				<ellipse transform="matrix(1 -0.0081 0.0081 1 -1.6811 1.7872)" fill="#FFC67B" cx="220.549" cy="209.143" rx="10.853" ry="10.852"/>
		</g>
		<g>
			<g>
				<path fill="#FF7D5F" d="M199.996,325.537c-26.746,0-52.825-7.511-75.418-21.723c-2.121-1.334-2.759-4.134-1.424-6.257
					c1.335-2.122,4.139-2.756,6.257-1.424c21.143,13.299,45.552,20.328,70.585,20.328c41.941,0,81.892-20.173,106.872-53.964
					c1.489-2.018,4.325-2.44,6.345-0.951c2.015,1.489,2.44,4.331,0.951,6.346C287.483,303.987,244.802,325.537,199.996,325.537z"/>
			</g>
		</g>
		<g>
			<path fill="#FF9D8D" d="M129.405,302.179c21.143,13.299,45.552,20.329,70.585,20.329c41.941,0,81.892-20.174,106.872-53.964
				c1.489-2.018,4.325-2.44,6.345-0.951c0.254,0.189,0.485,0.402,0.691,0.63c0.083-0.112,0.177-0.217,0.26-0.331
				c1.489-2.015,1.063-4.857-0.951-6.346c-2.02-1.489-4.856-1.066-6.345,0.951c-24.98,33.79-64.931,53.964-106.872,53.964
				c-25.033,0-49.442-7.029-70.585-20.328c-2.118-1.332-4.922-0.699-6.257,1.424c-1.105,1.756-0.842,3.963,0.479,5.434
				C125.075,301.378,127.512,300.987,129.405,302.179z"/>
		</g>
		<g>
			<path fill="#FFC67B" d="M246.835,123.421c0,8.632-6.995,15.63-15.627,15.63s-15.627-6.998-15.627-15.63
				s6.995-15.629,15.627-15.629S246.835,114.789,246.835,123.421z"/>
		</g>
		<g>
			<path fill="#FFD39F" d="M225.663,123.421c0-6.856,4.443-12.618,10.584-14.723c-1.589-0.545-3.264-0.905-5.04-0.905
				c-8.632,0-15.627,6.997-15.627,15.629s6.995,15.63,15.627,15.63c1.775,0,3.45-0.361,5.04-0.905
				C230.106,136.041,225.663,130.278,225.663,123.421z"/>
		</g>
		<g>
			<path fill="#FFC67B" d="M149.535,212.67c0,8.632-6.995,15.63-15.627,15.63c-8.632,0-15.627-6.998-15.627-15.63
				s6.995-15.629,15.627-15.629C142.539,197.042,149.535,204.038,149.535,212.67z"/>
		</g>
		<g>
			<path fill="#FFC67B" d="M287.678,193.513c0,8.632,6.995,15.63,15.627,15.63c0.213,0,0.408-0.053,0.614-0.062
				c1.637-7.438,2.529-15.156,2.529-23.085c0-2.635-0.13-5.239-0.319-7.827c-0.916-0.168-1.855-0.285-2.824-0.285
				C294.674,177.884,287.678,184.881,287.678,193.513z"/>
		</g>
		<g>
			<path fill="#FFD39F" d="M297.187,193.513c0-6.307,3.755-11.708,9.134-14.178c-0.024-0.388-0.038-0.778-0.068-1.165
				c-0.916-0.168-1.855-0.285-2.824-0.285c-8.632,0-15.627,6.997-15.627,15.629c0,8.632,6.995,15.63,15.627,15.63
				c0.213,0,0.408-0.053,0.614-0.062c0.171-0.786,0.301-1.585,0.458-2.377C300.121,203.935,297.187,199.081,297.187,193.513z"/>
		</g>
		<g>
			<path fill="#FFC67B" d="M225.323,273.926c-8.632,0-15.627,6.997-15.627,15.629c0,1.004,0.112,1.981,0.295,2.932
				c10.599-1.019,20.738-3.591,30.209-7.474C238.244,278.613,232.366,273.926,225.323,273.926z"/>
		</g>
		<g>
			<path fill="#FFD39F" d="M218.803,289.555c0-7.062,4.712-12.96,11.143-14.897c-1.459-0.458-3.004-0.731-4.623-0.731
				c-8.632,0-15.627,6.997-15.627,15.629c0,1.004,0.112,1.981,0.295,2.932c3.037-0.292,6.023-0.746,8.978-1.286
				C218.907,290.654,218.803,290.119,218.803,289.555z"/>
		</g>
		<g>
			<path fill="#FF9D8D" d="M84.737,250.255c0-2.882,1.728-5.351,4.203-6.453c-0.88-0.39-1.846-0.617-2.868-0.617
				c-3.905,0-7.072,3.165-7.072,7.071c0,3.905,3.167,7.071,7.072,7.071c1.022,0,1.988-0.227,2.868-0.617
				C86.465,255.606,84.737,253.137,84.737,250.255z"/>
		</g>
		<g>
			<path fill="#FFD39F" d="M312.599,130.492c0-2.882,1.725-5.351,4.201-6.453c-0.88-0.39-1.843-0.617-2.865-0.617
				c-3.906,0-7.072,3.165-7.072,7.071c0,3.905,3.167,7.071,7.072,7.071c1.022,0,1.985-0.228,2.865-0.617
				C314.324,135.843,312.599,133.373,312.599,130.492z"/>
		</g>
		<g>
			<path fill="#FFD39F" d="M128.361,212.698c0-6.856,4.443-12.618,10.584-14.723c-1.589-0.545-3.264-0.905-5.04-0.905
				c-8.632,0-15.627,6.997-15.627,15.629c0,8.632,6.995,15.63,15.627,15.63c1.775,0,3.45-0.361,5.04-0.905
				C132.804,225.318,128.361,219.555,128.361,212.698z"/>
		</g>
		<g>
			<path fill="#FFD39F" d="M217.335,209.143c0-4.644,2.93-8.574,7.031-10.124c-1.193-0.45-2.473-0.728-3.823-0.728
				c-5.991,0-10.847,4.858-10.847,10.852c0,5.994,4.856,10.852,10.847,10.852c1.35,0,2.629-0.278,3.823-0.728
				C220.266,217.717,217.335,213.787,217.335,209.143z"/>
		</g>
		<g>
			<path fill="#FFD39F" d="M146.322,130.492c0-4.644,2.93-8.574,7.031-10.124c-1.193-0.45-2.473-0.728-3.823-0.728
				c-5.991,0-10.847,4.858-10.847,10.852c0,5.994,4.857,10.852,10.847,10.852c1.35,0,2.629-0.278,3.823-0.728
				C149.252,139.066,146.322,135.136,146.322,130.492z"/>
		</g>
	</g>
	<g>
		<g>
			<path fill="#161616" d="M199.447,297.532c-61.5,0-111.535-50.035-111.535-111.536c0-61.5,50.035-111.533,111.535-111.533
				c27.401,0,53.757,10.047,74.208,28.291c1.87,1.668,2.033,4.536,0.363,6.406c-1.666,1.867-4.538,2.035-6.405,0.365
				c-18.788-16.759-42.997-25.987-68.167-25.987c-56.497,0-102.46,45.963-102.46,102.458c0,56.497,45.963,102.461,102.46,102.461
				c56.498,0,102.464-45.964,102.464-102.461c0-22.011-6.889-42.995-19.919-60.686c-1.486-2.018-1.055-4.858,0.963-6.344
				c2.012-1.483,4.856-1.058,6.345,0.962c14.185,19.261,21.686,42.108,21.686,66.068
				C310.986,247.497,260.95,297.532,199.447,297.532z"/>
		</g>
		<g>
			<path fill="#161616" d="M313.934,142.1c-6.401,0-11.61-5.208-11.61-11.608c0-6.4,5.208-11.608,11.61-11.608
				c6.398,0,11.604,5.208,11.604,11.608C325.538,136.892,320.333,142.1,313.934,142.1z M313.934,127.959
				c-1.397,0-2.535,1.136-2.535,2.533c0,1.397,1.137,2.533,2.535,2.533c1.394,0,2.529-1.136,2.529-2.533
				C316.463,129.094,315.328,127.959,313.934,127.959z"/>
		</g>
		<g>
			<path fill="#161616" d="M86.072,261.863c-6.402,0-11.61-5.208-11.61-11.608c0-6.4,5.208-11.608,11.61-11.608
				c6.399,0,11.604,5.208,11.604,11.608C97.676,256.655,92.47,261.863,86.072,261.863z M86.072,247.722
				c-1.397,0-2.535,1.136-2.535,2.533c0,1.397,1.137,2.533,2.535,2.533c1.394,0,2.529-1.136,2.529-2.533
				C88.601,248.858,87.466,247.722,86.072,247.722z"/>
		</g>
		<g>
			<path fill="#161616" d="M103.99,297.532c-8.486,0-15.388-6.904-15.388-15.389c0-8.486,6.902-15.389,15.388-15.389
				c8.487,0,15.391,6.904,15.391,15.389C119.381,290.629,112.477,297.532,103.99,297.532z M103.99,275.829
				c-3.481,0-6.313,2.833-6.313,6.314c0,3.481,2.831,6.314,6.313,6.314c3.483,0,6.316-2.833,6.316-6.314
				C110.306,278.662,107.473,275.829,103.99,275.829z"/>
		</g>
		<g>
			<path fill="#161616" d="M149.533,145.881c-8.486,0-15.388-6.904-15.388-15.389c0-8.486,6.902-15.389,15.388-15.389
				c8.487,0,15.391,6.904,15.391,15.389C164.924,138.977,158.02,145.881,149.533,145.881z M149.533,124.177
				c-3.481,0-6.313,2.833-6.313,6.314c0,3.481,2.832,6.314,6.313,6.314c3.483,0,6.316-2.833,6.316-6.314
				C155.849,127.01,153.016,124.177,149.533,124.177z"/>
		</g>
		<g>
			<path fill="#161616" d="M220.549,224.532c-8.487,0-15.391-6.904-15.391-15.389c0-8.486,6.904-15.389,15.391-15.389
				c8.487,0,15.391,6.904,15.391,15.389C235.94,217.629,229.037,224.532,220.549,224.532z M220.549,202.829
				c-3.483,0-6.316,2.833-6.316,6.314s2.833,6.314,6.316,6.314c3.483,0,6.316-2.833,6.316-6.314S224.032,202.829,220.549,202.829z"
				/>
		</g>
		<g>
			<g>
				<path fill="#161616" d="M199.998,325.537c-26.745,0-52.824-7.511-75.419-21.723c-2.121-1.334-2.759-4.134-1.424-6.257
					c1.335-2.12,4.134-2.759,6.257-1.424c21.146,13.299,45.554,20.328,70.587,20.328c41.939,0,81.89-20.173,106.87-53.964
					c1.489-2.018,4.325-2.44,6.345-0.951c2.015,1.489,2.44,4.331,0.951,6.346C287.483,303.987,244.802,325.537,199.998,325.537z"/>
			</g>
		</g>
		<g>
			<path fill="#161616" d="M231.208,143.589c-11.119,0-20.165-9.047-20.165-20.168c0-11.119,9.045-20.166,20.165-20.166
				s20.165,9.047,20.165,20.166C251.372,134.542,242.327,143.589,231.208,143.589z M231.208,112.33
				c-6.115,0-11.09,4.976-11.09,11.091c0,6.116,4.975,11.093,11.09,11.093c6.115,0,11.09-4.976,11.09-11.093
				C242.297,117.306,237.323,112.33,231.208,112.33z"/>
		</g>
		<g>
			<path fill="#161616" d="M133.906,232.838c-11.119,0-20.165-9.047-20.165-20.167c0-0.18,0.018-0.436,0.043-0.648
				c0.21-2.351,2.14-4.091,4.601-4.131c2.505,0.046,4.501,2.112,4.456,4.619c-0.003,0.103-0.012,0.236-0.024,0.369
				c0.112,6.02,5.043,10.884,11.088,10.884c6.115,0,11.09-4.976,11.09-11.093c0-5.973-4.697-10.822-10.695-11.038
				c-2.504-0.09-4.461-2.193-4.371-4.699c0.089-2.502,2.114-4.455,4.699-4.371c10.902,0.393,19.442,9.224,19.442,20.107
				C154.071,223.791,145.025,232.838,133.906,232.838z"/>
		</g>
		<g>
			<path fill="#161616" d="M303.305,213.68c-11.119,0-20.165-9.047-20.165-20.168c0-11.119,9.046-20.166,20.165-20.166
				c1.134,0,2.328,0.118,3.645,0.36c2.029,0.374,3.554,2.071,3.704,4.131c0.224,3.091,0.331,5.684,0.331,8.158
				c0,8.019-0.886,16.113-2.635,24.06c-0.443,2.01-2.18,3.471-4.236,3.558C303.967,213.648,303.642,213.68,303.305,213.68z
				 M301.837,182.518c-5.424,0.721-9.622,5.376-9.622,10.995c0,5.065,3.412,9.348,8.056,10.672
				c1.09-6.037,1.639-12.138,1.639-18.188C301.911,184.884,301.887,183.739,301.837,182.518z"/>
		</g>
		<g>
			<path fill="#161616" d="M209.989,297.024c-2.154,0-4.038-1.526-4.452-3.679c-0.254-1.319-0.378-2.558-0.378-3.79
				c0-11.119,9.045-20.166,20.165-20.166c8.88,0,16.602,5.746,19.216,14.298c0.685,2.242-0.449,4.635-2.617,5.524
				c-10.073,4.13-20.67,6.752-31.497,7.793C210.278,297.017,210.133,297.024,209.989,297.024z M225.323,278.464
				c-5.371,0-9.864,3.839-10.877,8.917c6.62-0.962,13.125-2.57,19.432-4.808C231.834,280.019,228.732,278.464,225.323,278.464z"/>
		</g>
	</g>
</g>
</svg>
