<?xml version="1.0" encoding="utf-8"?>
<!-- Generator: Adobe Illustrator 24.3.0, SVG Export Plug-In . SVG Version: 6.00 Build 0)  -->
<svg version="1.1" id="Layer_1" xmlns="http://www.w3.org/2000/svg" xmlns:xlink="http://www.w3.org/1999/xlink" x="0px" y="0px"
	 viewBox="0 0 400 400" enable-background="new 0 0 400 400" xml:space="preserve">
<g>
	<g>
		<g>
			<path fill="#FFC67B" d="M311.055,190.604c0-7.618-0.786-15.051-2.248-22.238H91.193c-1.462,7.187-2.248,14.62-2.248,22.238
				c0,31.627,13.24,60.143,34.457,80.369h153.196C297.814,250.747,311.055,222.231,311.055,190.604z"/>
		</g>
		<g>
			<path fill="#FF7D5F" d="M105.107,307.71c0,7.031-5.701,12.738-12.738,12.738c-7.034,0-12.735-5.707-12.735-12.738
				c0-7.034,5.701-12.735,12.735-12.735C99.406,294.976,105.107,300.677,105.107,307.71z"/>
		</g>
		<g>
			<path fill="#FF7D5F" d="M162.112,228.99c0,7.031-5.701,12.738-12.738,12.738c-7.034,0-12.735-5.707-12.735-12.738
				c0-7.034,5.701-12.735,12.735-12.735C156.411,216.255,162.112,221.956,162.112,228.99z"/>
		</g>
		<g>
			<path fill="#FF7D5F" d="M320.366,270.973c0,5.243-4.254,9.5-9.5,9.5c-5.247,0-9.501-4.257-9.501-9.5c0-5.246,4.254-9.5,9.501-9.5
				C316.112,261.473,320.366,265.727,320.366,270.973z"/>
		</g>
		<g>
			<path fill="#FF9D8D" d="M306.659,270.973c0-4.322,2.904-7.929,6.854-9.081c-0.845-0.245-1.722-0.42-2.647-0.42
				c-5.247,0-9.501,4.254-9.501,9.5c0,5.243,4.254,9.5,9.501,9.5c0.924,0,1.802-0.174,2.647-0.419
				C309.563,278.899,306.659,275.292,306.659,270.973z"/>
		</g>
		<g>
			<path fill="#FFA180" d="M199.999,79.551c-32.081,0-60.966,13.622-81.241,35.372h162.484
				C260.968,93.173,232.08,79.551,199.999,79.551z"/>
		</g>
		<g>
			<path fill="#FFB27D" d="M118.758,114.924c-13.668,14.667-23.408,33.039-27.565,53.442h217.613
				c-4.156-20.404-13.896-38.775-27.565-53.442H118.758z"/>
		</g>
		<g>
			<path fill="#FFDA88" d="M276.598,270.973H123.402c19.928,19.001,46.89,30.687,76.597,30.687
				C229.708,301.66,256.67,289.974,276.598,270.973z"/>
		</g>
		<g>
			<path fill="#FFD39F" d="M111.978,168.366H90.803c-1.462,7.187-2.248,14.62-2.248,22.238c0,31.627,13.24,60.143,34.457,80.369
				h21.175c-21.216-20.227-34.457-48.742-34.457-80.369C109.73,182.986,110.516,175.554,111.978,168.366z"/>
		</g>
		<g>
			<path fill="#FFBFAB" d="M210.196,80.077c-3.486-0.331-7.013-0.526-10.588-0.526c-32.081,0-60.966,13.622-81.24,35.372h21.175
				C157.56,95.595,182.38,82.712,210.196,80.077z"/>
		</g>
		<g>
			<path fill="#FFC49C" d="M118.368,114.924c-13.668,14.667-23.408,33.039-27.565,53.442h21.175
				c4.156-20.404,13.896-38.775,27.565-53.442H118.368z"/>
		</g>
		<g>
			<path fill="#FFE2A9" d="M144.187,270.973h-21.175c19.928,19.001,46.89,30.687,76.597,30.687c3.571,0,7.102-0.177,10.588-0.508
				C184.696,298.736,161.719,287.691,144.187,270.973z"/>
		</g>
		<g>
			<path fill="#FFDA88" d="M305.79,224.452h-47.011c-2.505,0-4.537,2.033-4.537,4.537c0,2.505,2.032,4.538,4.537,4.538h43.632
				C303.657,230.561,304.801,227.542,305.79,224.452z"/>
		</g>
		<g>
			<path fill="#FFDA88" d="M221.974,224.455h-60.733c0.543,1.412,0.871,2.933,0.871,4.538c0,1.604-0.328,3.122-0.871,4.538h60.733
				c2.505,0,4.537-2.033,4.537-4.538S224.479,224.455,221.974,224.455z"/>
		</g>
		<g>
			<path fill="#FFDA88" d="M136.639,228.993c0-1.604,0.328-3.125,0.872-4.538H94.21c0.989,3.09,2.136,6.109,3.379,9.075h39.921
				C136.97,232.115,136.639,230.597,136.639,228.993z"/>
		</g>
		<g>
			<path fill="#FF9D8D" d="M86.062,307.71c0-5.917,4.053-10.844,9.524-12.277c-1.034-0.269-2.097-0.458-3.214-0.458
				c-7.037,0-12.738,5.701-12.738,12.735c0,7.031,5.701,12.738,12.738,12.738c1.117,0,2.18-0.189,3.214-0.461
				C90.115,318.558,86.062,313.625,86.062,307.71z"/>
		</g>
		<g>
			<path fill="#FF9D8D" d="M143.067,228.99c0-5.917,4.053-10.845,9.524-12.277c-1.034-0.269-2.098-0.458-3.214-0.458
				c-7.037,0-12.738,5.702-12.738,12.735c0,7.031,5.701,12.738,12.738,12.738c1.116,0,2.18-0.189,3.214-0.461
				C147.12,239.837,143.067,234.904,143.067,228.99z"/>
		</g>
	</g>
	<g>
		<g>
			<path fill="#161616" d="M92.369,324.986c-9.524,0-17.272-7.749-17.272-17.276c0-9.524,7.749-17.273,17.272-17.273
				c9.527,0,17.276,7.749,17.276,17.273C109.645,317.237,101.896,324.986,92.369,324.986z M92.369,299.513
				c-4.52,0-8.198,3.678-8.198,8.198c0,4.523,3.678,8.201,8.198,8.201c4.523,0,8.201-3.678,8.201-8.201
				C100.57,303.191,96.892,299.513,92.369,299.513z"/>
		</g>
		<g>
			<path fill="#161616" d="M149.374,246.265c-9.524,0-17.273-7.749-17.273-17.276c0-9.524,7.749-17.273,17.273-17.273
				c9.527,0,17.275,7.749,17.275,17.273C166.65,238.517,158.901,246.265,149.374,246.265z M149.374,220.792
				c-4.52,0-8.198,3.678-8.198,8.198c0,4.523,3.678,8.201,8.198,8.201c4.523,0,8.201-3.678,8.201-8.201
				C157.575,224.47,153.897,220.792,149.374,220.792z"/>
		</g>
		<g>
			<path fill="#161616" d="M310.866,285.011c-7.74,0-14.038-6.298-14.038-14.038s6.298-14.038,14.038-14.038
				c7.74,0,14.038,6.298,14.038,14.038S318.605,285.011,310.866,285.011z M310.866,266.011c-2.736,0-4.963,2.227-4.963,4.963
				s2.227,4.963,4.963,4.963c2.735,0,4.963-2.227,4.963-4.963S313.601,266.011,310.866,266.011z"/>
		</g>
		<g>
			<path fill="#161616" d="M281.242,119.461H118.758c-1.805,0-3.441-1.072-4.162-2.727c-0.718-1.657-0.39-3.583,0.842-4.904
				c10.907-11.701,23.863-20.868,38.512-27.246c2.298-0.999,4.975,0.056,5.97,2.348c1.001,2.298-0.05,4.972-2.348,5.97
				c-10.133,4.413-19.388,10.274-27.624,17.482h140.083c-19.305-16.823-44.279-26.297-70.033-26.297
				c-7.406,0-14.833,0.774-22.076,2.301c-2.455,0.511-4.856-1.052-5.376-3.504c-0.517-2.452,1.052-4.86,3.504-5.376
				c7.858-1.657,15.914-2.496,23.949-2.496c31.934,0,62.754,13.417,84.564,36.817c1.229,1.321,1.56,3.246,0.842,4.904
				C284.683,118.389,283.047,119.461,281.242,119.461z"/>
		</g>
		<g>
			<path fill="#161616" d="M308.807,172.904H91.193c-1.362,0-2.653-0.611-3.515-1.666c-0.86-1.055-1.202-2.443-0.931-3.778
				c4.236-20.797,14.159-40.034,28.69-55.628c0.86-0.922,2.062-1.445,3.32-1.445h162.484c1.258,0,2.461,0.523,3.32,1.445
				c14.531,15.595,24.454,34.832,28.69,55.628c0.272,1.335-0.071,2.724-0.931,3.778
				C311.459,172.292,310.168,172.904,308.807,172.904z M96.898,163.829h206.204c-4.266-16.439-12.437-31.653-23.857-44.367h-158.49
				C109.335,132.176,101.164,147.389,96.898,163.829z"/>
		</g>
		<g>
			<path fill="#161616" d="M276.598,275.511H123.402c-1.167,0-2.287-0.449-3.131-1.253c-23.128-22.049-35.863-51.759-35.863-83.654
				c0-7.728,0.786-15.515,2.34-23.142c0.428-2.115,2.289-3.633,4.446-3.633h217.613c2.156,0,4.017,1.518,4.446,3.633
				c1.554,7.628,2.34,15.415,2.34,23.142c0,31.895-12.735,61.604-35.863,83.654C278.885,275.062,277.765,275.511,276.598,275.511z
				 M125.239,266.436h149.521c20.492-20.182,31.756-47.041,31.756-75.831c0-5.899-0.499-11.837-1.483-17.701H94.966
				c-0.984,5.864-1.483,11.802-1.483,17.701C93.483,219.395,104.747,246.254,125.239,266.436z"/>
		</g>
		<g>
			<path fill="#161616" d="M199.999,306.198c-29.81,0-58.125-11.344-79.728-31.94c-1.341-1.282-1.77-3.25-1.081-4.972
				c0.688-1.722,2.357-2.851,4.213-2.851h153.196c1.855,0,3.524,1.129,4.213,2.851c0.688,1.722,0.26,3.69-1.081,4.972
				C258.126,294.854,229.811,306.198,199.999,306.198z M135.712,275.511c18.439,14.008,40.864,21.612,64.287,21.612
				c23.426,0,45.85-7.604,64.29-21.612H135.712z"/>
		</g>
		<g>
			<path fill="#161616" d="M305.79,224.452h-47.011c-2.505,0-4.537,2.033-4.537,4.537c0,2.505,2.032,4.538,4.537,4.538h43.632
				C303.657,230.561,304.801,227.542,305.79,224.452z"/>
		</g>
		<g>
			<path fill="#161616" d="M221.974,224.455h-60.733c0.543,1.412,0.871,2.933,0.871,4.538c0,1.604-0.328,3.122-0.871,4.538h60.733
				c2.505,0,4.537-2.033,4.537-4.538S224.479,224.455,221.974,224.455z"/>
		</g>
		<g>
			<path fill="#161616" d="M136.639,228.993c0-1.604,0.328-3.125,0.872-4.538H94.21c0.989,3.09,2.136,6.109,3.379,9.075h39.921
				C136.97,232.115,136.639,230.597,136.639,228.993z"/>
		</g>
	</g>
</g>
</svg>
