<?xml version="1.0" encoding="utf-8"?>
<!-- Generator: Adobe Illustrator 24.3.0, SVG Export Plug-In . SVG Version: 6.00 Build 0)  -->
<svg version="1.1" id="Layer_1" xmlns="http://www.w3.org/2000/svg" xmlns:xlink="http://www.w3.org/1999/xlink" x="0px" y="0px"
	 viewBox="0 0 400 400" enable-background="new 0 0 400 400" xml:space="preserve">
<g>
	<g>
		<g>
			<path fill="#8EC0D6" d="M249.889,101.986c-15.057-7.428-31.96-11.715-49.88-11.715c-28.253,0-54.021,10.433-73.838,27.554
				c-24.005,20.738-39.245,51.317-39.245,85.522c0,38.31,19.107,72.117,48.258,92.575c18.372,12.881,40.687,20.499,64.825,20.499
				c21.051,0,40.693-5.861,57.563-15.877c33.192-19.701,55.504-55.798,55.504-97.197
				C313.077,158.833,287.279,120.438,249.889,101.986z"/>
		</g>
		<g>
			<path fill="#A9D2E0" d="M160.719,295.923c-29.151-20.459-48.261-54.265-48.261-92.575c0-34.205,15.24-64.785,39.245-85.522
				c16.841-14.552,38.007-24.198,61.318-26.789c-4.272-0.5-8.611-0.765-13.013-0.765c-28.253,0-54.021,10.433-73.838,27.554
				c-24.005,20.738-39.245,51.317-39.245,85.522c0,38.31,19.107,72.117,48.258,92.575c18.372,12.881,40.687,20.499,64.825,20.499
				c4.348,0,8.62-0.301,12.836-0.792C193.598,313.457,175.818,306.51,160.719,295.923z"/>
		</g>
		<g>
			<path fill="#9AE8CE" d="M313.077,203.368c0-44.522-25.798-82.917-63.188-101.368c4.523,24.516,7.763,53.166-5.577,66.174
				c-36.078,35.173-11.27,49.172,1.229,71.826c13.27,24.048,12.44,40.63,12.032,60.567
				C290.764,280.857,313.077,244.758,313.077,203.368z"/>
		</g>
		<g>
			<path fill="#9AE8CE" d="M146.209,239.735c-9.876-16.451-18.188-32.328,11.435-72.703c13.302-18.142-9.536-33.101-31.473-49.191
				c-24.005,20.735-39.245,51.316-39.245,85.528c0,38.316,19.107,72.106,48.258,92.565
				C153.503,280.215,153.609,252.084,146.209,239.735z"/>
		</g>
		<g>
			<path fill="#AEF4DB" d="M145.308,282.931c-20.289-20.428-32.85-48.52-32.85-79.583c0-28.665,10.732-54.761,28.33-74.678
				c-4.635-3.585-9.639-7.174-14.617-10.827c-24.005,20.732-39.239,51.308-39.245,85.515c0.006,38.313,19.107,72.112,48.258,92.572
				c0,0.003,0.009,0.003,0.009,0.003C139.562,292.182,142.871,287.712,145.308,282.931z"/>
		</g>
		<g>
			<path fill="#8EC0D6" d="M117.35,94.43c0,5.994-4.859,10.852-10.853,10.852c-5.994,0-10.85-4.858-10.85-10.852
				c0-5.994,4.857-10.852,10.85-10.852C112.491,83.579,117.35,88.437,117.35,94.43z"/>
		</g>
		<g>
			<path fill="#A9D2E0" d="M105.265,94.43c0-4.258,2.473-7.904,6.041-9.682c-1.453-0.724-3.072-1.17-4.809-1.17
				c-5.994,0-10.85,4.858-10.85,10.852c0,5.994,4.857,10.852,10.85,10.852c1.737,0,3.356-0.446,4.809-1.17
				C107.738,102.334,105.265,98.689,105.265,94.43z"/>
		</g>
		<g>
			<path fill="#9AE8CE" d="M93.142,121.251c0,3.906-3.164,7.071-7.069,7.071c-3.905,0-7.072-3.165-7.072-7.071
				c0-3.905,3.167-7.071,7.072-7.071C89.978,114.18,93.142,117.345,93.142,121.251z"/>
		</g>
		<g>
			<path fill="#9AE8CE" d="M321,282.791c0,3.905-3.164,7.071-7.069,7.071c-3.905,0-7.072-3.165-7.072-7.071
				c0-3.905,3.167-7.071,7.072-7.071C317.836,275.72,321,278.885,321,282.791z"/>
		</g>
		<g>
			<path fill="#AEF4DB" d="M312.595,282.791c0-2.882,1.728-5.352,4.203-6.453c-0.88-0.39-1.846-0.617-2.868-0.617
				c-3.905,0-7.072,3.165-7.072,7.071c0,3.905,3.167,7.071,7.072,7.071c1.022,0,1.988-0.228,2.868-0.617
				C314.323,288.142,312.595,285.672,312.595,282.791z"/>
		</g>
		<g>
			<path fill="#AEF4DB" d="M84.737,121.251c0-2.882,1.728-5.351,4.204-6.453c-0.88-0.39-1.846-0.617-2.868-0.617
				c-3.905,0-7.072,3.165-7.072,7.071c0,3.906,3.167,7.071,7.072,7.071c1.022,0,1.988-0.228,2.868-0.617
				C86.465,126.602,84.737,124.132,84.737,121.251z"/>
		</g>
	</g>
	<g>
		<g>
			<path fill="#161616" d="M136.038,300.471c-0.91,0-1.821-0.272-2.607-0.823c-31.428-22.055-50.191-58.048-50.191-96.28
				c0-34.129,14.878-66.554,40.82-88.963c1.6-1.382,3.942-1.477,5.65-0.224l3.752,2.74c16.038,11.689,31.186,22.73,33.278,36.188
				c0.882,5.67-0.66,11.258-4.582,16.605c-28.508,38.857-20.103,52.861-11.203,67.686c0,0.001,0.001,0.001,0.001,0.003
				c8.545,14.259,8.128,44.735-11.963,61.974C138.147,300.103,137.094,300.471,136.038,300.471z M127.31,123.667
				c-22.284,20.562-34.996,49.407-34.996,79.701c0,34.049,16.135,66.177,43.342,86.677c13.479-14.152,13.722-37.619,7.514-47.979
				c-11.564-19.264-18.045-37.221,11.669-77.719c2.477-3.378,3.436-6.599,2.932-9.846c-1.512-9.735-15.821-20.162-29.656-30.247
				L127.31,123.667z"/>
		</g>
		<g>
			<path fill="#161616" d="M258.426,305.106c-0.789,0-1.579-0.205-2.285-0.617c-1.424-0.83-2.285-2.366-2.251-4.013l0.041-1.984
				c0.405-19.063,0.725-34.12-11.511-56.299c-2.319-4.205-5.168-8.212-7.924-12.087c-11.948-16.803-24.303-34.176,7.502-65.18
				c3.441-3.357,5.821-8.461,7.069-15.166c0.458-2.464,2.826-4.094,5.291-3.631c2.464,0.458,4.09,2.827,3.631,5.291
				c-1.597,8.582-4.846,15.312-9.656,20.004c-26.241,25.581-17.936,37.26-6.441,53.423c2.904,4.083,5.905,8.304,8.475,12.962
				c11.899,21.569,12.96,37.337,12.756,54.317c28.733-20.224,46.27-53.51,46.27-88.757c0-38.477-19.934-73.297-52.595-92.9
				c1.021,6.506,1.691,12.214,2.065,17.534c0.177,2.499-1.707,4.669-4.207,4.845c-2.517,0.191-4.669-1.709-4.845-4.207
				c-0.52-7.364-1.641-15.568-3.532-25.817c-0.312-1.688,0.356-3.408,1.725-4.441c1.369-1.038,3.208-1.207,4.746-0.451
				c40.535,20.005,65.717,60.407,65.717,105.437c0,41.215-22.119,79.955-57.724,101.101
				C260.029,304.893,259.228,305.106,258.426,305.106z"/>
		</g>
		<g>
			<path fill="#161616" d="M200.86,320.959c-9.72,0-19.435-1.217-28.875-3.616c-2.428-0.617-3.896-3.086-3.279-5.515
				c0.616-2.427,3.086-3.902,5.515-3.279c8.709,2.213,17.671,3.335,26.639,3.335c19.348,0,38.452-5.27,55.25-15.242
				c32.866-19.509,53.283-55.258,53.283-93.295c0-41.546-23.243-78.827-60.659-97.293c-15.128-7.462-31.237-11.246-47.874-11.246
				c-25.959,0-51.128,9.394-70.869,26.45c-23.944,20.686-37.676,50.606-37.676,82.09c0,35.284,17.32,68.504,46.331,88.86
				c4.828,3.385,10.023,6.421,15.438,9.023c2.258,1.086,3.21,3.796,2.124,6.056c-1.084,2.259-3.789,3.207-6.056,2.124
				c-5.858-2.815-11.484-6.105-16.717-9.772c-31.432-22.057-50.194-58.052-50.194-96.291c0-34.123,14.878-66.545,40.82-88.956
				c21.388-18.479,48.663-28.658,76.8-28.658c18.042,0,35.501,4.099,51.89,12.183c40.538,20.007,65.718,60.407,65.718,105.431
				c0,41.224-22.119,79.963-57.726,101.099C242.543,315.249,221.837,320.959,200.86,320.959z"/>
		</g>
		<g>
			<path fill="#161616" d="M106.497,109.82c-8.486,0-15.388-6.904-15.388-15.389s6.902-15.389,15.388-15.389
				c8.487,0,15.391,6.904,15.391,15.389S114.984,109.82,106.497,109.82z M106.497,88.116c-3.481,0-6.313,2.833-6.313,6.314
				s2.832,6.314,6.313,6.314c3.483,0,6.316-2.833,6.316-6.314S109.98,88.116,106.497,88.116z"/>
		</g>
		<g>
			<path fill="#161616" d="M86.073,132.859c-6.402,0-11.61-5.208-11.61-11.608c0-6.4,5.208-11.608,11.61-11.608
				c6.4,0,11.607,5.208,11.607,11.608C97.679,127.651,92.473,132.859,86.073,132.859z M86.073,118.717
				c-1.397,0-2.535,1.136-2.535,2.533c0,1.397,1.137,2.533,2.535,2.533c1.396,0,2.532-1.136,2.532-2.533
				C88.604,119.853,87.468,118.717,86.073,118.717z"/>
		</g>
		<g>
			<path fill="#161616" d="M313.93,294.399c-6.402,0-11.61-5.208-11.61-11.608c0-6.4,5.208-11.608,11.61-11.608
				c6.4,0,11.607,5.208,11.607,11.608C325.537,289.191,320.33,294.399,313.93,294.399z M313.93,280.257
				c-1.397,0-2.535,1.136-2.535,2.533c0,1.397,1.137,2.533,2.535,2.533c1.396,0,2.532-1.136,2.532-2.533
				C316.462,281.393,315.326,280.257,313.93,280.257z"/>
		</g>
	</g>
</g>
</svg>
