<?xml version="1.0" encoding="utf-8"?>
<!-- Generator: Adobe Illustrator 16.0.0, SVG Export Plug-In . SVG Version: 6.00 Build 0)  -->
<!DOCTYPE svg PUBLIC "-//W3C//DTD SVG 1.0//EN" "http://www.w3.org/TR/2001/REC-SVG-20010904/DTD/svg10.dtd">
<svg version="1.0" id="Layer_1" xmlns="http://www.w3.org/2000/svg" xmlns:xlink="http://www.w3.org/1999/xlink" x="0px" y="0px"
	 width="100px" height="100px" viewBox="0 0 100 100" enable-background="new 0 0 100 100" xml:space="preserve">
<path fill="#3F51B5" d="M10,40v13.333c0,18.408,14.925,33.334,33.333,33.334c18.405,0,33.334-14.926,33.334-33.334v-20
	C84.029,33.333,90,27.363,90,20v-6.667H56.663v6.67c0,7.363,5.971,13.333,13.337,13.33C70,37.016,67.016,40,63.333,40H10z"/>
<path fill="#E8EAF6" d="M18.008,61.641C21.512,72.285,31.529,80,43.333,80c11.804,0,21.823-7.715,25.326-18.359
	c-6.113,7.146-15.183,11.692-25.326,11.692C33.191,73.333,24.121,68.787,18.008,61.641z"/>
<path fill="#E8EAF6" d="M69.997,26.669l6.67-0.003c3.675,0,6.666-2.99,6.666-6.667L63.33,20.003
	C63.33,23.677,66.32,26.669,69.997,26.669z"/>
<path fill="#E8EAF6" d="M69.492,45.13c-1.846,0.969-3.936,1.537-6.159,1.537H17.546c2.97,11.48,13.389,20,25.787,20
	C56.282,66.667,67.093,57.386,69.492,45.13z"/>
<path fill="#3F51B5" d="M36.667,54.997c0,1.842-1.491,3.336-3.334,3.336c-1.842,0-3.333-1.494-3.333-3.336
	c0-1.836,1.491-3.33,3.333-3.33C35.176,51.667,36.667,53.161,36.667,54.997z"/>
</svg>
