<?xml version="1.0" encoding="utf-8"?>
<!-- Generator: Adobe Illustrator 16.0.0, SVG Export Plug-In . SVG Version: 6.00 Build 0)  -->
<!DOCTYPE svg PUBLIC "-//W3C//DTD SVG 1.0//EN" "http://www.w3.org/TR/2001/REC-SVG-20010904/DTD/svg10.dtd">
<svg version="1.0" id="Layer_1" xmlns="http://www.w3.org/2000/svg" xmlns:xlink="http://www.w3.org/1999/xlink" x="0px" y="0px"
	 width="100px" height="100px" viewBox="0 0 100 100" enable-background="new 0 0 100 100" xml:space="preserve">
<path fill="#4CAF50" d="M10,36.072l17.461-7.233c0.805-0.336,1.66-0.504,2.539-0.504c3.68,0,6.667,2.987,6.667,6.666v6.667l40,6.665
	C76.667,46.492,78.161,45,80,45c1.843,0,3.333,1.491,3.333,3.333V55h-60v6.668h48.655l-0.868,1.301
	c-0.615,0.926-3.207,2.563-5.114,2.764L10,71.629v6.705l56.702-5.971c3.646-0.383,8.132-2.945,9.965-5.695
	c1.832-2.752,3.333-5,3.333-5h6.667c1.842,0,3.333-1.492,3.333-3.334V48.333c0-5.521-4.477-10-10-10
	c-2.613,0-4.975,1.028-6.758,2.67l-29.909-4.984V35c0-7.363-5.97-13.334-13.333-13.334c-1.805,0-3.527,0.365-5.098,1.016L10,28.854
	V36.072z"/>
<path fill="#E8F5E9" d="M10,36.072l17.461-7.233c0.805-0.336,1.66-0.504,2.539-0.504c3.68,0,6.667,2.987,6.667,6.666v6.667l40,6.665
	C76.667,46.492,78.161,45,80,45c1.843,0,3.333,1.491,3.333,3.333V55h-60v6.668h48.655l-0.868,1.301
	c-0.615,0.926-3.207,2.563-5.114,2.764L10,71.629V36.072z"/>
<circle fill="#4CAF50" cx="26.667" cy="40" r="3.333"/>
</svg>
