<?xml version="1.0" encoding="utf-8"?>
<!-- Generator: Adobe Illustrator 24.3.0, SVG Export Plug-In . SVG Version: 6.00 Build 0)  -->
<svg version="1.1" id="Layer_1" xmlns="http://www.w3.org/2000/svg" xmlns:xlink="http://www.w3.org/1999/xlink" x="0px" y="0px"
	 viewBox="0 0 400 400" enable-background="new 0 0 400 400" xml:space="preserve">
<g>
	<g>
		<g>
			<path fill="#9AE8CE" d="M169.346,268.949c-5.43,5.426-14.221,5.423-19.651-0.003l-18.622-18.623
				c-5.427-5.43-5.429-14.218-0.003-19.65l60.896-60.896c5.427-5.427,14.222-5.427,19.646,0l18.628,18.625
				c5.427,5.427,5.427,14.221,0,19.651L169.346,268.949z"/>
		</g>
		<g>
			<path fill="#AEF4DB" d="M139.575,239.626l62.051-62.051c3.898-3.899,9.449-5.031,14.293-3.492l-4.307-4.307
				c-5.424-5.427-14.219-5.427-19.646,0l-60.896,60.896c-5.427,5.432-5.424,14.221,0.003,19.65l6.094,6.094
				C134.207,251.1,134.981,244.226,139.575,239.626z"/>
		</g>
		<g>
			
				<rect x="129.563" y="254.547" transform="matrix(0.7071 -0.7071 0.7071 0.7071 -146.9539 173.4548)" fill="#F4F4F4" width="12.676" height="19.139"/>
		</g>
		<g>
			<path fill="#9AE8CE" d="M226.243,140.26c-8.57,9.311-8.342,23.798,0.685,32.829c9.034,9.028,23.52,9.255,32.823,0.682
				L226.243,140.26z"/>
		</g>
		<g>
			<path fill="#AEF4DB" d="M232.199,146.215l-5.956-5.955c-8.57,9.311-8.342,23.798,0.685,32.829c1.019,1.016,2.112,1.905,3.253,2.7
				C223.933,166.805,224.595,154.478,232.199,146.215z"/>
		</g>
		<g>
			<path fill="#F4F4F4" d="M226.929,173.088c-2.366-2.369-3.958-5.495-5.391-8.319l-7.376,7.554l13.533,13.529l7.566-7.37
				C232.426,177.044,229.298,175.452,226.929,173.088z"/>
		</g>
		<g>
			
				<rect x="114.199" y="257.766" transform="matrix(0.7071 -0.7071 0.7071 0.7071 -158.5688 168.6445)" fill="#9AE8CE" width="20.173" height="35.927"/>
		</g>
		<g>
			<polygon fill="#9AE8CE" points="143.699,301.497 133.814,291.603 140.16,285.261 150.05,295.148 			"/>
		</g>
		<g>
			
				<rect x="102.152" y="251.097" transform="matrix(0.7072 -0.707 0.707 0.7072 -151.2464 150.9624)" fill="#9AE8CE" width="8.975" height="13.98"/>
		</g>
		<g>
			
				<rect x="199.354" y="236.453" transform="matrix(0.707 -0.7073 0.7073 0.707 -112.1809 216.1435)" fill="#9AE8CE" width="10.767" height="13.983"/>
		</g>
		<g>
			
				<rect x="151.194" y="188.293" transform="matrix(0.7072 -0.707 0.707 0.7072 -92.2209 167.8759)" fill="#9AE8CE" width="10.766" height="13.978"/>
		</g>
		<g>
			
				<rect x="83.396" y="243.462" transform="matrix(0.7071 -0.7071 0.7071 0.7071 -147.5525 142.0434)" fill="#8EC0D6" width="28.58" height="11.345"/>
		</g>
		<g>
			
				<rect x="136.594" y="296.66" transform="matrix(0.7071 -0.7071 0.7071 0.7071 -169.5888 195.2462)" fill="#8EC0D6" width="28.582" height="11.345"/>
		</g>
		<g>
			<path fill="#8EC0D6" d="M263.577,148.147c-3.235,3.235-8.472,3.238-11.707,0.003c-3.238-3.238-3.238-8.479,0-11.716
				c3.235-3.232,8.472-3.232,11.707,0C266.815,139.671,266.815,144.909,263.577,148.147z"/>
		</g>
		<g>
			<path fill="#8EC0D6" d="M251.87,148.15c-0.824-0.821-1.436-1.781-1.843-2.798l-9.347,9.347l4.635,4.632l9.347-9.341
				C253.649,149.58,252.691,148.974,251.87,148.15z"/>
		</g>
		<g>
			
				<rect x="215.916" y="238.133" transform="matrix(0.7072 -0.707 0.707 0.7072 -111.3815 232.6494)" fill="#E5E5E4" width="18.52" height="25.315"/>
		</g>
		<g>
			
				<rect x="233.815" y="256.036" transform="matrix(0.7071 -0.7071 0.7071 0.7071 -118.7985 250.5766)" fill="#F4F4F4" width="18.518" height="25.311"/>
		</g>
		<g>
			
				<rect x="202.822" y="251.231" transform="matrix(0.7071 -0.7071 0.7071 0.7071 -124.4803 227.2692)" fill="#F4F4F4" width="18.519" height="25.312"/>
		</g>
		<g>
			
				<rect x="220.719" y="269.13" transform="matrix(0.7072 -0.707 0.707 0.7072 -131.8897 245.1221)" fill="#E5E5E4" width="18.519" height="25.31"/>
		</g>
		<g>
			
				<rect x="189.729" y="264.326" transform="matrix(0.7072 -0.707 0.707 0.7072 -137.5688 221.8044)" fill="#E5E5E4" width="18.517" height="25.31"/>
		</g>
		<g>
			
				<rect x="207.627" y="282.223" transform="matrix(0.707 -0.7072 0.7072 0.707 -144.9937 239.7756)" fill="#F4F4F4" width="18.516" height="25.311"/>
		</g>
		<g>
			<polygon fill="#F4F4F4" points="240.671,253.194 222.775,235.29 235.871,222.203 253.77,240.099 			"/>
		</g>
		<g>
			
				<rect x="246.909" y="242.94" transform="matrix(0.7071 -0.7071 0.7071 0.7071 -105.7036 255.9972)" fill="#E5E5E4" width="18.521" height="25.312"/>
		</g>
		<g>
			
				<rect x="122.074" y="144.29" transform="matrix(0.7071 -0.7072 0.7072 0.7071 -72.5127 138.8509)" fill="#F4F4F4" width="18.519" height="25.312"/>
		</g>
		<g>
			
				<rect x="139.972" y="162.188" transform="matrix(0.7071 -0.7071 0.7071 0.7071 -79.9246 156.7348)" fill="#E5E5E4" width="18.518" height="25.311"/>
		</g>
		<g>
			
				<rect x="108.979" y="157.385" transform="matrix(0.7072 -0.707 0.707 0.7072 -85.6025 133.3937)" fill="#E5E5E4" width="18.518" height="25.311"/>
		</g>
		<g>
			
				<rect x="126.878" y="175.282" transform="matrix(0.707 -0.7072 0.7072 0.707 -93.022 151.3286)" fill="#F4F4F4" width="18.519" height="25.314"/>
		</g>
		<g>
			
				<rect x="95.883" y="170.481" transform="matrix(0.7071 -0.7071 0.7071 0.7071 -98.7006 127.9859)" fill="#F4F4F4" width="18.521" height="25.31"/>
		</g>
		<g>
			
				<rect x="113.781" y="188.377" transform="matrix(0.7071 -0.7071 0.7071 0.7071 -106.1148 145.8864)" fill="#E5E5E4" width="18.521" height="25.314"/>
		</g>
		<g>
			
				<rect x="135.168" y="131.196" transform="matrix(0.7071 -0.7071 0.7071 0.7071 -59.4165 144.259)" fill="#E5E5E4" width="18.519" height="25.312"/>
		</g>
		<g>
			
				<rect x="153.066" y="149.094" transform="matrix(0.7071 -0.7071 0.7071 0.7071 -66.8302 162.1571)" fill="#F4F4F4" width="18.519" height="25.312"/>
		</g>
		<g>
			
				<rect x="154.082" y="207.991" transform="matrix(0.707 -0.7072 0.7072 0.707 -102.2037 192.0177)" fill="#8EC0D6" width="53.142" height="22.745"/>
		</g>
		<g>
			<g>
				<path fill="#8EC0D6" d="M280.593,141.001c-1.834,0-3.562-1.12-4.248-2.939c-4.322-11.491-13.949-14.274-14.047-14.301
					c-2.414-0.668-3.831-3.167-3.161-5.583c0.668-2.414,3.155-3.835,5.583-3.161c0.576,0.159,14.189,4.085,20.12,19.848
					c0.88,2.346-0.304,4.963-2.65,5.846C281.665,140.909,281.124,141.001,280.593,141.001z"/>
			</g>
		</g>
		<g>
			<g>
				<path fill="#8EC0D6" d="M298.202,139.119c-1.834,0-3.562-1.12-4.248-2.939c-9.042-24.049-29.559-29.969-29.762-30.028
					c-2.416-0.668-3.834-3.167-3.164-5.58c0.668-2.419,3.17-3.835,5.58-3.164c1.025,0.28,25.189,7.255,35.842,35.576
					c0.88,2.346-0.304,4.963-2.65,5.846C299.274,139.028,298.734,139.119,298.202,139.119z"/>
			</g>
		</g>
		<g>
			<g>
				<path fill="#8EC0D6" d="M316.426,138.549c-1.834,0-3.562-1.12-4.248-2.939c-14.271-37.949-47.1-47.591-47.431-47.685
					c-2.408-0.676-3.817-3.179-3.146-5.586c0.674-2.411,3.155-3.831,5.574-3.155c1.527,0.419,37.547,10.815,53.498,53.23
					c0.88,2.346-0.304,4.963-2.65,5.846C317.498,138.458,316.958,138.549,316.426,138.549z"/>
			</g>
		</g>
		<g>
			<polygon fill="#F9F9F9" points="124.654,261.832 133.616,252.867 137.415,256.668 128.426,265.604 			"/>
		</g>
		<g>
			<polygon fill="#AEF4DB" points="98.525,256.317 102.232,260.024 108.2,253.301 104.87,249.971 			"/>
		</g>
		<g>
			<polygon fill="#AEF4DB" points="104.451,270.16 109.003,274.712 123.126,260.305 118.716,255.894 			"/>
		</g>
		<g>
			
				<rect x="80.815" y="244.53" transform="matrix(0.7071 -0.7071 0.7071 0.7071 -146.4832 139.4627)" fill="#A9D2E0" width="28.581" height="4.045"/>
		</g>
		<g>
			<path fill="#F9F9F9" d="M214.161,172.323l5.184,5.184l6.106-6.118c0,0-2.948-3.433-3.914-6.62L214.161,172.323z"/>
		</g>
	</g>
	<g>
		<g>
			<path fill="#161616" d="M159.524,277.545c-4.722,0-9.441-1.796-13.035-5.391l-18.626-18.623
				c-7.181-7.187-7.183-18.88-0.003-26.067l60.897-60.896c3.483-3.483,8.112-5.4,13.035-5.4c4.924,0,9.551,1.917,13.031,5.4
				l18.629,18.626c7.184,7.184,7.184,18.877,0,26.067l-60.897,60.896l0,0C168.961,275.749,164.242,277.545,159.524,277.545z
				 M169.346,268.949h0.03H169.346z M201.792,170.244c-2.501,0-4.851,0.975-6.619,2.741l-60.896,60.896
				c-3.644,3.648-3.642,9.586,0.003,13.234l18.624,18.623c3.647,3.645,9.583,3.648,13.233,0.003l60.897-60.896
				c3.645-3.648,3.648-9.586,0-13.234l-18.628-18.626C206.64,171.218,204.29,170.244,201.792,170.244z"/>
		</g>
		<g>
			<path fill="#161616" d="M138.185,279.902c-1.161,0-2.322-0.443-3.208-1.329l-13.531-13.533c-1.772-1.772-1.772-4.644-0.001-6.416
				l8.963-8.966c1.704-1.702,4.716-1.702,6.418,0l13.534,13.536c0.851,0.851,1.329,2.006,1.329,3.208
				c0,1.205-0.478,2.357-1.329,3.208l-8.966,8.963C140.507,279.459,139.346,279.902,138.185,279.902z M131.07,261.832l7.115,7.116
				l2.548-2.546l-7.116-7.119L131.07,261.832z"/>
		</g>
		<g>
			<path fill="#161616" d="M243.705,184.6c-7.232,0-14.454-2.78-19.981-8.304c-10.747-10.75-11.104-27.931-0.815-39.109
				c0.836-0.91,2.009-1.439,3.244-1.465c1.279-0.033,2.428,0.458,3.303,1.329l33.508,33.511c0.874,0.874,1.353,2.065,1.329,3.3
				c-0.027,1.238-0.555,2.408-1.462,3.247C257.397,182.113,250.547,184.6,243.705,184.6z M226.799,147.231
				c-3.941,7.291-2.792,16.513,3.341,22.649c6.139,6.133,15.358,7.291,22.646,3.338L226.799,147.231z"/>
		</g>
		<g>
			<path fill="#161616" d="M226.932,173.088c-2.367-2.369-4.239-5.034-5.672-7.858l-7.096,7.093l13.533,13.529l7.096-7.093
				C231.96,177.321,229.301,175.452,226.932,173.088z"/>
		</g>
		<g>
			<path fill="#161616" d="M129.854,300.102c-1.161,0-2.322-0.443-3.208-1.329l-2.697-2.697c-1.772-1.772-1.772-4.644,0-6.416
				c1.597-1.601,4.087-1.752,5.865-0.473l7.889-7.887l-18.987-18.989l-7.849,7.849l3.753,3.755c1.772,1.772,1.772,4.644,0,6.416
				c-1.772,1.772-4.644,1.772-6.416,0l-6.963-6.963c-0.851-0.851-1.329-2.006-1.329-3.208c0-1.202,0.479-2.357,1.329-3.208
				l14.267-14.265c1.772-1.773,4.644-1.773,6.416,0l25.404,25.405c1.773,1.772,1.773,4.644,0,6.416l-14.265,14.265
				C132.176,299.659,131.015,300.102,129.854,300.102z"/>
		</g>
		<g>
			
				<rect x="137.443" y="286.384" transform="matrix(0.7073 -0.7069 0.7069 0.7073 -165.8455 186.1935)" fill="#161616" width="8.976" height="13.986"/>
		</g>
		<g>
			
				<rect x="102.151" y="251.097" transform="matrix(0.7072 -0.707 0.707 0.7072 -151.2465 150.9621)" fill="#161616" width="8.977" height="13.979"/>
		</g>
		<g>
			<path fill="#161616" d="M205.878,256.73c-1.161,0-2.322-0.443-3.208-1.329l-9.89-9.884c-0.851-0.851-1.329-2.003-1.329-3.208
				c0-1.202,0.477-2.357,1.328-3.208l7.613-7.616c1.701-1.699,4.719-1.702,6.418,0l9.89,9.89c0.851,0.851,1.329,2.006,1.329,3.208
				c0,1.205-0.479,2.357-1.329,3.208l-7.613,7.61C208.2,256.287,207.039,256.73,205.878,256.73z M202.405,242.306l3.473,3.471
				l1.196-1.193l-3.474-3.474L202.405,242.306z"/>
		</g>
		<g>
			<path fill="#161616" d="M157.711,208.57L157.711,208.57c-1.204,0-2.359-0.479-3.21-1.329l-9.883-9.887
				c-1.771-1.772-1.771-4.647,0.001-6.416l7.613-7.61c1.772-1.772,4.644-1.772,6.416,0l9.884,9.882
				c0.851,0.851,1.329,2.003,1.329,3.208c0,1.202-0.477,2.357-1.329,3.208l-7.614,7.616
				C160.069,208.091,158.915,208.57,157.711,208.57z M154.245,194.145l3.467,3.468l1.196-1.196l-3.467-3.465L154.245,194.145z"/>
		</g>
		<g>
			<path fill="#161616" d="M91.592,267.788L91.592,267.788c-1.204,0-2.357-0.479-3.208-1.329l-8.022-8.023
				c-1.772-1.773-1.772-4.644,0-6.416l20.21-20.209c0.851-0.851,2.004-1.329,3.208-1.329l0,0c1.204,0,2.357,0.479,3.208,1.329
				l8.022,8.023c1.772,1.772,1.772,4.644,0,6.416L94.8,266.458C93.949,267.309,92.795,267.788,91.592,267.788z M89.986,255.227
				l1.606,1.607l13.794-13.793l-1.605-1.607L89.986,255.227z"/>
		</g>
		<g>
			<path fill="#161616" d="M144.79,320.985c-1.161,0-2.322-0.443-3.208-1.329l-8.02-8.02c-1.773-1.772-1.773-4.644,0-6.416
				l20.209-20.212c1.702-1.702,4.715-1.702,6.416,0l8.022,8.023c1.772,1.773,1.772,4.644,0,6.416l-20.21,20.209
				C147.112,320.542,145.951,320.985,144.79,320.985z M143.186,308.427l1.604,1.604l13.794-13.793l-1.606-1.607L143.186,308.427z"/>
		</g>
		<g>
			<path fill="#161616" d="M257.725,155.104c-3.282,0-6.564-1.247-9.06-3.746c-2.422-2.422-3.758-5.642-3.758-9.066
				c0-3.424,1.335-6.644,3.758-9.066c4.998-4.993,13.125-4.99,18.123-0.003c4.998,5.001,4.998,13.134,0,18.132
				C264.289,153.854,261.007,155.104,257.725,155.104z M257.728,138.549c-0.96,0-1.917,0.366-2.647,1.096
				c-1.459,1.459-1.459,3.834,0,5.297c1.459,1.453,3.832,1.456,5.291-0.003c1.459-1.459,1.459-3.837,0-5.297
				C259.642,138.915,258.685,138.549,257.728,138.549z"/>
		</g>
		<g>
			<path fill="#161616" d="M251.873,148.15c-0.824-0.821-1.436-1.781-1.843-2.798l-9.347,9.347l4.635,4.632l9.347-9.341
				C253.652,149.58,252.694,148.974,251.873,148.15z"/>
		</g>
		<g>
			<path fill="#161616" d="M227.582,270.827c-1.202,0-2.357-0.479-3.208-1.329l-17.899-17.902c-1.773-1.772-1.773-4.644,0-6.416
				l13.096-13.099c0.851-0.851,2.006-1.329,3.208-1.329l0,0c1.205,0,2.357,0.479,3.208,1.329l17.896,17.905
				c1.773,1.772,1.773,4.644,0,6.416l-13.092,13.095C229.939,270.349,228.784,270.827,227.582,270.827z M216.099,248.388
				l11.483,11.486l6.676-6.679l-11.48-11.485L216.099,248.388z"/>
		</g>
		<g>
			<path fill="#161616" d="M245.478,288.723c-1.161,0-2.322-0.443-3.208-1.329l-17.896-17.896c-1.772-1.772-1.772-4.644,0-6.416
				l13.093-13.095c1.702-1.702,4.715-1.702,6.416,0l17.899,17.899c0.851,0.851,1.329,2.006,1.329,3.208
				c0,1.202-0.479,2.357-1.329,3.208l-13.095,13.092C247.799,288.28,246.638,288.723,245.478,288.723z M233.998,266.29l11.48,11.48
				l6.679-6.676l-11.483-11.483L233.998,266.29z"/>
		</g>
		<g>
			<path fill="#161616" d="M214.486,283.92c-1.161,0-2.322-0.443-3.208-1.329l-17.9-17.896c-0.851-0.851-1.329-2.003-1.329-3.208
				c0-1.202,0.479-2.357,1.329-3.208l13.097-13.098c1.702-1.702,4.715-1.702,6.416,0l17.899,17.902
				c0.851,0.851,1.329,2.006,1.329,3.208c0,1.205-0.479,2.357-1.329,3.208l-13.095,13.093
				C216.808,283.477,215.647,283.92,214.486,283.92z M203.004,261.486l11.483,11.48l6.679-6.676l-11.483-11.486L203.004,261.486z"/>
		</g>
		<g>
			<path fill="#161616" d="M232.382,301.819L232.382,301.819c-1.202,0-2.357-0.479-3.208-1.329l-17.896-17.899
				c-0.851-0.851-1.329-2.006-1.329-3.208c0-1.205,0.479-2.357,1.329-3.208l13.095-13.093c1.772-1.772,4.644-1.772,6.416,0
				l17.896,17.896c1.772,1.772,1.772,4.644,0,6.416l-13.096,13.095C234.739,301.34,233.584,301.819,232.382,301.819z
				 M220.902,279.382l11.48,11.483l6.679-6.679l-11.48-11.48L220.902,279.382z"/>
		</g>
		<g>
			<path fill="#161616" d="M201.389,297.015L201.389,297.015c-1.204,0-2.357-0.479-3.208-1.329l-17.896-17.899
				c-1.772-1.772-1.772-4.644,0-6.416l13.092-13.092c1.773-1.772,4.644-1.772,6.416,0l17.9,17.896
				c0.851,0.851,1.329,2.006,1.329,3.208s-0.479,2.357-1.329,3.208l-13.097,13.095C203.747,296.537,202.593,297.015,201.389,297.015
				z M189.91,274.579l11.48,11.482l6.681-6.679l-11.484-11.48L189.91,274.579z"/>
		</g>
		<g>
			<path fill="#161616" d="M219.292,314.911c-1.161,0-2.322-0.443-3.208-1.329l-17.903-17.896c-0.851-0.851-1.329-2.003-1.329-3.208
				c0-1.202,0.479-2.357,1.329-3.208l13.097-13.095c0.851-0.851,2.006-1.329,3.208-1.329l0,0c1.202,0,2.357,0.479,3.208,1.329
				l17.896,17.899c1.773,1.772,1.773,4.644,0,6.416l-13.09,13.092C221.614,314.468,220.453,314.911,219.292,314.911z
				 M207.807,292.478l11.485,11.48l6.673-6.676l-11.48-11.483L207.807,292.478z"/>
		</g>
		<g>
			<path fill="#161616" d="M240.674,257.732L240.674,257.732c-1.205,0-2.357-0.479-3.208-1.329l-17.896-17.905
				c-0.851-0.851-1.329-2.006-1.329-3.208c0-1.205,0.479-2.36,1.329-3.208l13.095-13.087c1.772-1.772,4.644-1.772,6.416,0
				l17.899,17.896c0.851,0.851,1.329,2.006,1.329,3.208s-0.478,2.357-1.329,3.208l-13.099,13.095
				C243.032,257.253,241.876,257.732,240.674,257.732z M229.195,235.293l11.48,11.486l6.682-6.679l-11.483-11.48L229.195,235.293z"
				/>
		</g>
		<g>
			<path fill="#161616" d="M258.573,275.631c-1.161,0-2.322-0.443-3.208-1.329l-17.899-17.899c-0.851-0.851-1.329-2.006-1.329-3.208
				s0.479-2.357,1.329-3.208l13.098-13.095c1.772-1.773,4.644-1.773,6.416,0l17.896,17.899c1.772,1.772,1.772,4.644,0,6.416
				l-13.096,13.095C260.895,275.188,259.734,275.631,258.573,275.631z M247.09,253.194l11.482,11.483l6.679-6.679l-11.48-11.483
				L247.09,253.194z"/>
		</g>
		<g>
			<path fill="#161616" d="M133.735,176.979c-1.161,0-2.322-0.443-3.208-1.329l-17.899-17.896c-0.851-0.851-1.329-2.006-1.329-3.208
				s0.479-2.357,1.329-3.208l13.096-13.096c0.851-0.851,2.004-1.329,3.208-1.329l0,0c1.204,0,2.357,0.479,3.208,1.329l17.897,17.899
				c0.851,0.851,1.329,2.006,1.329,3.208s-0.479,2.357-1.329,3.208l-13.094,13.092C136.057,176.536,134.896,176.979,133.735,176.979
				z M122.254,154.545l11.481,11.48l6.678-6.676l-11.481-11.483L122.254,154.545z"/>
		</g>
		<g>
			<path fill="#161616" d="M151.633,194.878c-1.204,0-2.357-0.479-3.208-1.329l-17.899-17.899c-0.851-0.851-1.329-2.006-1.329-3.208
				s0.479-2.357,1.329-3.208l13.094-13.093c1.773-1.772,4.644-1.772,6.416,0l17.899,17.896c0.851,0.851,1.329,2.006,1.329,3.208
				c0,1.202-0.479,2.357-1.329,3.208l-13.094,13.096C153.991,194.399,152.837,194.878,151.633,194.878z M140.152,172.441
				l11.481,11.482l6.676-6.679l-11.481-11.48L140.152,172.441z"/>
		</g>
		<g>
			<path fill="#161616" d="M120.639,190.074L120.639,190.074c-1.204,0-2.357-0.479-3.208-1.329l-17.897-17.899
				c-0.851-0.851-1.329-2.006-1.329-3.208c0-1.202,0.479-2.357,1.329-3.208l13.094-13.092c1.772-1.773,4.644-1.773,6.416,0
				l17.899,17.896c0.851,0.851,1.329,2.006,1.329,3.208s-0.479,2.357-1.329,3.208l-13.096,13.095
				C122.996,189.596,121.843,190.074,120.639,190.074z M109.158,167.638l11.481,11.483l6.678-6.679l-11.481-11.48L109.158,167.638z"
				/>
		</g>
		<g>
			<path fill="#161616" d="M138.539,207.973c-1.204,0-2.357-0.479-3.208-1.329l-17.9-17.899c-0.851-0.851-1.329-2.006-1.329-3.208
				c0-1.202,0.479-2.357,1.329-3.208l13.096-13.095c1.772-1.773,4.644-1.773,6.416,0l17.899,17.899c1.772,1.772,1.772,4.644,0,6.416
				l-13.094,13.096C140.897,207.495,139.743,207.973,138.539,207.973z M127.057,185.537l11.483,11.483l6.678-6.679l-11.483-11.483
				L127.057,185.537z"/>
		</g>
		<g>
			<path fill="#161616" d="M107.544,203.17c-1.161,0-2.322-0.443-3.208-1.329L86.44,183.945c-1.772-1.772-1.772-4.644-0.002-6.416
				l13.094-13.098c1.702-1.701,4.716-1.701,6.418,0l17.897,17.899c1.772,1.772,1.772,4.644,0,6.416l-13.096,13.096
				C109.866,202.727,108.705,203.17,107.544,203.17z M96.064,180.736l11.48,11.48l6.679-6.679l-11.481-11.483L96.064,180.736z"/>
		</g>
		<g>
			<path fill="#161616" d="M125.444,221.069c-1.161,0-2.322-0.443-3.208-1.329l-17.9-17.899c-0.851-0.851-1.329-2.006-1.329-3.208
				c0-1.202,0.479-2.357,1.329-3.208l13.095-13.096c1.773-1.772,4.644-1.772,6.416,0l17.9,17.899
				c0.851,0.851,1.329,2.006,1.329,3.208s-0.479,2.357-1.329,3.208l-13.095,13.095C127.766,220.626,126.605,221.069,125.444,221.069
				z M113.961,198.632l11.482,11.482l6.678-6.679l-11.482-11.482L113.961,198.632z"/>
		</g>
		<g>
			<path fill="#161616" d="M146.829,163.886L146.829,163.886c-1.204,0-2.357-0.479-3.208-1.329l-17.897-17.899
				c-1.772-1.773-1.772-4.644,0-6.416l13.094-13.095c1.702-1.701,4.715-1.701,6.416,0l17.899,17.899
				c1.772,1.772,1.772,4.644,0,6.416l-13.096,13.096C149.186,163.408,148.032,163.886,146.829,163.886z M135.348,141.45
				l11.481,11.483l6.679-6.679l-11.483-11.483L135.348,141.45z"/>
		</g>
		<g>
			<path fill="#161616" d="M164.727,181.782c-1.161,0-2.322-0.443-3.208-1.329l-17.899-17.896c-0.851-0.851-1.329-2.006-1.329-3.208
				s0.479-2.357,1.329-3.208l13.096-13.095c1.772-1.773,4.644-1.773,6.416,0l17.899,17.899c0.851,0.851,1.329,2.006,1.329,3.208
				s-0.479,2.357-1.329,3.208l-13.095,13.092C167.049,181.339,165.888,181.782,164.727,181.782z M153.246,159.349l11.481,11.48
				l6.678-6.676l-11.481-11.482L153.246,159.349z"/>
		</g>
		<g>
			<path fill="#161616" d="M169.909,250.731c-1.161,0-2.322-0.443-3.208-1.329l-16.087-16.082c-0.851-0.851-1.329-2.003-1.329-3.208
				c0-1.202,0.479-2.357,1.329-3.208l37.579-37.579c0.851-0.851,2.004-1.329,3.208-1.329l0,0c1.204,0,2.357,0.479,3.208,1.329
				l16.083,16.085c0.851,0.851,1.329,2.006,1.329,3.208s-0.479,2.357-1.329,3.208l-14.013,14.011c-1.772,1.772-4.644,1.772-6.416,0
				c-1.772-1.773-1.772-4.644,0-6.416l10.805-10.803l-9.667-9.669l-31.161,31.163l9.669,9.666l4.595-4.594
				c1.772-1.772,4.644-1.772,6.416,0c1.772,1.772,1.772,4.644,0,6.416l-7.803,7.802C172.231,250.288,171.07,250.731,169.909,250.731
				z"/>
		</g>
		<g>
			<g>
				<path fill="#161616" d="M280.596,141.001c-1.835,0-3.563-1.12-4.248-2.939c-4.322-11.491-13.949-14.274-14.047-14.301
					c-2.413-0.668-3.831-3.167-3.161-5.583c0.668-2.414,3.155-3.835,5.583-3.161c0.576,0.159,14.189,4.085,20.121,19.848
					c0.88,2.346-0.304,4.963-2.65,5.846C281.668,140.909,281.128,141.001,280.596,141.001z"/>
			</g>
		</g>
		<g>
			<g>
				<path fill="#161616" d="M298.205,139.119c-1.835,0-3.563-1.12-4.248-2.939c-9.043-24.049-29.559-29.969-29.762-30.028
					c-2.416-0.668-3.835-3.167-3.164-5.58c0.668-2.419,3.17-3.835,5.58-3.164c1.025,0.28,25.19,7.255,35.842,35.576
					c0.88,2.346-0.304,4.963-2.65,5.846C299.277,139.028,298.737,139.119,298.205,139.119z"/>
			</g>
		</g>
		<g>
			<g>
				<path fill="#161616" d="M316.429,138.549c-1.834,0-3.563-1.12-4.248-2.939c-14.271-37.949-47.1-47.591-47.431-47.685
					c-2.408-0.676-3.817-3.179-3.146-5.586c0.673-2.411,3.155-3.831,5.574-3.155c1.527,0.419,37.547,10.815,53.499,53.23
					c0.88,2.346-0.304,4.963-2.65,5.846C317.501,138.458,316.961,138.549,316.429,138.549z"/>
			</g>
		</g>
	</g>
</g>
</svg>
