<?xml version="1.0" encoding="utf-8"?>
<!-- Generator: Adobe Illustrator 24.3.0, SVG Export Plug-In . SVG Version: 6.00 Build 0)  -->
<svg version="1.1" id="Layer_1" xmlns="http://www.w3.org/2000/svg" xmlns:xlink="http://www.w3.org/1999/xlink" x="0px" y="0px"
	 viewBox="0 0 400 400" enable-background="new 0 0 400 400" xml:space="preserve">
<g>
	<g>
		<g>
			<path fill="#F4F4F4" d="M318.312,199.383c-1.964-9.937-14.85-16.584-34.835-19.795c1.206,2.762,2.139,5.187,3.09,8.035
				c7.173,1.111,11.406,3.303,11.979,6.201c1.991,10.088-41.975,33.322-98.203,44.427c-56.227,11.104-103.423,5.882-105.417-4.207
				c-0.694-3.515,3.948-7.639,12.989-12.318c-0.261-1.409-0.148-3.303-0.148-5.247c0-1.114,0.044-2.215,0.084-3.317
				C89.186,224.105,78.734,235.943,80.78,246.3c4.257,21.544,60.879,28.51,126.472,15.556
				C272.845,248.899,322.57,220.927,318.312,199.383z"/>
		</g>
		<g>
			<g>
				<path fill="#F9F9F9" d="M298.547,193.823c0.115,0.591,0.062,1.229-0.13,1.902c9.421,3.061,15.935,7.332,18.682,12.797
					c1.335-3.132,1.796-6.198,1.214-9.14c-1.964-9.937-14.85-16.584-34.835-19.795c1.206,2.762,2.139,5.187,3.09,8.035
					C293.74,188.733,297.974,190.925,298.547,193.823z"/>
			</g>
			<g>
				<path fill="#F9F9F9" d="M94.927,246.693c1.994,10.088,49.19,15.311,105.417,4.207c56.228-11.104,100.194-34.339,98.203-44.426
					c-0.349-1.758-2.062-3.25-4.939-4.405c-12.895,11.429-49.338,27.506-93.264,36.182c-46.044,9.092-86.013,7.234-100.082,0.724
					C96.366,241.798,94.471,244.379,94.927,246.693z"/>
			</g>
			<g>
				<path fill="#F9F9F9" d="M82.009,249.785c2.156-5.016,6.632-10.194,13.063-15.317c-0.046-0.142-0.117-0.281-0.145-0.426
					c-0.694-3.515,3.948-7.639,12.989-12.318c-0.261-1.409-0.148-3.303-0.148-5.247c0-1.114,0.044-2.215,0.084-3.317
					C89.186,224.105,78.734,235.943,80.78,246.3C81.019,247.511,81.448,248.669,82.009,249.785z"/>
			</g>
		</g>
		<g>
			<path fill="#FFDA88" d="M107.853,213.161c-0.04,1.102-0.084,2.204-0.084,3.317c0,8.948,1.306,17.586,3.694,25.763
				c18.885,3.551,51.932,3.306,88.881-3.991c40.735-8.044,75.019-22.454,90.07-33.621c-0.818-6.328-2.272-12.454-4.313-18.312
				c-0.251-0.712-0.499-1.427-0.759-2.115c-0.245-0.656-0.508-1.306-0.768-1.956c-0.278-0.688-0.555-1.377-0.862-2.091
				c-14.07-32.581-46.48-55.391-84.227-55.391C149.944,124.764,109.602,164.049,107.853,213.161L107.853,213.161z"/>
		</g>
		<g>
			<path fill="#FFDA88" d="M207.252,261.856c-31.82,6.283-61.507,7.867-84.15,5.385c16.437,24.681,44.505,40.953,76.383,40.953
				c44.843,0,82.147-32.191,90.117-74.721C269.48,244.923,240.4,255.307,207.252,261.856z"/>
		</g>
		<g>
			<path fill="#FFE2A9" d="M130.624,242.241c-2.39-8.177-3.695-16.815-3.695-25.763c0-1.114,0.047-2.215,0.086-3.317
				c1.631-45.83,36.876-83.087,81.834-87.867c-3.084-0.313-6.195-0.53-9.361-0.53c-49.54,0-89.884,39.285-91.633,88.397
				c-0.038,1.102-0.086,2.204-0.086,3.317c0,8.948,1.306,17.586,3.696,25.763c9.645,1.814,23,2.629,38.669,2.027
				C142.639,243.951,136.033,243.257,130.624,242.241z"/>
		</g>
		<g>
			<path fill="#FFE2A9" d="M143.032,268.322c-7.084-0.062-13.784-0.408-19.928-1.081c16.436,24.681,44.503,40.953,76.384,40.953
				c3.276,0,6.508-0.192,9.695-0.529C181.727,304.847,157.879,289.934,143.032,268.322z"/>
		</g>
		<g>
			
				<ellipse transform="matrix(0.6754 -0.7374 0.7374 0.6754 13.8787 245.9325)" fill="#9AE8CE" cx="286.314" cy="107.2" rx="11.722" ry="11.722"/>
		</g>
		<g>
			<path fill="#AEF4DB" d="M282.722,107.2c0-5.05,3.214-9.316,7.693-10.965c-1.264-0.464-2.611-0.756-4.035-0.756
				c-6.47,0-11.722,5.248-11.722,11.722c0,6.474,5.252,11.722,11.722,11.722c1.424,0,2.771-0.293,4.035-0.756
				C285.936,116.516,282.722,112.25,282.722,107.2z"/>
		</g>
		<g>
			<path fill="#9AE8CE" d="M319.483,134.8c0,3.905-3.164,7.069-7.069,7.069c-3.906,0-7.072-3.164-7.072-7.069
				c0-3.905,3.167-7.071,7.072-7.071C316.319,127.73,319.483,130.895,319.483,134.8z"/>
		</g>
		<g>
			<path fill="#AEF4DB" d="M310.65,134.8c0-2.966,1.829-5.495,4.417-6.546c-0.818-0.332-1.713-0.524-2.653-0.524
				c-3.906,0-7.072,3.165-7.072,7.071c0,3.905,3.167,7.069,7.072,7.069c0.939,0,1.834-0.192,2.653-0.526
				C312.478,140.295,310.65,137.766,310.65,134.8z"/>
		</g>
		<g>
			<g>
				<path fill="#FFDA88" d="M261.553,111.738c-2.507,0-4.537-2.031-4.537-4.537c0-16.156,13.143-29.299,29.299-29.299
					c2.508,0,4.537,2.031,4.537,4.538c0,2.507-2.029,4.537-4.537,4.537c-11.152,0-20.224,9.072-20.224,20.224
					C266.09,109.707,264.059,111.738,261.553,111.738z"/>
			</g>
		</g>
		<g>
			<path fill="#FFE2A9" d="M260.712,109.973c0-16.156,13.143-29.299,29.297-29.299c0.231,0,0.455,0.034,0.674,0.068
				c-0.674-1.665-2.295-2.84-4.201-2.84c-16.157,0-29.3,13.143-29.3,29.299c0,2.276,1.681,4.143,3.865,4.469
				C260.835,111.146,260.712,110.574,260.712,109.973z"/>
		</g>
		<g>
			<g>
				<path fill="#FFDA88" d="M162.291,322.099c-0.443,0-0.894-0.065-1.34-0.201c-40.654-12.555-53.309-39.124-53.829-40.25
					c-1.049-2.275-0.054-4.972,2.22-6.02c2.276-1.049,4.96-0.059,6.015,2.204c0.119,0.254,11.725,24.108,48.271,35.393
					c2.394,0.741,3.737,3.282,2.997,5.675C166.023,320.849,164.229,322.099,162.291,322.099z"/>
			</g>
		</g>
		<g>
			<path fill="#FFE2A9" d="M163.628,313.295c-36.546-11.284-48.152-35.139-48.271-35.393c-1.055-2.263-3.739-3.252-6.015-2.204
				c-1.691,0.78-2.669,2.47-2.632,4.221c2.013-0.41,4.111,0.582,5.013,2.52c0.12,0.254,11.725,24.109,48.271,35.393
				c1.901,0.588,3.118,2.313,3.179,4.195c1.575-0.316,2.945-1.412,3.452-3.058C167.365,316.577,166.022,314.037,163.628,313.295z"/>
		</g>
		<g>
			<g>
				<path fill="#F4F4F4" d="M124.86,219.624c-0.087,0-0.173-0.003-0.26-0.006c-2.5-0.142-4.413-2.281-4.274-4.78
					c0.065-1.182,1.79-29.095,17.81-45.777c1.74-1.808,4.61-1.867,6.416-0.13c1.808,1.737,1.865,4.608,0.13,6.416
					c-13.667,14.227-15.281,39.741-15.296,39.998C129.246,217.76,127.246,219.624,124.86,219.624z"/>
			</g>
		</g>
		<g>
			<g>
				<path fill="#F4F4F4" d="M149.808,166.312c-0.978,0-1.963-0.313-2.793-0.963c-1.973-1.545-2.322-4.399-0.777-6.372
					c0.712-0.91,7.167-8.96,14.376-11.341c2.372-0.774,4.945,0.505,5.731,2.889c0.786,2.378-0.506,4.945-2.886,5.731
					c-3.926,1.294-8.709,6.57-10.075,8.316C152.489,165.715,151.156,166.312,149.808,166.312z"/>
			</g>
		</g>
	</g>
	<g>
		<g>
			<path fill="#161616" d="M144.461,272.898c-35.88,0-64.553-7.598-68.133-25.718c-2.408-12.194,7.7-25.311,29.229-37.933
				c1.428-0.839,3.199-0.833,4.622,0.018s2.269,2.405,2.208,4.062c-0.046,1.247-0.081,2.195-0.081,3.152l-0.013,1.43
				c-0.016,1.158-0.033,2.354,0.084,2.989c0.365,1.965-0.6,3.938-2.375,4.857c-8.449,4.372-10.198,6.859-10.54,7.539
				c2.307,3.176,24.088,9.317,66.387,5.391c2.446-0.257,4.706,1.601,4.938,4.097s-1.603,4.706-4.099,4.936
				c-26.87,2.496-73.165,2.611-76.213-12.794c-0.162-0.824-0.198-1.625-0.124-2.402c-4.037,4.718-5.861,9.149-5.119,12.898
				c3.23,16.345,53.778,25.287,121.141,11.985c67.367-13.308,110.716-40.796,107.488-57.141c-0.885-4.478-5.437-8.419-13.002-11.48
				c1.118,1.22,1.832,2.609,2.139,4.162c1.514,7.666-8.502,16.685-29.77,26.805c-20.216,9.622-45.787,17.772-72.004,22.95
				c-3.817,0.753-7.746,1.456-12.013,2.148c-2.452,0.419-4.802-1.276-5.204-3.752c-0.402-2.476,1.279-4.806,3.753-5.205
				c4.161-0.676,7.991-1.359,11.704-2.094c55.815-11.022,92.36-32.135,94.534-39.029c-0.557-0.484-2.52-1.793-8.124-2.662
				c-1.679-0.26-3.071-1.436-3.61-3.046c-0.907-2.718-1.787-5.007-2.945-7.66c-0.663-1.521-0.443-3.282,0.573-4.594
				c1.016-1.312,2.656-1.962,4.305-1.701c28.975,4.656,36.966,15.293,38.567,23.396c5.576,28.232-54.9,56.007-114.633,67.805
				C186.742,270.532,164.477,272.898,144.461,272.898z"/>
		</g>
		<g>
			<path fill="#161616" d="M140.197,248.991c-11.294,0-21.482-0.768-29.573-2.289c-1.678-0.316-3.038-1.548-3.517-3.188
				c-2.572-8.806-3.876-17.902-3.876-27.036c0-1.069,0.038-2.127,0.077-3.184c1.863-52.317,44.105-93.067,96.176-93.067
				c38.446,0,73.143,22.816,88.392,58.129c0.304,0.706,0.576,1.38,0.848,2.053l0.115,0.287c0.256,0.635,0.51,1.27,0.75,1.908
				c0.257,0.685,0.505,1.391,0.753,2.097c2.201,6.322,3.725,12.788,4.572,19.346c0.21,1.631-0.477,3.247-1.798,4.227
				c-14.886,11.042-49.072,25.969-91.894,34.427c-3.716,0.733-7.645,1.436-12.014,2.142c-2.467,0.411-4.803-1.279-5.204-3.752
				c-0.402-2.476,1.279-4.806,3.753-5.205c4.264-0.691,8.093-1.374,11.707-2.089c39.155-7.731,71.278-21.275,86.06-31.269
				c-0.806-5.019-2.052-9.958-3.709-14.72c-0.263-0.747-0.487-1.391-0.721-2.012c-0.216-0.573-0.446-1.143-0.675-1.713
				c-0.359-0.892-0.606-1.504-0.877-2.139c-13.81-31.975-45.236-52.642-80.059-52.642c-47.162,0-85.419,36.905-87.097,84.02
				c-0.046,1.25-0.081,2.198-0.081,3.155c0,7.338,0.931,14.652,2.767,21.781c13.153,2.053,31.432,2.216,50.776,0.425
				c2.489-0.266,4.706,1.604,4.938,4.097c0.232,2.496-1.604,4.706-4.099,4.936C157.521,248.571,148.556,248.991,140.197,248.991z"/>
		</g>
		<g>
			<path fill="#161616" d="M199.484,312.731c-32.273,0-62.238-16.064-80.159-42.976c-0.976-1.465-1.016-3.365-0.1-4.871
				s2.614-2.343,4.372-2.154c23.138,2.538,52.538,0.647,82.776-5.326c31.609-6.245,60.37-16.144,80.986-27.875
				c1.535-0.872,3.437-0.777,4.877,0.248c1.44,1.028,2.152,2.795,1.826,4.532c-4.038,21.547-15.518,41.277-32.325,55.557
				c-1.908,1.619-4.769,1.389-6.396-0.52c-1.623-1.911-1.39-4.774,0.52-6.398c12.692-10.783,22.03-24.992,26.904-40.722
				c-20.404,10.079-46.466,18.516-74.635,24.082c-26.882,5.306-53.212,7.474-75.371,6.266
				c16.485,19.621,40.783,31.083,66.724,31.083c13.57,0,26.59-3.049,38.699-9.066c2.244-1.117,4.969-0.201,6.082,2.047
				c1.115,2.242,0.199,4.966-2.044,6.082C228.847,309.363,214.467,312.731,199.484,312.731z"/>
		</g>
		<g>
			<path fill="#161616" d="M286.314,123.46c-8.966,0-16.259-7.294-16.259-16.259c0-8.966,7.294-16.259,16.259-16.259
				c8.966,0,16.259,7.294,16.259,16.259C302.573,116.166,295.28,123.46,286.314,123.46z M286.314,100.016
				c-3.961,0-7.184,3.223-7.184,7.184c0,3.961,3.223,7.184,7.184,7.184c3.961,0,7.184-3.223,7.184-7.184
				C293.498,103.239,290.275,100.016,286.314,100.016z"/>
		</g>
		<g>
			<path fill="#161616" d="M312.413,146.407c-6.401,0-11.609-5.208-11.609-11.607c0-6.4,5.208-11.608,11.609-11.608
				c6.4,0,11.607,5.208,11.607,11.608C324.02,141.199,318.813,146.407,312.413,146.407z M312.413,132.269
				c-1.397,0-2.535,1.134-2.535,2.532c0,1.397,1.137,2.532,2.535,2.532c1.396,0,2.532-1.134,2.532-2.532
				C314.945,133.403,313.809,132.269,312.413,132.269z"/>
		</g>
		<g>
			<g>
				<path fill="#161616" d="M261.553,111.738c-2.507,0-4.537-2.031-4.537-4.537c0-16.156,13.143-29.299,29.299-29.299
					c2.507,0,4.537,2.031,4.537,4.538c0,2.507-2.031,4.537-4.537,4.537c-11.152,0-20.224,9.072-20.224,20.224
					C266.09,109.707,264.059,111.738,261.553,111.738z"/>
			</g>
		</g>
		<g>
			<g>
				<path fill="#161616" d="M162.291,322.099c-0.443,0-0.894-0.065-1.34-0.201c-40.654-12.555-53.309-39.124-53.829-40.25
					c-1.049-2.275-0.054-4.972,2.22-6.02c2.276-1.049,4.96-0.059,6.015,2.204c0.119,0.254,11.725,24.108,48.271,35.393
					c2.394,0.741,3.737,3.282,2.997,5.675C166.023,320.849,164.229,322.099,162.291,322.099z"/>
			</g>
		</g>
		<g>
			<g>
				<path fill="#161616" d="M124.86,219.624c-0.087,0-0.173-0.003-0.26-0.006c-2.5-0.142-4.413-2.281-4.274-4.78
					c0.065-1.182,1.79-29.095,17.81-45.777c1.74-1.808,4.61-1.867,6.416-0.13c1.808,1.737,1.865,4.608,0.13,6.416
					c-13.667,14.227-15.281,39.741-15.296,39.998C129.246,217.76,127.246,219.624,124.86,219.624z"/>
			</g>
		</g>
		<g>
			<g>
				<path fill="#161616" d="M149.808,166.312c-0.978,0-1.963-0.313-2.793-0.963c-1.973-1.545-2.322-4.399-0.777-6.372
					c0.712-0.91,7.167-8.96,14.376-11.341c2.372-0.774,4.945,0.505,5.731,2.889c0.786,2.378-0.506,4.945-2.886,5.731
					c-3.926,1.294-8.709,6.57-10.075,8.316C152.489,165.715,151.156,166.312,149.808,166.312z"/>
			</g>
		</g>
	</g>
</g>
</svg>
