<?xml version="1.0" encoding="utf-8"?>
<!-- Generator: Adobe Illustrator 24.3.0, SVG Export Plug-In . SVG Version: 6.00 Build 0)  -->
<svg version="1.1" id="Layer_1" xmlns="http://www.w3.org/2000/svg" xmlns:xlink="http://www.w3.org/1999/xlink" x="0px" y="0px"
	 viewBox="0 0 400 400" enable-background="new 0 0 400 400" xml:space="preserve">
<g>
	<g>
		<g>
			<rect x="176.918" y="106.728" fill="#FFDA88" width="46.131" height="17.394"/>
		</g>
		<g>
			<path fill="#F4F4F4" d="M214.713,106.728V93.731c0-8.135-6.594-14.73-14.729-14.73c-8.135,0-14.729,6.595-14.729,14.73v12.997
				H214.713z"/>
		</g>
		<g>
			<path fill="#F9F9F9" d="M202.932,79.297c-0.951-0.193-1.938-0.297-2.948-0.297c-8.135,0-14.729,6.595-14.729,14.73v12.997h5.896
				V93.731C191.151,86.606,196.208,80.664,202.932,79.297z"/>
		</g>
		<g>
			<polygon fill="#FF7D5F" points="260.418,194.83 233.193,124.121 166.777,124.121 139.552,194.83 155.477,236.046 
				244.493,236.046 			"/>
		</g>
		<g>
			<polygon fill="#FFDA88" points="233.193,265.288 244.493,236.046 155.477,236.046 166.777,265.288 			"/>
		</g>
		<g>
			<polygon fill="#FF9D8D" points="182.702,124.121 166.777,124.121 139.552,194.83 155.477,236.046 171.403,236.046 
				155.477,194.83 			"/>
		</g>
		<g>
			<polygon fill="#FFE2A9" points="155.477,236.046 166.777,265.288 182.702,265.288 171.403,236.046 			"/>
		</g>
		<g>
			<path fill="#FFDA88" d="M160.301,248.542l-32.468,21.003c-1.294,0.836-2.074,2.272-2.074,3.811v35.668h9.075v-33.198
				l28.808-18.637L160.301,248.542z"/>
		</g>
		<g>
			<path fill="#FFE2A9" d="M132.436,269.545l28.788-18.622l-0.922-2.381l-32.468,21.003c-1.294,0.836-2.074,2.272-2.074,3.811
				v35.668h4.603v-35.668C130.362,271.817,131.142,270.381,132.436,269.545z"/>
		</g>
		<g>
			<rect x="175.533" y="265.288" fill="#FF7D5F" width="48.902" height="16.132"/>
		</g>
		<g>
			<rect x="112.43" y="309.024" fill="#F4F4F4" width="35.733" height="11.976"/>
		</g>
		<g>
			<path fill="#FFDA88" d="M239.698,248.542l32.468,21.003c1.294,0.836,2.074,2.272,2.074,3.811v35.668h-9.075v-33.198
				l-28.808-18.637L239.698,248.542z"/>
		</g>
		<g>
			<rect x="251.837" y="309.024" fill="#F4F4F4" width="35.733" height="11.976"/>
		</g>
		<g>
			<circle fill="#F4F4F4" cx="199.984" cy="194.83" r="27.225"/>
		</g>
		<g>
			<path fill="#F9F9F9" d="M181.098,194.83c0-13.616,10.003-24.861,23.057-26.873c-1.365-0.21-2.75-0.352-4.171-0.352
				c-15.036,0-27.225,12.189-27.225,27.225s12.189,27.225,27.225,27.225c1.421,0,2.807-0.142,4.171-0.352
				C191.101,219.692,181.098,208.446,181.098,194.83z"/>
		</g>
		<g>
			<polygon fill="#F4F4F4" points="158.978,204.032 143.109,204.032 139.552,194.83 143.094,185.628 158.978,185.628 			"/>
		</g>
		<g>
			<polygon fill="#F9F9F9" points="158.978,204.032 158.978,203.89 155.477,194.83 158.978,185.738 158.978,185.628 
				143.094,185.628 139.552,194.83 143.109,204.032 			"/>
		</g>
		<g>
			<polygon fill="#F4F4F4" points="240.992,204.032 256.862,204.032 260.418,194.83 256.876,185.628 240.992,185.628 			"/>
		</g>
		<g>
			<rect x="187.308" y="140.035" fill="#FFDA88" width="25.352" height="13.55"/>
		</g>
		<g>
			<rect x="203.535" y="106.728" fill="#F4F4F4" width="8.186" height="17.394"/>
		</g>
		<g>
			<rect x="175.533" y="265.288" fill="#FF9D8D" width="12.274" height="16.132"/>
		</g>
		<g>
			<rect x="176.918" y="106.728" fill="#FFE2A9" width="15.426" height="17.394"/>
		</g>
		<g>
			<rect x="188.25" y="106.728" fill="#F4F4F4" width="8.186" height="17.394"/>
		</g>
		<g>
			<rect x="188.25" y="106.728" fill="#F9F9F9" width="4.094" height="17.394"/>
		</g>
		<g>
			<rect x="112.43" y="309.024" fill="#F9F9F9" width="9.205" height="11.976"/>
		</g>
		<g>
			<rect x="251.837" y="309.024" fill="#F9F9F9" width="9.205" height="11.976"/>
		</g>
	</g>
	<g>
		<g>
			<path fill="#161616" d="M223.049,128.659h-46.131c-2.505,0-4.537-2.031-4.537-4.538v-17.394c0-2.507,2.032-4.537,4.537-4.537
				h46.131c2.505,0,4.537,2.031,4.537,4.537v17.394C227.587,126.628,225.554,128.659,223.049,128.659z M181.456,119.584h37.056
				v-8.319h-37.056V119.584z"/>
		</g>
		<g>
			<path fill="#161616" d="M214.713,111.265h-29.458c-2.505,0-4.538-2.031-4.538-4.538V93.731c0-10.624,8.644-19.268,19.267-19.268
				s19.267,8.644,19.267,19.268v12.996C219.25,109.234,217.218,111.265,214.713,111.265z M189.792,102.19h20.383v-8.459
				c0-5.62-4.573-10.193-10.192-10.193s-10.192,4.573-10.192,10.193V102.19z"/>
		</g>
		<g>
			<path fill="#161616" d="M244.493,240.583h-89.016c-1.876,0-3.557-1.152-4.233-2.901l-15.926-41.215
				c-0.405-1.052-0.405-2.216,0-3.267l27.225-70.709c0.674-1.752,2.357-2.907,4.233-2.907h66.417c1.876,0,3.56,1.155,4.233,2.907
				l6.378,16.561c0.901,2.34-0.263,4.963-2.603,5.864c-2.328,0.895-4.963-0.263-5.864-2.603l-5.258-13.654h-60.187l-25.479,66.169
				l14.174,36.681h82.794l14.174-36.681l-12.061-31.322c-0.901-2.34,0.263-4.966,2.602-5.864c2.34-0.901,4.963,0.263,5.864,2.603
				l12.691,32.956c0.405,1.052,0.405,2.216,0,3.267l-15.926,41.215C248.05,239.431,246.369,240.583,244.493,240.583z"/>
		</g>
		<g>
			<path fill="#161616" d="M233.194,269.826h-66.417c-1.876,0-3.557-1.152-4.233-2.901l-11.299-29.243
				c-0.538-1.397-0.354-2.969,0.49-4.204c0.848-1.232,2.248-1.97,3.743-1.97h89.016c1.495,0,2.895,0.739,3.743,1.97
				c0.845,1.235,1.028,2.806,0.49,4.204l-11.299,29.243C236.75,268.674,235.069,269.826,233.194,269.826z M169.887,260.751h60.195
				l7.793-20.168h-75.781L169.887,260.751z"/>
		</g>
		<g>
			<path fill="#161616" d="M160.301,248.542l-32.468,21.003c-1.294,0.836-2.074,2.272-2.074,3.811v35.668h9.075v-33.198
				l28.808-18.637L160.301,248.542z"/>
		</g>
		<g>
			<path fill="#161616" d="M224.435,285.958h-48.902c-2.505,0-4.537-2.033-4.537-4.538v-16.132c0-2.505,2.032-4.538,4.537-4.538
				h48.902c2.505,0,4.537,2.032,4.537,4.538v16.132C228.972,283.926,226.94,285.958,224.435,285.958z M180.07,276.883h39.827v-7.057
				H180.07V276.883z"/>
		</g>
		<g>
			<path fill="#161616" d="M148.163,325.537H112.43c-2.505,0-4.537-2.033-4.537-4.538v-11.976c0-2.505,2.032-4.538,4.537-4.538
				h35.733c2.505,0,4.537,2.032,4.537,4.538V321C152.701,323.505,150.668,325.537,148.163,325.537z M116.968,316.462h26.658v-2.901
				h-26.658V316.462z"/>
		</g>
		<g>
			<path fill="#161616" d="M239.698,248.542l32.468,21.003c1.294,0.836,2.074,2.272,2.074,3.811v35.668h-9.075v-33.198
				l-28.808-18.637L239.698,248.542z"/>
		</g>
		<g>
			<path fill="#161616" d="M287.57,325.537h-35.733c-2.505,0-4.538-2.033-4.538-4.538v-11.976c0-2.505,2.033-4.538,4.538-4.538
				h35.733c2.505,0,4.538,2.032,4.538,4.538V321C292.107,323.505,290.075,325.537,287.57,325.537z M256.374,316.462h26.658v-2.901
				h-26.658V316.462z"/>
		</g>
		<g>
			<path fill="#161616" d="M199.984,226.593c-12.475,0-23.845-7.367-28.965-18.77c-1.028-2.286-0.006-4.972,2.281-5.997
				c2.283-1.028,4.969-0.006,5.997,2.281c3.66,8.147,11.778,13.412,20.688,13.412c12.511,0,22.687-10.177,22.687-22.687
				c0-12.511-10.177-22.687-22.687-22.687c-8.91,0-17.027,5.264-20.688,13.411c-1.028,2.29-3.713,3.312-5.997,2.281
				c-2.286-1.025-3.309-3.71-2.281-5.997c5.12-11.403,16.49-18.77,28.965-18.77c17.515,0,31.762,14.248,31.762,31.762
				S217.499,226.593,199.984,226.593z"/>
		</g>
		<g>
			<path fill="#161616" d="M158.978,208.57h-15.869c-1.876,0-3.557-1.152-4.233-2.901l-3.557-9.202
				c-0.405-1.052-0.405-2.216,0-3.267l3.542-9.202c0.673-1.752,2.357-2.907,4.233-2.907h15.884c2.505,0,4.537,2.032,4.537,4.538
				v18.404C163.515,206.537,161.483,208.57,158.978,208.57z M146.219,199.495h8.221v-9.329h-8.23l-1.796,4.661L146.219,199.495z"/>
		</g>
		<g>
			<path fill="#161616" d="M256.862,208.57h-15.869c-2.505,0-4.537-2.033-4.537-4.538v-18.404c0-2.505,2.032-4.538,4.537-4.538
				h15.884c1.876,0,3.56,1.155,4.233,2.907l3.542,9.202c0.405,1.052,0.405,2.216,0,3.267l-3.557,9.202
				C260.419,207.418,258.738,208.57,256.862,208.57z M245.53,199.495h8.221l1.805-4.667l-1.796-4.661h-8.23V199.495z"/>
		</g>
		<g>
			<path fill="#161616" d="M212.66,158.123h-25.352c-2.505,0-4.538-2.032-4.538-4.538v-13.55c0-2.505,2.032-4.537,4.538-4.537
				h25.352c2.505,0,4.538,2.032,4.538,4.537v13.55C217.197,156.09,215.165,158.123,212.66,158.123z M191.845,149.048h16.277v-4.475
				h-16.277V149.048z"/>
		</g>
		<g>
			<rect x="188.25" y="106.728" fill="#161616" width="8.186" height="17.394"/>
		</g>
		<g>
			<rect x="203.535" y="106.728" fill="#161616" width="8.186" height="17.394"/>
		</g>
	</g>
</g>
</svg>
