<?xml version="1.0" encoding="utf-8"?>
<!-- Generator: Adobe Illustrator 24.3.0, SVG Export Plug-In . SVG Version: 6.00 Build 0)  -->
<svg version="1.1" id="Layer_1" xmlns="http://www.w3.org/2000/svg" xmlns:xlink="http://www.w3.org/1999/xlink" x="0px" y="0px"
	 viewBox="0 0 400 400" enable-background="new 0 0 400 400" xml:space="preserve">
<g>
	<g>
		<g>
			<polygon fill="#8EC0D6" points="279.319,193.095 120.682,193.095 147.121,140.219 252.88,140.219 			"/>
		</g>
		<g>
			<polygon fill="#A9D2E0" points="146.013,140.219 119.574,193.095 139.993,193.095 166.432,140.219 			"/>
		</g>
		<g>
			<path fill="#A880B2" d="M320.63,215.128c0,12.167-9.861,22.033-22.035,22.033H101.404c-12.165,0-22.032-9.867-22.032-22.033l0,0
				c0-12.168,9.867-22.033,22.032-22.033h197.191C310.769,193.095,320.63,202.961,320.63,215.128L320.63,215.128z"/>
		</g>
		<g>
			<path fill="#B999C1" d="M101.339,215.128c0-12.168,9.867-22.033,22.032-22.033h-21.966c-12.165,0-22.032,9.865-22.032,22.033
				c0,12.167,9.867,22.033,22.032,22.033h21.966C111.205,237.162,101.339,227.295,101.339,215.128z"/>
		</g>
		<g>
			<path fill="#A880B2" d="M200.002,120.568c-10.853,0-19.653,8.799-19.653,19.651h39.301
				C219.65,129.367,210.85,120.568,200.002,120.568z"/>
		</g>
		<g>
			<path fill="#B999C1" d="M204.791,121.181c-1.536-0.385-3.134-0.613-4.789-0.613c-10.853,0-19.653,8.799-19.653,19.651h9.58
				C189.929,131.023,196.256,123.323,204.791,121.181z"/>
		</g>
		<g>
			<path fill="#FFE2A9" d="M200.002,120.568c1.48,0,2.919,0.177,4.307,0.489v-17.605c0-2.481-2.012-4.495-4.493-4.495
				s-4.496,2.013-4.496,4.495v17.701C196.824,120.785,198.386,120.568,200.002,120.568z"/>
		</g>
		<g>
			<path fill="#FFDA88" d="M209.695,215.128c0,5.355-4.337,9.695-9.695,9.695c-5.353,0-9.695-4.341-9.695-9.695
				c0-5.353,4.342-9.694,9.695-9.694C205.358,205.435,209.695,209.776,209.695,215.128z"/>
		</g>
		<g>
			<path fill="#FFDA88" d="M162.394,215.128c0,5.355-4.337,9.695-9.695,9.695c-5.353,0-9.695-4.341-9.695-9.695
				c0-5.353,4.342-9.694,9.695-9.694C158.057,205.435,162.394,209.776,162.394,215.128z"/>
		</g>
		<g>
			<path fill="#FFDA88" d="M116.812,215.128c0,5.355-4.336,9.695-9.692,9.695c-5.356,0-9.692-4.341-9.692-9.695
				c0-5.353,4.337-9.694,9.692-9.694C112.476,205.435,116.812,209.776,116.812,215.128z"/>
		</g>
		<g>
			<path fill="#FFE2A9" d="M101.339,215.127c0-3.152,0.674-6.143,1.867-8.855c-3.4,1.505-5.778,4.898-5.778,8.855
				c0,3.958,2.378,7.351,5.778,8.858C102.012,221.273,101.339,218.281,101.339,215.127z"/>
		</g>
		<g>
			<path fill="#FFDA88" d="M301.133,215.128c0,5.355-4.337,9.695-9.695,9.695c-5.353,0-9.692-4.341-9.692-9.695
				c0-5.353,4.34-9.694,9.692-9.694C296.796,205.435,301.133,209.776,301.133,215.128z"/>
		</g>
		<g>
			<path fill="#FFDA88" d="M255.554,215.128c0,5.355-4.34,9.695-9.695,9.695c-5.353,0-9.695-4.341-9.695-9.695
				c0-5.353,4.343-9.694,9.695-9.694C251.214,205.435,255.554,209.776,255.554,215.128z"/>
		</g>
		<g>
			<path fill="#8EC0D6" d="M112.874,237.162c7.559,20.815,43.676,36.592,87.125,36.592c43.449,0,79.56-15.778,87.128-36.592H112.874
				z"/>
		</g>
		<g>
			<path fill="#A9D2E0" d="M142.368,237.162h-29.494c7.559,20.815,43.676,36.592,87.125,36.592c5.031,0,9.947-0.233,14.747-0.639
				C178.08,270.013,149.053,255.567,142.368,237.162z"/>
		</g>
		<g>
			<path fill="#A9D2E0" d="M126.62,254.044l-4.171,9.259c-3.489,7.743-0.038,16.846,7.707,20.335
				c7.74,3.487,16.847,0.038,20.333-7.704l3.87-8.588C143.295,263.982,133.84,259.431,126.62,254.044z"/>
		</g>
		<g>
			<path fill="#A9D2E0" d="M199.999,273.754c-5.246,0-10.38-0.241-15.376-0.682v8.057c0,8.491,6.886,15.376,15.376,15.376
				c8.496,0,15.379-6.885,15.379-15.376v-8.057C210.38,273.513,205.246,273.754,199.999,273.754z"/>
		</g>
		<g>
			<path fill="#8EC0D6" d="M274.094,253.484c-7.119,5.487-16.54,10.134-27.609,13.587l3.994,8.862
				c3.486,7.743,12.593,11.192,20.333,7.704c7.746-3.489,11.196-12.592,7.707-20.335L274.094,253.484z"/>
		</g>
	</g>
	<g>
		<g>
			<path fill="#161616" d="M279.32,197.633H120.681c-1.573,0-3.034-0.814-3.86-2.152c-0.827-1.338-0.902-3.009-0.199-4.415
				l7.652-15.304c1.124-2.241,3.852-3.146,6.088-2.029c2.241,1.121,3.149,3.846,2.029,6.088l-4.369,8.737h143.956l-21.902-43.802
				H149.924l-6.399,12.797c-1.121,2.242-3.845,3.148-6.088,2.029c-2.241-1.121-3.149-3.846-2.03-6.088l7.653-15.305
				c0.77-1.538,2.34-2.508,4.059-2.508H252.88c1.719,0,3.291,0.97,4.059,2.508l26.439,52.877c0.703,1.406,0.626,3.077-0.198,4.415
				C282.353,196.819,280.891,197.633,279.32,197.633z"/>
		</g>
		<g>
			<path fill="#161616" d="M298.595,241.699H101.404c-14.651,0-26.571-11.92-26.571-26.571c0-14.651,11.92-26.571,26.571-26.571
				h197.191c14.652,0,26.572,11.92,26.572,26.571C325.167,229.779,313.247,241.699,298.595,241.699z M101.404,197.633
				c-9.647,0-17.496,7.849-17.496,17.496c0,9.647,7.849,17.496,17.496,17.496h197.191c9.648,0,17.497-7.849,17.497-17.496
				c0-9.647-7.849-17.496-17.497-17.496H101.404z"/>
		</g>
		<g>
			<path fill="#161616" d="M219.65,144.756h-39.3c-2.507,0-4.538-2.031-4.538-4.538c0-13.338,10.852-24.188,24.189-24.188
				c13.335,0,24.185,10.85,24.185,24.188C224.187,142.725,222.155,144.756,219.65,144.756z M185.583,135.681h28.835
				c-1.932-6.124-7.663-10.576-14.416-10.576C193.249,125.106,187.515,129.557,185.583,135.681z"/>
		</g>
		<g>
			<path fill="#161616" d="M200.002,120.568c1.482,0,2.919,0.177,4.307,0.489v-17.605c0-2.481-2.013-4.495-4.495-4.495
				s-4.495,2.013-4.495,4.495v17.701C196.824,120.785,198.386,120.568,200.002,120.568z"/>
		</g>
		<g>
			<path fill="#161616" d="M200.001,229.361c-7.848,0-14.233-6.385-14.233-14.233c0-7.848,6.385-14.231,14.233-14.231
				c7.848,0,14.231,6.384,14.231,14.231C214.232,222.976,207.848,229.361,200.001,229.361z M200.001,209.972
				c-2.843,0-5.158,2.313-5.158,5.156c0,2.843,2.315,5.158,5.158,5.158c2.843,0,5.156-2.314,5.156-5.158
				C205.157,212.285,202.844,209.972,200.001,209.972z"/>
		</g>
		<g>
			<path fill="#161616" d="M152.7,229.361c-7.848,0-14.233-6.385-14.233-14.233c0-7.848,6.385-14.231,14.233-14.231
				c7.846,0,14.23,6.384,14.23,14.231C166.93,222.976,160.546,229.361,152.7,229.361z M152.7,209.972
				c-2.843,0-5.158,2.313-5.158,5.156c0,2.843,2.315,5.158,5.158,5.158c2.842,0,5.155-2.314,5.155-5.158
				C157.855,212.285,155.542,209.972,152.7,209.972z"/>
		</g>
		<g>
			<path fill="#161616" d="M107.12,229.361c-7.848,0-14.231-6.385-14.231-14.233c0-7.848,6.384-14.231,14.231-14.231
				c7.848,0,14.231,6.384,14.231,14.231C121.351,222.976,114.967,229.361,107.12,229.361z M107.12,209.972
				c-2.843,0-5.156,2.313-5.156,5.156c0,2.843,2.313,5.158,5.156,5.158c2.843,0,5.156-2.314,5.156-5.158
				C112.276,212.285,109.963,209.972,107.12,209.972z"/>
		</g>
		<g>
			<path fill="#161616" d="M291.437,229.361c-7.846,0-14.23-6.385-14.23-14.233c0-7.848,6.384-14.231,14.23-14.231
				c7.849,0,14.233,6.384,14.233,14.231C305.67,222.976,299.286,229.361,291.437,229.361z M291.437,209.972
				c-2.842,0-5.155,2.313-5.155,5.156c0,2.843,2.313,5.158,5.155,5.158c2.845,0,5.158-2.314,5.158-5.158
				C296.595,212.285,294.282,209.972,291.437,209.972z"/>
		</g>
		<g>
			<path fill="#161616" d="M245.859,229.361c-7.849,0-14.233-6.385-14.233-14.233c0-7.848,6.384-14.231,14.233-14.231
				s14.233,6.384,14.233,14.231C260.091,222.976,253.708,229.361,245.859,229.361z M245.859,209.972
				c-2.845,0-5.158,2.313-5.158,5.156c0,2.843,2.313,5.158,5.158,5.158s5.158-2.314,5.158-5.158
				C251.016,212.285,248.703,209.972,245.859,209.972z"/>
		</g>
		<g>
			<path fill="#161616" d="M199.998,278.292c-45.342,0-82.923-16.276-91.388-39.58c-0.505-1.391-0.301-2.941,0.548-4.154
				c0.849-1.211,2.236-1.933,3.716-1.933h174.253c1.48,0,2.868,0.722,3.716,1.933c0.851,1.213,1.055,2.764,0.549,4.155
				c-5.444,14.976-23.391,27.483-49.23,34.316c-2.422,0.645-4.907-0.803-5.548-3.227c-0.641-2.422,0.803-4.905,3.226-5.546
				c18.676-4.938,32.903-13.112,39.733-22.556H120.407c11.517,16.05,43.706,27.517,79.591,27.517c5.874,0,11.971-0.338,18.128-1.003
				c2.499-0.266,4.73,1.53,4.998,4.023c0.269,2.49-1.53,4.73-4.024,4.998C212.625,277.937,206.197,278.292,199.998,278.292z"/>
		</g>
		<g>
			<path fill="#161616" d="M136.461,289.544c-2.783,0-5.557-0.591-8.169-1.768c-4.851-2.185-8.561-6.127-10.446-11.101
				c-1.885-4.973-1.719-10.384,0.465-15.234l4.171-9.26c0.566-1.254,1.669-2.184,3-2.529c1.331-0.344,2.75-0.066,3.851,0.756
				c6.784,5.063,15.895,9.419,26.345,12.598c1.248,0.38,2.272,1.278,2.811,2.465c0.539,1.188,0.542,2.551,0.006,3.74l-3.868,8.587
				c-2.183,4.849-6.125,8.558-11.101,10.443C141.231,289.109,138.842,289.544,136.461,289.544z M128.529,260.851l-1.944,4.317
				c-1.189,2.639-1.279,5.583-0.254,8.291c1.026,2.708,3.046,4.854,5.688,6.043c2.638,1.189,5.582,1.281,8.291,0.253
				c2.707-1.025,4.852-3.044,6.041-5.682l1.792-3.979C140.759,267.515,134.195,264.422,128.529,260.851z"/>
		</g>
		<g>
			<path fill="#161616" d="M200.001,301.043c-10.982,0-19.915-8.933-19.915-19.914v-8.057c0-1.273,0.535-2.487,1.474-3.347
				c0.938-0.858,2.19-1.272,3.464-1.173c9.979,0.883,19.974,0.883,29.956,0c1.264-0.111,2.526,0.315,3.462,1.173
				c0.939,0.86,1.474,2.074,1.474,3.347v8.057C219.916,292.109,210.983,301.043,200.001,301.043z M189.161,277.959v3.17
				c0,5.976,4.862,10.839,10.84,10.839s10.84-4.862,10.84-10.839v-3.17C203.589,278.402,196.411,278.402,189.161,277.959z"/>
		</g>
		<g>
			<path fill="#161616" d="M264.508,289.544c-2.384,0-4.771-0.434-7.066-1.303c-4.975-1.885-8.915-5.594-11.101-10.444l-3.991-8.861
				c-0.535-1.183-0.535-2.541-0.003-3.725c0.532-1.185,1.548-2.084,2.789-2.471c10.46-3.263,19.518-7.707,26.188-12.849
				c1.102-0.851,2.532-1.149,3.873-0.808c1.347,0.337,2.464,1.272,3.034,2.538l4.425,9.819c2.186,4.851,2.352,10.261,0.467,15.234
				c-1.885,4.975-5.595,8.917-10.446,11.101C270.064,288.953,267.288,289.544,264.508,289.544z M252.682,269.784l1.932,4.286
				c1.19,2.639,3.335,4.659,6.044,5.684c2.706,1.029,5.654,0.936,8.289-0.253c2.641-1.189,4.661-3.335,5.687-6.043
				c1.028-2.707,0.936-5.651-0.251-8.291l-2.168-4.808C266.602,263.992,260.068,267.146,252.682,269.784z"/>
		</g>
	</g>
</g>
</svg>
