<?xml version="1.0" encoding="utf-8"?>
<!-- Generator: Adobe Illustrator 24.3.0, SVG Export Plug-In . SVG Version: 6.00 Build 0)  -->
<svg version="1.1" id="Layer_1" xmlns="http://www.w3.org/2000/svg" xmlns:xlink="http://www.w3.org/1999/xlink" x="0px" y="0px"
	 viewBox="0 0 400 400" enable-background="new 0 0 400 400" xml:space="preserve">
<g>
	<g>
		<g>
			<path fill="#FFDA88" d="M231.269,105.935h-63.138c-5.394,8.023-9.483,17.671-9.483,28.513v74.337h82.097v-74.337
				C240.746,123.47,236.681,113.869,231.269,105.935z"/>
		</g>
		<g>
			<path fill="#F4F4F4" d="M309.201,297.392c-1.433,0-2.788,0.292-4.059,0.762c-1.096-6.969-7.075-12.31-14.345-12.31
				c-2.656,0-5.11,0.762-7.252,2.003c-3.037-6.537-9.639-11.078-17.32-11.078c-3.811,0-7.353,1.129-10.333,3.049
				c-2.526-7.598-9.681-13.084-18.126-13.084c-6.676,0-12.546,3.43-15.961,8.617c-3.71-8.682-12.321-14.765-22.356-14.765
				c-9.672,0-17.999,5.663-21.913,13.843c-3.483-4.665-9.028-7.695-15.299-7.695c-8.446,0-15.6,5.486-18.123,13.084
				c-2.984-1.92-6.522-3.049-10.333-3.049c-7.681,0-14.286,4.54-17.323,11.078c-2.145-1.241-4.597-2.003-7.252-2.003
				c-7.273,0-13.249,5.341-14.342,12.31c-1.27-0.47-2.629-0.762-4.059-0.762c-6.517,0-11.802,5.282-11.802,11.802
				c0,6.517,5.285,11.799,11.802,11.799c5.185,0,213.211,0,218.399,0c6.517,0,11.799-5.282,11.799-11.799
				C320.999,302.674,315.718,297.392,309.201,297.392z"/>
		</g>
		<g>
			<g>
				<path fill="#F9F9F9" d="M313.472,304.76c1.271-0.47,2.626-0.762,4.059-0.762c0.806,0,1.595,0.083,2.355,0.236
					c-1.761-3.784-5.459-6.443-9.831-6.756C311.807,299.499,313.038,301.989,313.472,304.76z"/>
			</g>
			<g>
				<path fill="#F9F9F9" d="M291.875,294.453c2.142-1.241,4.596-2.003,7.252-2.003c1.486,0,2.895,0.272,4.239,0.688
					c-2.508-4.354-7.173-7.294-12.558-7.294c-1.873,0-3.639,0.396-5.276,1.055C288.248,288.822,290.46,291.404,291.875,294.453z"/>
			</g>
			<g>
				<path fill="#F9F9F9" d="M87.331,315.799c0-6.52,5.285-11.802,11.802-11.802c1.43,0,2.789,0.292,4.059,0.762
					c1.093-6.969,7.069-12.31,14.342-12.31c2.656,0,5.108,0.762,7.252,2.003c3.037-6.537,9.642-11.078,17.323-11.078
					c3.811,0,7.35,1.129,10.333,3.049c2.523-7.598,9.678-13.084,18.123-13.084c6.272,0,11.816,3.031,15.299,7.696
					c3.914-8.18,12.242-13.843,21.913-13.843c3.778,0,7.356,0.865,10.543,2.405c-4.455-5.492-11.241-9.01-18.862-9.01
					c-9.672,0-17.999,5.663-21.913,13.843c-3.483-4.665-9.028-7.695-15.299-7.695c-8.445,0-15.6,5.486-18.123,13.084
					c-2.984-1.92-6.522-3.049-10.333-3.049c-7.68,0-14.286,4.54-17.323,11.078c-2.145-1.241-4.597-2.003-7.252-2.003
					c-7.273,0-13.249,5.341-14.342,12.31c-1.27-0.47-2.629-0.762-4.059-0.762c-6.517,0-11.802,5.282-11.802,11.802
					c0,5.71,4.056,10.469,9.444,11.562C87.753,319.243,87.331,317.575,87.331,315.799z"/>
			</g>
			<g>
				<path fill="#F9F9F9" d="M264.222,286.424c2.98-1.92,6.522-3.049,10.333-3.049c2.555,0,4.975,0.544,7.199,1.453
					c-3.459-4.86-9.096-8.059-15.518-8.059c-2.626,0-5.111,0.567-7.385,1.53C261.274,280.489,263.167,283.254,264.222,286.424z"/>
			</g>
			<g>
				<path fill="#F9F9F9" d="M230.135,281.957c3.415-5.188,9.285-8.617,15.961-8.617c2.582,0,5.016,0.564,7.261,1.492
					c-3.459-4.889-9.134-8.097-15.58-8.097c-5.642,0-10.691,2.467-14.186,6.357C226.392,275.5,228.66,278.51,230.135,281.957z"/>
			</g>
		</g>
		<g>
			<circle fill="#F4F4F4" cx="199.696" cy="152.485" r="24.767"/>
		</g>
		<g>
			<path fill="#F9F9F9" d="M184.644,152.485c0-12.014,8.558-22.026,19.908-24.283c-1.572-0.313-3.193-0.484-4.857-0.484
				c-13.677,0-24.767,11.09-24.767,24.767s11.09,24.767,24.767,24.767c1.663,0,3.285-0.172,4.857-0.485
				C193.202,174.511,184.644,164.5,184.644,152.485z"/>
		</g>
		<g>
			<path fill="#9AE8CE" d="M204.23,80.893c-4.03-2.694-6.094-2.363-10.168,0c0,0-15.441,9.438-25.934,25.042h63.138
				C220.448,90.068,204.23,80.893,204.23,80.893z"/>
		</g>
		<g>
			<path fill="#FFE2A9" d="M177.611,105.935h-9.48c-5.394,8.023-9.483,17.671-9.483,28.513v74.337h9.48v-74.337
				C168.128,123.606,172.217,113.958,177.611,105.935z"/>
		</g>
		<g>
			<path fill="#AEF4DB" d="M203.542,80.893c0.127-0.074,0.239-0.127,0.363-0.198c-3.808-2.452-5.885-2.098-9.843,0.198
				c0,0-15.441,9.438-25.934,25.042h9.48C188.101,90.331,203.542,80.893,203.542,80.893z"/>
		</g>
		<g>
			<rect x="158.649" y="208.784" fill="#9AE8CE" width="41.047" height="22.309"/>
		</g>
		<g>
			<rect x="199.654" y="208.784" fill="#9AE8CE" width="41.091" height="22.309"/>
		</g>
		<g>
			<rect x="169.381" y="231.094" fill="#FFDA88" width="60.633" height="14.369"/>
		</g>
		<g>
			<path fill="#9AE8CE" d="M191.276,260.587h16.342c8.354,0,15.125-6.771,15.125-15.125h-46.592
				C176.152,253.816,182.922,260.587,191.276,260.587z"/>
		</g>
		<g>
			<polygon fill="#F4F4F4" points="158.649,239.79 127.604,239.79 142.729,177.252 158.649,177.252 			"/>
		</g>
		<g>
			<polygon fill="#F4F4F4" points="240.746,239.79 271.79,239.79 256.665,177.252 240.746,177.252 			"/>
		</g>
		<g>
			<rect x="137.642" y="239.79" fill="#9AE8CE" width="10.965" height="11.166"/>
		</g>
		<g>
			<rect x="133.778" y="250.957" fill="#FFDA88" width="18.696" height="11.167"/>
		</g>
		<g>
			<rect x="250.784" y="239.79" fill="#9AE8CE" width="10.966" height="11.166"/>
		</g>
		<g>
			<rect x="246.92" y="250.957" fill="#FFDA88" width="18.696" height="11.167"/>
		</g>
		<g>
			<path fill="#F4F4F4" d="M99.951,256.72c0,5.784-4.694,10.472-10.472,10.472c-5.79,0-10.478-4.688-10.478-10.472
				c0-5.787,4.688-10.475,10.478-10.475C95.257,246.245,99.951,250.933,99.951,256.72z"/>
		</g>
		<g>
			<path fill="#F9F9F9" d="M86.268,256.72c0-4.505,2.853-8.31,6.842-9.79c-1.134-0.423-2.349-0.686-3.631-0.686
				c-5.79,0-10.478,4.688-10.478,10.475c0,5.784,4.688,10.472,10.478,10.472c1.282,0,2.496-0.263,3.631-0.685
				C89.121,265.027,86.268,261.222,86.268,256.72z"/>
		</g>
		<g>
			<path fill="#F4F4F4" d="M320.999,242.553c0,5.784-4.694,10.472-10.472,10.472c-5.79,0-10.478-4.688-10.478-10.472
				c0-5.787,4.688-10.475,10.478-10.475C316.306,232.077,320.999,236.765,320.999,242.553z"/>
		</g>
		<g>
			<path fill="#F4F4F4" d="M109.407,221.2c0,3.495-2.836,6.331-6.331,6.331c-3.501,0-6.333-2.836-6.333-6.331
				c0-3.501,2.833-6.334,6.333-6.334C106.571,214.867,109.407,217.7,109.407,221.2z"/>
		</g>
		<g>
			<path fill="#F9F9F9" d="M100.713,221.2c0-2.803,1.828-5.149,4.348-5.985c-0.63-0.21-1.288-0.349-1.985-0.349
				c-3.501,0-6.333,2.833-6.333,6.334c0,3.495,2.833,6.331,6.333,6.331c0.697,0,1.356-0.142,1.985-0.349
				C102.541,226.346,100.713,223.998,100.713,221.2z"/>
		</g>
		<g>
			<path fill="#F4F4F4" d="M290.481,208.787c0,3.495-2.839,6.331-6.334,6.331c-3.497,0-6.333-2.836-6.333-6.331
				c0-3.501,2.836-6.334,6.333-6.334C287.642,202.454,290.481,205.287,290.481,208.787z"/>
		</g>
		<g>
			<rect x="133.778" y="250.957" fill="#FFE2A9" width="6.345" height="11.167"/>
		</g>
		<g>
			<rect x="169.381" y="231.094" fill="#FFE2A9" width="6.346" height="14.369"/>
		</g>
		<g>
			<rect x="158.649" y="208.784" fill="#AEF4DB" width="9.483" height="22.309"/>
		</g>
		<g>
			<rect x="199.699" y="208.784" fill="#AEF4DB" width="9.054" height="22.309"/>
		</g>
		<g>
			<rect x="246.92" y="250.957" fill="#FFE2A9" width="6.345" height="11.167"/>
		</g>
		<g>
			<rect x="250.784" y="239.814" fill="#AEF4DB" width="5.483" height="11.166"/>
		</g>
		<g>
			<rect x="137.642" y="239.79" fill="#AEF4DB" width="5.483" height="11.166"/>
		</g>
		<g>
			<rect x="240.746" y="177.252" fill="#F9F9F9" width="5.063" height="62.538"/>
		</g>
		<g>
			<polygon fill="#F9F9F9" points="132.667,239.79 127.604,239.79 142.729,177.252 147.792,177.252 			"/>
		</g>
		<g>
			<path fill="#F9F9F9" d="M307.316,242.553c0-4.505,2.853-8.31,6.842-9.79c-1.134-0.423-2.349-0.686-3.631-0.686
				c-5.79,0-10.478,4.688-10.478,10.475c0,5.784,4.688,10.472,10.478,10.472c1.282,0,2.496-0.263,3.631-0.685
				C310.17,250.859,307.316,247.055,307.316,242.553z"/>
		</g>
		<g>
			<path fill="#F9F9F9" d="M281.784,208.784c0-2.804,1.828-5.149,4.348-5.985c-0.629-0.21-1.288-0.348-1.985-0.348
				c-3.5,0-6.333,2.833-6.333,6.333c0,3.495,2.833,6.331,6.333,6.331c0.697,0,1.356-0.142,1.985-0.349
				C283.612,213.93,281.784,211.582,281.784,208.784z"/>
		</g>
	</g>
	<g>
		<g>
			<path fill="#161616" d="M309.201,325.53H276.75c-2.505,0-4.538-2.032-4.538-4.538c0-2.505,2.032-4.538,4.538-4.538h32.451
				c4.003,0,7.261-3.258,7.261-7.261c0-4.006-3.258-7.264-7.261-7.264c-0.798,0-1.61,0.157-2.484,0.481
				c-1.282,0.464-2.694,0.346-3.87-0.343c-1.173-0.688-1.976-1.867-2.186-3.208c-0.774-4.913-4.922-8.478-9.864-8.478
				c-1.71,0-3.382,0.467-4.978,1.391c-1.099,0.638-2.419,0.792-3.639,0.402c-1.214-0.384-2.213-1.261-2.75-2.416
				c-2.384-5.134-7.568-8.452-13.205-8.452c-2.792,0-5.515,0.804-7.876,2.325c-1.179,0.762-2.644,0.93-3.964,0.467
				c-1.323-0.467-2.357-1.518-2.8-2.848c-1.982-5.97-7.536-9.979-13.819-9.979c-4.91,0-9.462,2.458-12.171,6.576
				c-0.919,1.394-2.499,2.162-4.195,2.024c-1.663-0.148-3.111-1.199-3.766-2.735c-3.12-7.297-10.257-12.011-18.185-12.011
				c-7.552,0-14.546,4.422-17.819,11.264c-0.685,1.433-2.069,2.402-3.65,2.558c-1.585,0.148-3.128-0.529-4.078-1.802
				c-2.789-3.731-7.041-5.873-11.666-5.873c-6.282,0-11.836,4.009-13.819,9.979c-0.442,1.329-1.475,2.381-2.798,2.848
				c-1.323,0.461-2.786,0.292-3.966-0.467c-2.362-1.521-5.085-2.325-7.876-2.325c-5.638,0-10.821,3.317-13.206,8.452
				c-0.536,1.155-1.535,2.032-2.75,2.416c-1.216,0.378-2.536,0.239-3.638-0.402c-1.597-0.922-3.272-1.391-4.979-1.391
				c-4.942,0-9.09,3.565-9.861,8.475c-0.211,1.344-1.015,2.523-2.188,3.211c-1.174,0.688-2.595,0.809-3.868,0.343
				c-0.874-0.325-1.688-0.481-2.486-0.481c-4.004,0-7.263,3.258-7.263,7.264c0,4.003,3.258,7.261,7.263,7.261h163.682
				c2.505,0,4.537,2.033,4.537,4.538c0,2.505-2.032,4.538-4.537,4.538H90.801c-9.008,0-16.338-7.329-16.338-16.336
				c0-9.302,7.834-16.894,17.216-16.312c2.93-6.916,9.704-11.574,17.524-11.574c1.835,0,3.632,0.269,5.378,0.798
				c4.393-6.106,11.534-9.873,19.196-9.873c2.806,0,5.57,0.499,8.175,1.462c4.202-7.034,11.837-11.497,20.283-11.497
				c5.36,0,10.407,1.764,14.5,4.969c5.405-6.895,13.791-11.116,22.713-11.116c9.27,0,17.798,4.416,23.16,11.648
				c4.198-3.515,9.53-5.5,15.157-5.5c8.446,0,16.082,4.464,20.283,11.497c2.609-0.963,5.371-1.462,8.177-1.462
				c7.66,0,14.8,3.767,19.196,9.873c1.743-0.529,3.542-0.798,5.376-0.798c7.816,0,14.593,4.659,17.524,11.574
				c9.412-0.555,17.216,7.01,17.216,16.312C325.537,318.201,318.208,325.53,309.201,325.53z"/>
		</g>
		<g>
			<path fill="#161616" d="M199.697,181.79c-16.159,0-29.305-13.146-29.305-29.305c0-16.159,13.146-29.304,29.305-29.304
				c16.157,0,29.303,13.146,29.303,29.304C229,168.644,215.855,181.79,199.697,181.79z M199.697,132.256
				c-11.155,0-20.23,9.075-20.23,20.23c0,11.155,9.075,20.23,20.23,20.23c11.153,0,20.228-9.075,20.228-20.23
				C219.925,141.331,210.85,132.256,199.697,132.256z"/>
		</g>
		<g>
			<path fill="#161616" d="M240.746,213.322h-82.097c-2.507,0-4.538-2.033-4.538-4.538v-74.337c0-10.478,3.45-20.924,10.255-31.045
				c0.842-1.253,2.254-2.006,3.765-2.006h63.138c1.501,0,2.904,0.742,3.749,1.982c6.812,9.985,10.266,20.439,10.266,31.068v11.778
				c0,2.505-2.032,4.537-4.538,4.537c-2.505,0-4.537-2.032-4.537-4.537v-11.778c0-8.088-2.484-16.144-7.391-23.975h-58.216
				c-4.921,7.949-7.415,16.005-7.415,23.975v69.799h73.022v-35.753c0-2.505,2.032-4.537,4.537-4.537
				c2.505,0,4.538,2.032,4.538,4.537v40.291C245.283,211.289,243.251,213.322,240.746,213.322z"/>
		</g>
		<g>
			<path fill="#161616" d="M231.266,110.472h-63.138c-1.677,0-3.217-0.925-4.004-2.405c-0.789-1.48-0.697-3.273,0.239-4.664
				c10.918-16.239,26.668-25.975,27.333-26.383c5.046-2.927,9.075-3.846,14.921,0.012c1.826,1.055,17.553,10.44,28.398,26.347
				c0.948,1.388,1.049,3.188,0.263,4.676C234.492,109.542,232.947,110.472,231.266,110.472z M177.329,101.397h44.614
				c-9.32-10.44-19.825-16.484-19.952-16.558c-0.094-0.053-0.192-0.115-0.282-0.174c-2.239-1.498-2.369-1.586-5.369,0.154
				C196.296,84.845,186.314,91.043,177.329,101.397z"/>
		</g>
		<g>
			<path fill="#161616" d="M199.697,235.631h-41.049c-2.507,0-4.538-2.032-4.538-4.537v-22.309c0-2.505,2.031-4.537,4.538-4.537
				h41.049c2.507,0,4.539,2.032,4.539,4.537v22.309C204.236,233.599,202.204,235.631,199.697,235.631z M163.186,226.556h31.974
				v-13.234h-31.974V226.556z"/>
		</g>
		<g>
			<path fill="#161616" d="M240.746,235.631h-41.093c-2.506,0-4.537-2.032-4.537-4.537v-22.309c0-2.505,2.031-4.537,4.537-4.537
				h41.093c2.505,0,4.538,2.032,4.538,4.537v22.309C245.283,233.599,243.251,235.631,240.746,235.631z M204.192,226.556h32.016
				v-13.234h-32.016V226.556z"/>
		</g>
		<g>
			<path fill="#161616" d="M230.014,250h-60.634c-2.507,0-4.538-2.032-4.538-4.537v-14.369c0-2.505,2.031-4.537,4.538-4.537h60.634
				c2.505,0,4.538,2.032,4.538,4.537v14.369C234.551,247.967,232.519,250,230.014,250z M173.917,240.925h51.559v-5.294h-51.559
				V240.925z"/>
		</g>
		<g>
			<path fill="#161616" d="M207.619,265.125h-16.342c-10.842,0-19.662-8.821-19.662-19.662c0-2.505,2.031-4.538,4.538-4.538h46.592
				c2.505,0,4.538,2.032,4.538,4.538C227.281,256.304,218.46,265.125,207.619,265.125z M181.711,250
				c1.703,3.574,5.35,6.05,9.565,6.05h16.342c4.215,0,7.864-2.476,9.565-6.05H181.711z"/>
		</g>
		<g>
			<path fill="#161616" d="M158.649,244.328h-31.045c-1.391,0-2.706-0.638-3.566-1.731c-0.861-1.093-1.171-2.52-0.845-3.873
				l15.125-62.538c0.493-2.035,2.316-3.471,4.41-3.471h15.92c2.507,0,4.538,2.032,4.538,4.538v62.538
				C163.186,242.296,161.155,244.328,158.649,244.328z M133.37,235.253h20.741V181.79h-7.811L133.37,235.253z"/>
		</g>
		<g>
			<path fill="#161616" d="M271.79,244.328h-31.045c-2.505,0-4.537-2.032-4.537-4.538v-62.538c0-2.505,2.032-4.538,4.537-4.538
				h15.92c2.094,0,3.917,1.436,4.41,3.471l15.125,62.538c0.328,1.353,0.015,2.78-0.845,3.873
				C274.496,243.69,273.182,244.328,271.79,244.328z M245.283,235.253h20.741l-12.93-53.463h-7.811V235.253z"/>
		</g>
		<g>
			<path fill="#161616" d="M148.609,255.494h-10.966c-2.507,0-4.537-2.032-4.537-4.537V239.79c0-2.505,2.031-4.538,4.537-4.538
				h10.966c2.507,0,4.538,2.032,4.538,4.538v11.167C153.147,253.462,151.116,255.494,148.609,255.494z M142.181,246.419h1.891
				v-2.091h-1.891V246.419z"/>
		</g>
		<g>
			<path fill="#161616" d="M152.475,266.661h-18.698c-2.507,0-4.537-2.032-4.537-4.538v-11.166c0-2.505,2.031-4.538,4.537-4.538
				h18.698c2.507,0,4.538,2.032,4.538,4.538v11.166C157.012,264.628,154.981,266.661,152.475,266.661z M138.314,257.586h9.623
				v-2.092h-9.623V257.586z"/>
		</g>
		<g>
			<path fill="#161616" d="M261.749,255.494h-10.966c-2.505,0-4.538-2.032-4.538-4.537V239.79c0-2.505,2.032-4.538,4.538-4.538
				h10.966c2.505,0,4.537,2.032,4.537,4.538v11.167C266.287,253.462,264.254,255.494,261.749,255.494z M255.321,246.419h1.891
				v-2.091h-1.891V246.419z"/>
		</g>
		<g>
			<path fill="#161616" d="M265.616,266.661H246.92c-2.505,0-4.537-2.032-4.537-4.538v-11.166c0-2.505,2.032-4.538,4.537-4.538
				h18.696c2.505,0,4.538,2.032,4.538,4.538v11.166C270.154,264.628,268.121,266.661,265.616,266.661z M251.457,257.586h9.621
				v-2.092h-9.621V257.586z"/>
		</g>
		<g>
			<path fill="#161616" d="M89.477,271.73c-8.279,0-15.014-6.732-15.014-15.01s6.735-15.013,15.014-15.013
				c8.277,0,15.011,6.735,15.011,15.013S97.755,271.73,89.477,271.73z M89.477,250.783c-3.275,0-5.939,2.665-5.939,5.938
				s2.665,5.935,5.939,5.935c3.273,0,5.936-2.662,5.936-5.935S92.75,250.783,89.477,250.783z"/>
		</g>
		<g>
			<path fill="#161616" d="M310.527,257.562c-8.28,0-15.016-6.732-15.016-15.01c0-8.277,6.735-15.013,15.016-15.013
				c8.277,0,15.01,6.735,15.01,15.013C325.537,250.83,318.805,257.562,310.527,257.562z M310.527,236.615
				c-3.276,0-5.941,2.665-5.941,5.938c0,3.273,2.665,5.935,5.941,5.935c3.273,0,5.935-2.662,5.935-5.935
				C316.462,239.279,313.8,236.615,310.527,236.615z"/>
		</g>
		<g>
			<path fill="#161616" d="M103.076,232.068c-5.994,0-10.871-4.874-10.871-10.868c0-5.994,4.877-10.871,10.871-10.871
				c5.994,0,10.869,4.877,10.869,10.871C113.946,227.194,109.07,232.068,103.076,232.068z M103.076,219.404
				c-0.99,0-1.796,0.807-1.796,1.796c0,0.99,0.806,1.793,1.796,1.793c0.99,0,1.795-0.803,1.795-1.793
				C104.871,220.211,104.066,219.404,103.076,219.404z"/>
		</g>
		<g>
			<path fill="#161616" d="M284.147,219.655c-5.994,0-10.871-4.874-10.871-10.868c0-5.994,4.877-10.871,10.871-10.871
				c5.994,0,10.871,4.877,10.871,10.871C295.018,214.781,290.141,219.655,284.147,219.655z M284.147,206.991
				c-0.99,0-1.796,0.807-1.796,1.796c0,0.99,0.807,1.793,1.796,1.793s1.796-0.804,1.796-1.793
				C285.943,207.798,285.137,206.991,284.147,206.991z"/>
		</g>
	</g>
</g>
</svg>
