<?xml version="1.0" encoding="utf-8"?>
<!-- Generator: Adobe Illustrator 24.3.0, SVG Export Plug-In . SVG Version: 6.00 Build 0)  -->
<svg version="1.1" id="Layer_1" xmlns="http://www.w3.org/2000/svg" xmlns:xlink="http://www.w3.org/1999/xlink" x="0px" y="0px"
	 viewBox="0 0 400 400" enable-background="new 0 0 400 400" xml:space="preserve">
<g>
	<g>
		<g>
			
				<rect x="227.88" y="108.403" transform="matrix(0.8432 -0.5375 0.5375 0.8432 -32.4736 153.9099)" fill="#FFDA88" width="39.524" height="48.456"/>
		</g>
		<g>
			
				<rect x="262.758" y="101.45" transform="matrix(0.8432 -0.5375 0.5375 0.8432 -19.9903 164.8489)" fill="#8EC0D6" width="19.763" height="30.496"/>
		</g>
		<g>
			
				<rect x="113.505" y="192.981" transform="matrix(0.8433 -0.5375 0.5375 0.8433 -91.6978 101.9941)" fill="#FFDA88" width="31.069" height="30.498"/>
		</g>
		<g>
			
				<rect x="114.926" y="197.856" transform="matrix(0.8432 -0.5376 0.5376 0.8432 -95.5255 98.6645)" fill="#FFE2A9" width="12.931" height="30.498"/>
		</g>
		<g>
			
				<rect x="101.622" y="212.204" transform="matrix(0.8433 -0.5375 0.5375 0.8433 -101.5133 93.4012)" fill="#8EC0D6" width="15.535" height="17.104"/>
		</g>
		<g>
			<path fill="#F4F4F4" d="M109.324,235.105c2.709,4.251,1.459,9.89-2.789,12.596l0,0c-4.251,2.709-9.887,1.459-12.596-2.789
				l-12.971-20.348c-2.706-4.251-1.46-9.887,2.791-12.596l0,0c4.248-2.706,9.888-1.46,12.593,2.786L109.324,235.105z"/>
		</g>
		<g>
			<path fill="#F9F9F9" d="M101.126,237.631l-12.971-20.348c-1.309-2.056-1.675-4.434-1.241-6.65
				c-1.09,0.213-2.162,0.609-3.155,1.241c-4.251,2.709-5.498,8.345-2.791,12.596l12.971,20.348
				c2.709,4.248,8.345,5.498,12.596,2.789c2.195-1.397,3.569-3.577,4.032-5.944C106.993,242.36,103.203,240.886,101.126,237.631z"/>
		</g>
		<g>
			
				<rect x="279.676" y="82.713" transform="matrix(0.8432 -0.5376 0.5376 0.8432 -12.3387 171.5812)" fill="#FFDA88" width="16.533" height="48.456"/>
		</g>
		<g>
			<path fill="#9AE8CE" d="M209.982,107.057l6.239-3.976c5.565-3.551,7.199-10.948,3.654-16.513
				c-3.554-5.572-10.945-7.205-16.51-3.657l-6.239,3.976L209.982,107.057z"/>
		</g>
		<g>
			<path fill="#AEF4DB" d="M205.633,86.757c5.055-3.223,11.586-2.133,15.408,2.263c-0.295-0.842-0.668-1.666-1.167-2.452
				c-3.554-5.572-10.945-7.205-16.51-3.657l-6.239,3.976l2.399,3.764L205.633,86.757z"/>
		</g>
		<g>
			<path fill="#9AE8CE" d="M303.936,116.649l8.756-5.58c7.81-4.978,10.106-15.358,5.128-23.169
				c-4.987-7.822-15.361-10.115-23.172-5.137l-8.756,5.583L303.936,116.649z"/>
		</g>
		<g>
			<path fill="#AEF4DB" d="M291.092,96.381l8.756-5.583c6.366-4.059,14.392-3.217,19.857,1.445
				c-0.434-1.495-1.007-2.963-1.884-4.343c-4.987-7.822-15.361-10.115-23.172-5.137l-8.756,5.583L291.092,96.381z"/>
		</g>
		<g>
			
				<rect x="168.181" y="130.299" transform="matrix(0.8432 -0.5376 0.5376 0.8432 -47.0828 116.6128)" fill="#8EC0D6" width="16.33" height="17.425"/>
		</g>
		<g>
			
				<rect x="133.285" y="109.336" transform="matrix(0.8433 -0.5375 0.5375 0.8433 -39.3938 107.802)" fill="#FFDA88" width="63.733" height="24.227"/>
		</g>
		<g>
			
				<rect x="137.281" y="122.752" transform="matrix(0.8432 -0.5375 0.5375 0.8432 -49.9761 98.3605)" fill="#FFE2A9" width="12.746" height="24.228"/>
		</g>
		<g>
			
				<rect x="125.676" y="136.195" transform="matrix(0.8431 -0.5377 0.5377 0.8431 -55.7024 93.5646)" fill="#8EC0D6" width="13.674" height="12.117"/>
		</g>
		<g>
			
				<rect x="190.952" y="81.766" transform="matrix(0.8433 -0.5374 0.5374 0.8433 -23.0992 122.0514)" fill="#8EC0D6" width="13.672" height="37.758"/>
		</g>
		<g>
			<path fill="#8EC0D6" d="M186.692,187.019c0-10.579,8.579-19.157,19.16-19.157c7.084,0,13.258,3.858,16.573,9.577l21.577-13.754
				l-26.046-40.861l-88.838,56.627l26.046,40.861l35.003-22.312C187.982,194.888,186.692,191.107,186.692,187.019z"/>
		</g>
		<g>
			<polygon fill="#A9D2E0" points="141.074,171.835 129.128,179.45 155.174,220.311 166.249,213.251 			"/>
		</g>
		<g>
			<path fill="#FFDA88" d="M225.009,187.019c0,10.582-8.576,19.16-19.157,19.16c-10.581,0-19.16-8.579-19.16-19.16
				c0-10.579,8.579-19.157,19.16-19.157C216.433,167.861,225.009,176.44,225.009,187.019z"/>
		</g>
		<g>
			<path fill="#FFE2A9" d="M197.279,187.019c0-8.741,5.861-16.1,13.866-18.398c-1.684-0.485-3.456-0.759-5.294-0.759
				c-10.581,0-19.16,8.579-19.16,19.157c0,10.582,8.579,19.16,19.16,19.16c1.838,0,3.61-0.275,5.294-0.756
				C203.14,203.121,197.279,195.763,197.279,187.019z"/>
		</g>
		<g>
			<path fill="#F4F4F4" d="M205.851,206.182c-1.802,0-3.536-0.266-5.187-0.73v99.213h10.372v-99.213
				C209.385,205.916,207.651,206.182,205.851,206.182z"/>
		</g>
		<g>
			<path fill="#F4F4F4" d="M221.346,198.256c-2.068,2.848-4.886,5.11-8.18,6.472l62.485,99.937h12.227L221.346,198.256z"/>
		</g>
		<g>
			<path fill="#F9F9F9" d="M190.348,198.256c2.068,2.848,4.886,5.11,8.183,6.472l-62.485,99.937h-12.23L190.348,198.256z"/>
		</g>
		<g>
			<rect x="186.692" y="304.665" fill="#9AE8CE" width="38.317" height="15.193"/>
		</g>
		<g>
			<rect x="262.16" y="304.665" fill="#9AE8CE" width="38.318" height="15.193"/>
		</g>
		<g>
			<rect x="111.217" y="304.665" fill="#9AE8CE" width="38.317" height="15.193"/>
		</g>
		<g>
			<rect x="111.217" y="304.665" fill="#AEF4DB" width="12.599" height="15.193"/>
		</g>
		<g>
			<rect x="186.692" y="304.665" fill="#AEF4DB" width="12.599" height="15.193"/>
		</g>
		<g>
			<rect x="262.16" y="304.665" fill="#AEF4DB" width="12.599" height="15.193"/>
		</g>
		<g>
			<path fill="#F9F9F9" d="M205.849,206.182c-1.799,0-3.533-0.266-5.184-0.73v99.213h5.184V206.182z"/>
		</g>
		<g>
			<polygon fill="#A9D2E0" points="98.243,217.72 107.472,232.128 111.678,229.439 102.565,214.964 			"/>
		</g>
		<g>
			<polygon fill="#A9D2E0" points="123.492,140.819 130.005,151.038 132.513,149.44 126.201,139.094 			"/>
		</g>
		<g>
			<polygon fill="#A9D2E0" points="181.876,88.399 202.171,120.238 207.323,116.957 187.391,84.881 			"/>
		</g>
		<g>
			<polygon fill="#FFE2A9" points="217.954,122.823 244.001,163.684 251.135,159.135 225.009,118.324 			"/>
		</g>
		<g>
			<polygon fill="#A9D2E0" points="256.11,109.152 272.505,134.867 278.573,131 262.254,105.235 			"/>
		</g>
		<g>
			<polygon fill="#FFE2A9" points="267.95,90.955 274.05,87.064 299.984,127.996 293.996,131.816 			"/>
		</g>
	</g>
	<g>
		<g>
			<path fill="#161616" d="M244.001,168.222c-0.328,0-0.656-0.035-0.981-0.106c-1.176-0.26-2.199-0.978-2.845-1.991l-26.046-40.861
				c-1.347-2.115-0.727-4.919,1.387-6.266l33.328-21.246c1.015-0.647,2.249-0.86,3.419-0.606c1.176,0.26,2.199,0.978,2.845,1.991
				l26.046,40.861c1.347,2.115,0.727,4.919-1.387,6.266l-33.328,21.246C245.705,167.98,244.857,168.222,244.001,168.222z
				 M224.22,124.212l21.168,33.207l25.676-16.369l-21.168-33.207L224.22,124.212z"/>
		</g>
		<g>
			<path fill="#161616" d="M272.509,139.405c-1.499,0-2.964-0.742-3.83-2.098l-16.395-25.715c-0.647-1.016-0.864-2.245-0.604-3.421
				c0.26-1.176,0.976-2.198,1.991-2.845l16.667-10.623c2.108-1.35,4.919-0.727,6.264,1.385l16.392,25.715
				c1.347,2.115,0.727,4.919-1.387,6.266l-16.664,10.623C274.189,139.174,273.344,139.405,272.509,139.405z M262.375,110.54
				l11.517,18.061l9.012-5.746l-11.514-18.061L262.375,110.54z"/>
		</g>
		<g>
			<path fill="#161616" d="M124.136,233.977c-0.328,0-0.656-0.036-0.981-0.106c-1.176-0.26-2.199-0.978-2.846-1.991l-16.392-25.718
				c-1.346-2.115-0.725-4.919,1.388-6.266l26.2-16.7c1.015-0.65,2.251-0.86,3.419-0.606c1.176,0.26,2.199,0.978,2.846,1.991
				l16.392,25.718c1.346,2.115,0.725,4.919-1.389,6.266l-26.2,16.7C125.84,233.735,124.992,233.977,124.136,233.977z
				 M114.009,205.109l11.514,18.064l18.547-11.822l-11.514-18.064L114.009,205.109z"/>
		</g>
		<g>
			<path fill="#161616" d="M107.441,236.68c-1.499,0-2.966-0.742-3.83-2.097l-9.193-14.422c-1.347-2.115-0.727-4.919,1.385-6.266
				l13.099-8.351c2.112-1.35,4.917-0.727,6.266,1.385l9.196,14.422c0.647,1.016,0.866,2.245,0.604,3.421
				c-0.26,1.176-0.976,2.198-1.991,2.845l-13.101,8.351C109.12,236.449,108.275,236.68,107.441,236.68z M104.509,219.106
				l4.314,6.771l5.449-3.471l-4.317-6.771L104.509,219.106z"/>
		</g>
		<g>
			<path fill="#161616" d="M101.653,253.666c-4.515,0-8.938-2.233-11.54-6.313l-12.971-20.348
				c-4.046-6.357-2.171-14.818,4.179-18.862c6.35-4.05,14.812-2.171,18.857,4.171l12.973,20.351c0,0,0,0,0,0.003
				c1.962,3.075,2.607,6.732,1.818,10.295c-0.79,3.563-2.919,6.605-5.997,8.564C106.703,252.975,104.164,253.666,101.653,253.666z
				 M88.657,215.08c-0.843,0-1.697,0.23-2.461,0.715c-2.13,1.359-2.759,4.201-1.402,6.333l12.97,20.345
				c1.36,2.133,4.196,2.756,6.332,1.403c1.033-0.659,1.747-1.678,2.012-2.874c0.264-1.196,0.047-2.422-0.612-3.456l-12.971-20.351
				C91.654,215.827,90.171,215.08,88.657,215.08z"/>
		</g>
		<g>
			<path fill="#161616" d="M293.996,136.353c-0.328,0-0.656-0.035-0.981-0.106c-1.174-0.26-2.198-0.978-2.845-1.991l-26.046-40.861
				c-1.347-2.115-0.727-4.919,1.385-6.266l13.94-8.889c1.016-0.65,2.245-0.86,3.421-0.606c1.174,0.26,2.198,0.978,2.845,1.991
				l26.046,40.861c1.347,2.115,0.727,4.919-1.385,6.266l-13.94,8.889C295.7,136.111,294.854,136.353,293.996,136.353z
				 M274.214,92.34l21.169,33.21l6.289-4.009l-21.169-33.21L274.214,92.34z"/>
		</g>
		<g>
			<path fill="#161616" d="M209.986,111.595c-1.499,0-2.966-0.741-3.831-2.097l-12.856-20.171c-0.645-1.016-0.864-2.245-0.603-3.421
				c0.26-1.176,0.976-2.198,1.991-2.845l6.239-3.976c7.663-4.883,17.884-2.623,22.775,5.043c4.886,7.672,2.625,17.89-5.04,22.779
				l-6.24,3.976C211.664,111.364,210.82,111.595,209.986,111.595z M203.391,88.275l7.978,12.516l2.413-1.536
				c3.447-2.201,4.464-6.797,2.266-10.251c-2.201-3.447-6.791-4.467-10.245-2.269L203.391,88.275z"/>
		</g>
		<g>
			<path fill="#161616" d="M303.941,121.187c-1.499,0-2.966-0.742-3.83-2.097l-18.044-28.303c-1.347-2.115-0.727-4.918,1.385-6.266
				l8.756-5.583c9.914-6.316,23.119-3.388,29.438,6.523c3.059,4.8,4.066,10.508,2.836,16.067c-1.23,5.563-4.551,10.31-9.351,13.367
				l-8.756,5.58C305.619,120.956,304.775,121.187,303.941,121.187z M292.158,89.732l13.165,20.652l4.93-3.14
				c2.755-1.758,4.662-4.481,5.368-7.678c0.707-3.193,0.13-6.472-1.628-9.229c-3.628-5.693-11.212-7.37-16.906-3.749L292.158,89.732
				z"/>
		</g>
		<g>
			<path fill="#161616" d="M174.145,155.286c-0.328,0-0.656-0.035-0.981-0.106c-1.174-0.26-2.198-0.978-2.845-1.991l-9.367-14.694
				c-1.347-2.115-0.727-4.919,1.385-6.266l13.769-8.78c1.016-0.65,2.245-0.86,3.421-0.606c1.174,0.26,2.198,0.978,2.845,1.991
				l9.368,14.694c1.347,2.115,0.727,4.919-1.385,6.266l-13.769,8.78C175.85,155.044,175.004,155.286,174.145,155.286z
				 M171.044,137.44l4.489,7.042l6.117-3.899l-4.489-7.042L171.044,137.44z"/>
		</g>
		<g>
			<path fill="#161616" d="M144.791,153.33c-0.328,0-0.656-0.035-0.981-0.106c-1.176-0.26-2.199-0.978-2.846-1.991l-13.022-20.43
				c-0.646-1.016-0.863-2.245-0.603-3.421c0.26-1.176,0.976-2.198,1.991-2.845l7.958-5.072c2.114-1.35,4.916-0.727,6.266,1.386
				c1.346,2.115,0.725,4.919-1.388,6.266l-4.131,2.635l8.143,12.776l46.091-29.378l-8.143-12.776l-23.175,14.77
				c-2.111,1.344-4.919,0.724-6.264-1.385c-1.347-2.115-0.727-4.919,1.387-6.266l27-17.21c1.016-0.65,2.248-0.86,3.419-0.606
				c1.176,0.26,2.199,0.978,2.846,1.991l13.022,20.43c1.346,2.115,0.725,4.919-1.388,6.266l-53.744,34.256
				C146.495,153.088,145.647,153.33,144.791,153.33z"/>
		</g>
		<g>
			<path fill="#161616" d="M130.005,155.575c-0.328,0-0.656-0.035-0.981-0.106c-1.174-0.26-2.198-0.978-2.845-1.991l-6.514-10.218
				c-0.647-1.016-0.864-2.245-0.604-3.421c0.26-1.176,0.976-2.198,1.991-2.845l11.53-7.35c2.111-1.347,4.917-0.724,6.264,1.385
				l6.514,10.215c1.347,2.112,0.727,4.919-1.385,6.266l-11.53,7.353C131.71,155.333,130.864,155.575,130.005,155.575z
				 M129.757,142.208l1.635,2.564l3.877-2.473l-1.635-2.564L129.757,142.208z"/>
		</g>
		<g>
			<path fill="#161616" d="M202.175,124.776c-1.499,0-2.966-0.742-3.83-2.097l-20.296-31.839c-1.346-2.115-0.725-4.918,1.388-6.266
				l11.53-7.35c1.016-0.65,2.247-0.86,3.419-0.606c1.176,0.26,2.199,0.978,2.846,1.991l20.295,31.842
				c0.645,1.016,0.864,2.245,0.603,3.421c-0.26,1.176-0.976,2.198-1.991,2.845l-11.53,7.347
				C203.853,124.546,203.01,124.776,202.175,124.776z M188.142,89.788l15.417,24.185l3.876-2.47l-15.416-24.188L188.142,89.788z"/>
		</g>
		<g>
			<path fill="#161616" d="M155.162,224.849c-0.328,0-0.656-0.036-0.981-0.106c-1.176-0.26-2.199-0.978-2.845-1.991l-26.046-40.861
				c-0.647-1.016-0.864-2.245-0.604-3.421c0.26-1.176,0.976-2.198,1.991-2.845l88.838-56.627c2.109-1.35,4.917-0.727,6.264,1.385
				l26.046,40.861c1.347,2.115,0.727,4.919-1.387,6.266l-21.577,13.754c-1.04,0.668-2.312,0.886-3.512,0.582
				c-1.202-0.293-2.232-1.064-2.852-2.133c-2.614-4.511-7.461-7.314-12.646-7.314c-8.063,0-14.623,6.558-14.623,14.62
				c0,3.007,0.917,5.902,2.651,8.375c0.71,1.013,0.976,2.272,0.736,3.489c-0.241,1.214-0.967,2.278-2.012,2.942l-35.003,22.312
				C156.867,224.606,156.019,224.849,155.162,224.849z M135.382,180.839l21.168,33.207l27.573-17.577
				c-1.295-2.963-1.969-6.165-1.969-9.45c0-13.066,10.63-23.695,23.698-23.695c6.818,0,13.27,2.981,17.725,8l14.159-9.028
				l-21.168-33.207L135.382,180.839z"/>
		</g>
		<g>
			<path fill="#161616" d="M225.009,324.396h-38.318c-2.507,0-4.538-2.032-4.538-4.538v-15.193c0-2.505,2.031-4.537,4.538-4.537
				h38.318c2.507,0,4.537,2.032,4.537,4.537v15.193C229.546,322.363,227.515,324.396,225.009,324.396z M191.229,315.321h29.243
				v-6.118h-29.243V315.321z"/>
		</g>
		<g>
			<path fill="#161616" d="M300.477,324.396h-8.023c-2.507,0-4.538-2.032-4.538-4.538s2.031-4.537,4.538-4.537h3.486v-6.118h-29.243
				v6.118h3.489c2.507,0,4.538,2.032,4.538,4.537s-2.031,4.538-4.538,4.538h-8.026c-2.507,0-4.537-2.032-4.537-4.538v-15.193
				c0-2.505,2.031-4.537,4.537-4.537h38.318c2.507,0,4.537,2.032,4.537,4.537v15.193
				C305.014,322.363,302.984,324.396,300.477,324.396z"/>
		</g>
		<g>
			<path fill="#161616" d="M205.852,210.716c-13.067,0-23.698-10.632-23.698-23.698c0-13.066,10.63-23.695,23.698-23.695
				c13.066,0,23.695,10.629,23.695,23.695C229.546,200.085,218.918,210.716,205.852,210.716z M205.852,172.399
				c-8.063,0-14.623,6.558-14.623,14.62c0,8.062,6.56,14.623,14.623,14.623c8.062,0,14.62-6.561,14.62-14.623
				C220.471,178.957,213.913,172.399,205.852,172.399z"/>
		</g>
		<g>
			<path fill="#161616" d="M205.851,206.182c-1.802,0-3.536-0.266-5.187-0.73v99.213h10.372v-99.213
				C209.385,205.916,207.651,206.182,205.851,206.182z"/>
		</g>
		<g>
			<path fill="#161616" d="M221.346,198.256c-2.068,2.848-4.886,5.11-8.18,6.472l62.485,99.937h12.227L221.346,198.256z"/>
		</g>
		<g>
			<path fill="#161616" d="M149.535,324.396h-38.317c-2.507,0-4.538-2.032-4.538-4.538v-15.193c0-2.505,2.031-4.537,4.538-4.537
				h38.317c2.507,0,4.538,2.032,4.538,4.537v15.193C154.072,322.363,152.041,324.396,149.535,324.396z M115.755,315.321h29.243
				v-6.118h-29.243V315.321z"/>
		</g>
		<g>
			<path fill="#161616" d="M190.348,198.256c2.068,2.848,4.886,5.11,8.183,6.472l-62.485,99.937h-12.23L190.348,198.256z"/>
		</g>
	</g>
</g>
</svg>
